<svg width="25" height="24" viewBox="0 0 25 24" fill="none" xmlns="http://www.w3.org/2000/svg">
<path d="M12.0264 21.0004L10.5764 19.7004C8.8931 18.1837 7.50143 16.8754 6.40143 15.7754C5.30143 14.6754 4.42643 13.6921 3.77643 12.8254C3.12643 11.9421 2.66809 11.1337 2.40143 10.4004C2.15143 9.66706 2.02643 8.91706 2.02643 8.15039C2.02643 6.58372 2.55143 5.27539 3.60143 4.22539C4.65143 3.17539 5.95976 2.65039 7.52643 2.65039C8.3931 2.65039 9.21809 2.83372 10.0014 3.20039C10.7848 3.56706 11.4598 4.08372 12.0264 4.75039C12.5931 4.08372 13.2681 3.56706 14.0514 3.20039C14.8348 2.83372 15.6598 2.65039 16.5264 2.65039C18.0931 2.65039 19.4014 3.17539 20.4514 4.22539C21.5014 5.27539 22.0264 6.58372 22.0264 8.15039C22.0264 8.91706 21.8931 9.66706 21.6264 10.4004C21.3764 11.1337 20.9264 11.9421 20.2764 12.8254C19.6264 13.6921 18.7514 14.6754 17.6514 15.7754C16.5514 16.8754 15.1598 18.1837 13.4764 19.7004L12.0264 21.0004ZM12.0264 18.3004C13.6264 16.8671 14.9431 15.6421 15.9764 14.6254C17.0098 13.5921 17.8264 12.7004 18.4264 11.9504C19.0264 11.1837 19.4431 10.5087 19.6764 9.92539C19.9098 9.32539 20.0264 8.73373 20.0264 8.15039C20.0264 7.15039 19.6931 6.31706 19.0264 5.65039C18.3598 4.98373 17.5264 4.65039 16.5264 4.65039C15.7431 4.65039 15.0181 4.87539 14.3514 5.32539C13.6848 5.75872 13.2264 6.31706 12.9764 7.00039H11.0764C10.8264 6.31706 10.3681 5.75872 9.70143 5.32539C9.03476 4.87539 8.30976 4.65039 7.52643 4.65039C6.52643 4.65039 5.69309 4.98373 5.02643 5.65039C4.35976 6.31706 4.02643 7.15039 4.02643 8.15039C4.02643 8.73373 4.1431 9.32539 4.37643 9.92539C4.60976 10.5087 5.02643 11.1837 5.62643 11.9504C6.22643 12.7004 7.0431 13.5921 8.07643 14.6254C9.10976 15.6421 10.4264 16.8671 12.0264 18.3004Z" fill="#B9B9B9"/>
</svg>
