<svg width="24" height="24" viewBox="0 0 24 24" fill="none" xmlns="http://www.w3.org/2000/svg">
<path d="M12 21.35L10.55 20.05C8.86667 18.5333 7.475 17.225 6.375 16.125C5.275 15.025 4.4 14.0417 3.75 13.175C3.1 12.2917 2.64167 11.4833 2.375 10.75C2.125 10.0167 2 9.26667 2 8.5C2 6.93333 2.525 5.625 3.575 4.575C4.625 3.525 5.93333 3 7.5 3C8.36667 3 9.19167 3.18333 9.975 3.55C10.7583 3.91667 11.4333 4.43333 12 5.1C12.5667 4.43333 13.2417 3.91667 14.025 3.55C14.8083 3.18333 15.6333 3 16.5 3C18.0667 3 19.375 3.525 20.425 4.575C21.475 5.625 22 6.93333 22 8.5C22 9.26667 21.8667 10.0167 21.6 10.75C21.35 11.4833 20.9 12.2917 20.25 13.175C19.6 14.0417 18.725 15.025 17.625 16.125C16.525 17.225 15.1333 18.5333 13.45 20.05L12 21.35Z" fill="#D1202F"/>
</svg>
