<svg width="31" height="30" viewBox="0 0 31 30" fill="none" xmlns="http://www.w3.org/2000/svg">
<path d="M26.3488 0H4.79289C3.67312 0.00023867 2.59929 0.445255 1.80761 1.23717C1.01592 2.02908 0.571209 3.10303 0.571289 4.2228V25.7778C0.571369 26.8975 1.01615 27.9713 1.80782 28.763C2.59949 29.5548 3.67322 29.9998 4.79289 30H14.6029V19.05H10.8952V14.7786H14.6029V11.6328C14.6029 9.8496 15.096 8.4652 16.0822 7.4796C17.0684 6.494 18.4059 6.0002 20.0947 5.9982C21.7861 5.9982 22.8811 6.0639 23.3815 6.1875V9.99H21.1288C20.315 9.99 19.7594 10.1625 19.462 10.5075C19.1336 10.9541 18.976 11.5036 19.0177 12.0564V14.7789H23.2429L22.6795 19.05H19.0177V30H26.3488C27.4687 30 28.5427 29.5551 29.3345 28.7633C30.1264 27.9714 30.5713 26.8974 30.5713 25.7775V4.2228C30.5713 3.66827 30.4621 3.11916 30.25 2.60683C30.0378 2.0945 29.7268 1.62897 29.3347 1.23685C28.9426 0.844721 28.4771 0.533667 27.9647 0.321447C27.4524 0.109228 26.9033 -1.39959e-09 26.3488 0Z" fill="white"/>
</svg>
