<svg width="120" height="120" viewBox="0 0 120 120" fill="none" xmlns="http://www.w3.org/2000/svg">
<path d="M112.953 40.4454C110.431 32.3114 108.547 24.3115 99.6991 15.6364C97.1718 13.2076 94.344 11.1164 91.2854 9.40593C86.7244 6.27468 81.2082 4.83767 75.6914 5.3417C70.1807 5.85107 65.0187 8.26925 61.1016 12.1834C51.4645 -4.85091 29.4481 0.210393 24.5001 2.58038C16.7411 6.56952 9.9914 12.2692 4.75358 19.2455C4.19016 19.9962 4.17943 21.0257 4.73212 21.7871C5.79993 23.2723 15.4371 35.9856 32.1685 35.9856C42.412 35.9534 52.0867 31.2618 58.451 23.2351V36.5807H52.7201C49.9137 36.6933 47.5044 38.6022 46.7478 41.2992C45.9859 44.0016 47.0483 46.8808 49.3825 48.4411L48.0947 63.5291H48.0893C47.4669 70.8372 44.2473 77.6795 39.0102 82.8159C27.8437 93.7595 25.1333 96.4672 24.3778 97.4701C17.5632 106.403 24.63 120.301 35.936 119.995H85.2537C96.6937 120.285 103.776 106.108 96.5918 97.175L81.7493 82.5043L81.7547 82.5097C76.759 77.5607 73.6145 71.0514 72.8365 64.0698L71.1462 48.7718C71.4896 48.6109 71.8116 48.4125 72.1174 48.1927C86.6756 60.5732 100.03 61.179 114.245 56.6859V56.6805C115.168 56.3588 115.753 55.4473 115.667 54.4714C115.254 49.7155 114.343 45.0141 112.953 40.4454ZM33.3389 31.6681C20.45 32.1507 11.9879 23.7648 9.20346 20.5101C13.8664 14.6978 19.6884 9.91504 26.2988 6.4722C26.9213 6.21483 41.7801 0.284653 52.3505 8.55256C53.7617 9.66246 55.012 10.96 56.0744 12.4077C42.2031 9.26565 27.6463 11.8018 15.6582 19.4585C14.6602 20.0966 14.365 21.421 14.9982 22.4237C15.6367 23.421 16.9621 23.7159 17.9656 23.0778C28.9228 15.4479 46.5174 13.6196 57.4477 17.1691H57.4424C52.3823 25.7694 43.3086 31.2221 33.333 31.6668L33.3389 31.6681ZM62.7382 35.4482C62.9153 35.8235 63.1085 36.1989 63.3017 36.5742H62.7382V35.4482ZM50.7991 42.81C50.7937 41.743 51.6523 40.8743 52.7201 40.869H65.8451C66.8163 42.3328 67.8895 43.7268 69.0647 45.0406C68.8715 45.1049 68.6676 45.1424 68.4637 45.1424H52.7201C52.1405 45.1263 51.5986 44.8583 51.2284 44.4132C50.8581 43.9628 50.7025 43.3784 50.7991 42.81ZM74.0706 100.112C74.076 97.1524 72.3964 94.4392 69.7458 93.1201C67.0896 91.8011 63.913 92.1014 61.5521 93.8922C59.1911 95.6831 58.0481 98.659 58.6116 101.57C59.1696 104.482 61.3322 106.82 64.1921 107.613H49.4567C52.0699 106.745 53.669 104.107 53.2343 101.388C52.7943 98.6695 50.4441 96.6696 47.6859 96.6696C44.9279 96.6696 42.5775 98.6695 42.1375 101.388C41.7029 104.107 43.302 106.744 45.9151 107.613H36.2189C34.2068 107.474 34.5984 104.632 34.7003 103.275C35.5267 98.1495 41.1878 93.8279 48.8231 92.4874H58.5032C59.0613 92.4874 59.5979 92.2675 59.9949 91.8815L63.7296 88.2676L66.9277 85.1738C67.2389 84.8896 67.6574 84.7556 68.0706 84.8146C68.4409 84.8521 68.7789 85.0505 68.9882 85.3561C71.9126 90.0531 74.7672 94.8841 77.461 99.7097C78.5503 101.667 79.6074 103.608 80.6376 105.533C80.8737 105.967 80.863 106.498 80.6001 106.916C80.3479 107.35 79.881 107.618 79.3766 107.613H68.3228C71.7033 106.685 74.0599 103.619 74.0706 100.112ZM66.2579 103.635C64.3316 103.608 62.7862 102.037 62.7862 100.112C62.7862 98.1926 64.3316 96.6214 66.2579 96.5947C68.1788 96.6215 69.7242 98.1926 69.7242 100.112C69.7242 102.037 68.1788 103.608 66.2579 103.635ZM46.3452 102.294C46.3613 101.565 46.9569 100.986 47.6867 100.986C48.4165 100.986 49.0121 101.565 49.0228 102.294C49.0121 103.024 48.4165 103.608 47.6867 103.608C46.9569 103.608 46.3613 103.024 46.3452 102.294ZM78.7391 85.5551L93.4415 100.091H93.4361C95.4913 103.142 95.7058 107.072 93.9995 110.332C92.2878 113.592 88.9341 115.651 85.2531 115.705H35.9355C32.2062 115.689 28.7935 113.592 27.0978 110.273C25.4022 106.949 25.6974 102.96 27.8705 99.9304C28.2622 99.48 30.489 97.1744 42.0152 85.8828C47.9875 80.0224 51.6577 72.2209 52.3661 63.8933L53.6003 49.4381H60.0662L60.0715 85.8403L57.6355 88.1941L48.6422 88.1995C37.2128 90.044 28.6003 97.5505 30.6402 107.47C31.2465 110.06 33.5539 111.893 36.2207 111.904H79.3788C81.3749 111.883 83.2208 110.832 84.2511 109.121C85.2813 107.406 85.3457 105.288 84.4281 103.513C83.3925 101.567 82.3193 99.5987 81.214 97.6202C78.4827 92.7356 75.596 87.8456 72.6339 83.0896C71.7593 81.7598 70.3642 80.8537 68.7919 80.607C67.2144 80.355 65.6099 80.7786 64.365 81.7759V49.4339H66.9031L68.5718 64.5384C69.4572 72.5007 73.047 79.916 78.7348 85.5561L78.7391 85.5551ZM105.81 54.4183C95.0568 55.9088 83.2406 54.2574 71.7951 41.6624C66.2521 34.9869 63.0808 26.6705 62.7697 18.0065C69.944 18.1673 76.946 20.2584 83.0369 24.0601C90.0769 28.5372 95.5823 35.0572 98.8121 42.7457C99.2682 43.8395 100.529 44.3543 101.624 43.8985C102.719 43.4427 103.234 42.1827 102.772 41.0889C97.6747 27.8505 82.7688 14.9183 65.6885 13.8833C76.3291 5.3204 88.4723 10.8377 96.7198 18.7303C102.177 24.0867 105.992 30.8857 107.725 38.3329C109.469 43.121 110.639 48.0968 111.224 53.1642C109.448 53.7057 107.64 54.1287 105.81 54.4183Z" fill="white"/>
</svg>
