<svg width="80" height="80" viewBox="0 0 80 80" fill="none" xmlns="http://www.w3.org/2000/svg">
<path d="M78.6667 22.66C78.6667 22.66 64.8833 22.66 64.6667 22.6767C64.2833 21.6267 63.8667 20.61 63.3833 19.61C61.2333 15.1267 58.05 11.1267 54.1667 8.02669L52.9 7.01003L50.2833 4.39336C49.7667 3.87669 48.9167 3.87669 48.4 4.39336L45.7833 6.99336L44.5167 8.01003C38.0167 13.21 33.7667 20.56 32.45 28.66C30.4333 25.3767 27.85 22.4267 24.8333 20.01L23.5667 18.9934L20.95 16.3767C20.4333 15.86 19.5833 15.86 19.0667 16.3767L16.45 18.9934L15.1833 20.01C11.3 23.11 8.11667 27.1267 5.96667 31.5934C3.8 36.0767 2.66667 41.0767 2.66667 46.0434V49.3267H1.33333C0.6 49.3267 0 49.9267 0 50.66V55.9934C0 67.0267 8.96667 75.9934 20 75.9934C26.3 75.9934 31.9333 73.06 35.6 68.4934C40.8 73.3434 47.5 75.9934 54.6667 75.9934H68C68.7333 75.9934 69.3333 75.3934 69.3333 74.66V71.9934C69.3333 65.66 67.2167 59.7934 63.65 55.0934C64.5167 53.8434 65.2 52.4934 65.7 51.0767C74.5333 46.1267 80 36.8267 80 26.66V23.9934C80 23.26 79.4 22.66 78.6667 22.66ZM74.6 25.3267L66.55 31.2267C66.3833 29.2267 66.0333 27.26 65.5 25.3267H74.6ZM42.9833 54.66H59.7833C61.2833 56.26 62.5833 58.0434 63.6333 59.9934H50.25L42.9833 54.66ZM56.8667 51.9934H40V50.66C40 49.9267 39.4 49.3267 38.6667 49.3267H37.3333V46.66H41.3333C47.1833 46.66 52.5667 48.66 56.8667 51.9934ZM46.1833 10.0934L47.5 9.04336C47.5333 9.01003 48 8.56003 48 8.56003V44.81C46.2833 44.3934 44.5 44.1267 42.6667 44.0434V30.4767C42.6667 27.2434 43.2833 24.0767 44.4833 21.0767L45.25 19.1767C45.5167 18.4934 45.1833 17.71 44.5 17.4434C43.8167 17.1767 43.0333 17.51 42.7667 18.1934L42 20.0934C40.6667 23.41 40 26.91 40 30.4934V43.9934H37.2667C37.0333 40.2267 36.15 36.4934 34.6833 33.0267C34.9833 24.06 39.15 15.71 46.1833 10.0934ZM23.15 22.0934C30.4667 27.9434 34.6667 36.6767 34.6667 46.0434V49.3267H29.3333V35.9934C29.3333 35.26 28.7333 34.66 28 34.66C27.2667 34.66 26.6667 35.26 26.6667 35.9934V50.3434L25.3333 53.01L23.8667 50.06C23.6333 49.61 23.1833 49.3267 22.6667 49.3267H21.3333V20.5434L21.7167 20.9267C21.7667 20.9767 23.15 22.0934 23.15 22.0934ZM5.33333 46.0434C5.33333 36.6767 9.53333 27.9434 16.85 22.0934C16.85 22.0934 18.25 20.9767 18.2833 20.9434L18.6667 20.56V49.3267H13.3333V35.9934C13.3333 35.26 12.7333 34.66 12 34.66C11.2667 34.66 10.6667 35.26 10.6667 35.9934V49.3267H5.33333V46.0434ZM20 73.3267C10.45 73.3267 2.66667 65.5434 2.66667 55.9934V51.9934H21.85L24.15 56.5934C24.3833 57.0434 24.8333 57.3267 25.35 57.3267C25.85 57.3267 26.3167 57.0434 26.55 56.5934L28.85 51.9934H37.3333V55.9934C37.3333 65.5434 29.55 73.3267 20 73.3267ZM40 55.9934V55.7767L48 61.6434V72.4434C43.95 71.3434 40.2333 69.26 37.15 66.2767C38.95 63.2767 40 59.76 40 55.9934ZM50.6667 73.01V63.5934L63.9333 73.31H54.6667C53.3167 73.3267 51.9833 73.2267 50.6667 73.01ZM66.6667 72.0267L53.8833 62.66H64.8833C66.0333 65.5434 66.6667 68.6934 66.6667 71.9934V72.0267ZM58.1333 49.61C58.4833 47.8267 58.6667 46.01 58.6667 44.1934V30.9934C58.6667 27.9767 58.1833 24.9934 57.2333 22.1434L55.9333 18.2434C55.7 17.5434 54.95 17.16 54.25 17.3934C53.55 17.6267 53.1667 18.3767 53.4 19.0767L54.7 22.9767C55.5667 25.56 56 28.26 56 30.9934V44.1934C56 45.46 55.9 46.7267 55.7167 47.9767C54.1333 47.0267 52.4333 46.2267 50.6667 45.5934V8.54336C50.6667 8.54336 51.1333 8.99336 51.1667 9.02669L52.4833 10.0767C59.8 15.9267 64 24.66 64 34.0267V45.3267C64 48.06 63.2667 50.6767 61.85 52.96C60.7167 51.7434 59.4667 50.61 58.1333 49.61ZM66.55 47.41C66.6333 46.7267 66.6667 46.0267 66.6667 45.3267V39.9934H73.55C71.75 42.8767 69.3833 45.41 66.55 47.41ZM74.9833 37.3267H66.6667V34.4434L77.3333 26.6267V26.66C77.3333 30.41 76.5 34.0434 74.9833 37.3267Z" fill="#47382A"/>
</svg>
