<svg width="51" height="51" viewBox="0 0 51 51" fill="none" xmlns="http://www.w3.org/2000/svg">
<path d="M49.8532 36.2893C49.7708 36.3122 49.6878 36.3234 49.6054 36.3234C48.3267 36.324 47.0204 33.6638 46.1258 31.3502C45.9743 30.9583 45.8314 30.6001 45.6924 30.2573L45.442 33.3647C44.4892 44.7565 44.7688 46.8024 44.9046 47.1646C45.2248 47.4573 46.8343 49.0031 46.379 50.1095C46.2487 50.4262 45.9205 50.7866 45.1019 50.7866C45.0317 50.7866 44.9573 50.784 44.8796 50.7781C44.0238 50.7168 43.1053 50.4161 42.149 49.885C41.1666 49.339 40.5608 48.2918 40.5687 47.1512L40.6382 36.2745C40.6391 36.1231 40.5169 35.9998 40.3658 35.9998H40.025C39.8739 35.9998 39.7517 36.1231 39.7527 36.2745L39.8225 47.1512C39.8294 48.2923 39.2242 49.3395 38.2423 49.885C37.2855 50.4161 36.3669 50.7168 35.5122 50.7781C35.434 50.784 35.3595 50.7866 35.2893 50.7866C34.4708 50.7866 34.1426 50.4262 34.0123 50.1095C33.5565 49.0025 35.1654 47.4573 35.4861 47.1646C35.6201 46.8071 35.8944 44.8081 34.9847 33.7983L34.5437 28.6267C34.4003 28.7604 34.2559 28.895 34.1032 29.0377C32.0257 30.9791 30.1226 31.6611 28.6892 31.6611C28.0734 31.6611 27.5497 31.5312 27.1303 31.3254C26.8247 31.5008 26.4401 31.6066 26.0006 31.62C25.9665 31.6211 25.932 31.6216 25.8979 31.6216C24.2504 31.6216 21.9768 30.4096 20.2401 27.1552L20.2427 27.6738C18.8795 43.5889 19.2973 46.1285 19.4808 46.5269C20.2026 47.1635 21.8384 48.9513 21.3498 50.1383C21.2012 50.4987 20.8206 50.9082 19.8593 50.9082C19.7734 50.9082 19.6827 50.905 19.5872 50.8981C18.5179 50.8213 17.3674 50.4443 16.1677 49.7778C14.9638 49.1092 14.2216 47.8247 14.2306 46.4255L14.3305 30.8129C14.3316 30.6312 14.185 30.4832 14.0037 30.4832H13.2067C13.0254 30.4832 12.8787 30.6312 12.8799 30.8129L12.9799 46.4255C12.989 47.8247 12.2465 49.1092 11.0423 49.7778C9.84344 50.4443 8.69299 50.8213 7.62338 50.8981C7.52791 50.905 7.43722 50.9082 7.35132 50.9082C6.38969 50.9082 6.00939 50.4987 5.86073 50.1383C5.3722 48.9513 7.00799 47.1635 7.72975 46.5269C7.91093 46.1341 8.31948 43.6443 7.01744 28.2644L6.76253 25.248L5.73514 27.4322C4.192 30.4693 4.17052 32.5688 2.33262 32.5688C2.23422 32.5688 2.13585 32.5576 2.03692 32.5347C0.998165 32.2921 0.502986 30.7853 0.775308 28.6956C1.04056 26.6607 3.78078 20.5725 5.50496 16.8296C5.71269 16.3787 5.90185 15.9243 6.07549 15.4591C6.38785 14.6223 7.02017 13.3298 7.43563 12.8875C8.25897 12.0106 9.3722 11.5278 10.57 11.5278H11.8388C9.70116 10.79 8.15872 8.75858 8.15872 6.36822C8.15872 3.1486 10.9526 0.571031 14.2378 0.944206C16.6983 1.22372 18.7045 3.2122 19.0087 5.67591C19.3401 8.35967 17.7128 10.7197 15.3715 11.5278H16.6406L16.6768 11.5279C18.1535 11.5334 19.5059 12.3586 20.2286 13.7464C20.7075 14.6659 21.0888 15.629 21.3698 16.6274C22.4306 20.3966 24.6757 27.1057 26.7989 28.5642C26.9592 28.6743 27.0925 28.7843 27.2094 28.8934C27.3128 28.8673 27.4221 28.8438 27.5462 28.8279C29.2349 28.6119 31.9465 26.0962 33.8233 24.0988C34.2618 23.6322 34.6385 23.1175 35.0294 22.6101C35.0958 22.5239 35.1668 22.4403 35.2425 22.3596C35.9036 21.6547 36.8413 21.2503 37.8147 21.2503H37.9364C36.6192 20.4711 35.7308 19.0373 35.7308 17.3962C35.7308 14.7589 38.0182 12.6468 40.7082 12.9492C42.665 13.1691 44.2931 14.7179 44.6025 16.6674C44.9101 18.6058 43.964 20.3576 42.4547 21.2503H42.5766C43.5563 21.2503 44.4983 21.6592 45.1599 22.3724C45.5759 22.8645 45.9328 23.3998 46.2266 23.9737C47.3777 26.2218 50.3383 32.1029 50.6122 33.6505C50.8643 35.0763 50.5739 36.0872 49.8532 36.2893Z" fill="black"/>
</svg>
