<svg width="120" height="120" viewBox="0 0 120 120" fill="none" xmlns="http://www.w3.org/2000/svg">
<path d="M100.816 79.3561C100.799 68.9215 96.7563 58.8928 89.5249 51.3454C82.2934 43.7981 72.4267 39.3097 61.9665 38.809V31.4037C63.5093 32.3813 65.2994 32.9015 67.1277 32.9037H68.4603C69.7363 32.9074 71.0004 32.6588 72.1794 32.1724C73.3584 31.686 74.4289 30.9715 75.3289 30.0701L80.8223 24.5946C81.1865 24.2316 81.391 23.7394 81.391 23.2262C81.391 22.7129 81.1865 22.2207 80.8223 21.8578L79.2139 20.2532C78.3139 19.3519 77.2434 18.6373 76.0644 18.151C74.8854 17.6646 73.6213 17.416 72.3452 17.4196H71.0127C69.7366 17.416 68.4725 17.6646 67.2935 18.151C66.1145 18.6373 65.0441 19.3519 64.144 20.2532L61.9665 22.4249V15.2906C64.1588 14.8413 66.1286 13.6528 67.5439 11.9252C68.9593 10.1976 69.7337 8.03665 69.7365 5.80654V1.93551C69.7365 1.42218 69.5318 0.929878 69.1675 0.566899C68.8032 0.20392 68.3092 0 67.794 0C65.8068 0.0057913 63.8693 0.619674 62.2437 1.75859C60.6181 2.89751 59.3828 4.50649 58.7051 6.36784C56.9389 4.76886 54.6404 3.87924 52.254 3.87103C51.7389 3.87103 51.2448 4.07495 50.8805 4.43793C50.5162 4.80091 50.3115 5.29321 50.3115 5.80654V9.67757C50.3144 11.9077 51.0887 14.0686 52.5041 15.7962C53.9194 17.5238 55.8892 18.7124 58.0815 19.1616V25.2139C56.4105 23.9323 54.3628 23.2338 52.254 23.2262H48.369C47.8539 23.2262 47.3598 23.4301 46.9955 23.7931C46.6312 24.1561 46.4266 24.6484 46.4266 25.1617C46.4296 27.7274 47.4539 30.1871 49.2747 32.0014C51.0954 33.8156 53.5641 34.8362 56.139 34.8393H58.0815V38.809C51.8354 39.0941 45.7389 40.8071 40.2635 43.8154C34.7881 46.8238 30.0807 51.0469 26.5053 56.158C22.93 61.2692 20.5826 67.1313 19.6447 73.291C18.7069 79.4507 19.2037 85.7428 21.0968 91.6805C22.9899 97.6183 26.2285 103.043 30.562 107.534C34.8955 112.025 40.2079 115.462 46.0881 117.581C51.9682 119.699 58.2586 120.441 64.4726 119.749C70.6866 119.057 76.6576 116.95 81.9237 113.591L81.9606 113.628L82.1121 113.477C87.8444 109.802 92.5601 104.752 95.8278 98.7915C99.0954 92.8305 100.811 86.1483 100.816 79.3561ZM66.8907 22.99C67.431 22.4495 68.0735 22.021 68.781 21.7293C69.4885 21.4376 70.247 21.2885 71.0127 21.2907H72.3452C73.1109 21.2885 73.8694 21.4376 74.5769 21.7293C75.2844 22.021 75.9269 22.4495 76.4672 22.99L76.7023 23.2262L72.5822 27.3333C72.0419 27.8739 71.3995 28.3024 70.6919 28.5941C69.9844 28.8858 69.2259 29.0349 68.4603 29.0327H67.1277C66.362 29.0349 65.6035 28.8858 64.896 28.5941C64.1885 28.3024 63.546 27.8739 63.0057 27.3333L62.7707 27.0972L66.8907 22.99ZM95.5211 69.4075L94.4197 68.3101C94.0555 67.9471 93.5615 67.7431 93.0464 67.743H89.9656L87.2189 65.0062V61.9365C87.2188 61.4232 87.0141 60.9309 86.6498 60.568L83.3339 57.2641V54.9957L85.5134 52.8241C90.2759 57.3621 93.7315 63.0883 95.5211 69.4075ZM61.9665 9.67757C61.968 8.47702 62.3421 7.30632 63.0377 6.32601C63.7332 5.3457 64.7161 4.60378 65.8515 4.202V5.80654C65.85 7.00709 65.4759 8.17779 64.7803 9.15811C64.0848 10.1384 63.1019 10.8803 61.9665 11.2821V9.67757ZM54.1965 9.67757V8.07303C55.3319 8.47481 56.3148 9.21673 57.0103 10.197C57.7059 11.1773 58.08 12.3481 58.0815 13.5486V15.1531C56.9461 14.7514 55.9632 14.0094 55.2677 13.0291C54.5722 12.0488 54.198 10.8781 54.1965 9.67757ZM56.139 30.9682C54.9341 30.9668 53.7592 30.5939 52.7754 29.9009C51.7915 29.2079 51.0469 28.2285 50.6437 27.0972H52.254C53.4589 27.0987 54.6338 27.4715 55.6177 28.1645C56.6015 28.8576 57.3461 29.8369 57.7493 30.9682H56.139ZM54.1965 43.0865V45.651L51.4498 48.3879H48.369C47.8539 48.388 47.3599 48.592 46.9957 48.955L43.1107 52.826C42.7464 53.1889 42.5417 53.6811 42.5416 54.1944V57.2641L39.7949 60.0009H37.5183L32.4678 54.9686C38.1155 48.6256 45.7935 44.427 54.1965 43.0865ZM60.024 116.131C52.8093 116.135 45.7537 114.018 39.7405 110.046L41.4033 108.389H44.4841C44.9992 108.389 45.4932 108.185 45.8574 107.822L49.1732 104.518H51.4498L54.7657 107.822C55.1299 108.185 55.6239 108.389 56.139 108.389H59.2198L62.5357 111.693C62.8999 112.056 63.3939 112.26 63.909 112.26H69.7365C70.2516 112.26 70.7456 112.056 71.1098 111.693L74.4257 108.389H76.7023L79.0993 110.777C73.3554 114.274 66.7554 116.127 60.024 116.131ZM82.3627 108.559L78.8662 105.075C78.5038 104.719 78.0155 104.519 77.5065 104.518H73.6215C73.1063 104.518 72.6123 104.722 72.2481 105.085L68.9323 108.389H64.7132L61.3974 105.085C61.0331 104.722 60.5391 104.518 60.024 104.518H56.9432L53.6274 101.214C53.2632 100.851 52.7692 100.647 52.254 100.647H48.369C47.8539 100.647 47.3599 100.851 46.9957 101.214L43.6799 104.518H40.5991C40.0839 104.518 39.5899 104.722 39.2257 105.085L36.5703 107.731C29.3428 101.824 24.6439 93.3958 23.4286 84.1605C22.2134 74.9251 24.5731 65.5753 30.028 58.0112L35.3407 63.3049C35.7049 63.6679 36.1989 63.8719 36.7141 63.872H40.5991C41.1142 63.8719 41.6082 63.6679 41.9724 63.3049L45.8574 59.4338C46.2217 59.0709 46.4264 58.5787 46.4266 58.0654V54.9957L49.1732 52.2589H52.254C52.7692 52.2588 53.2632 52.0548 53.6274 51.6918L57.5124 47.8208C57.8767 47.4579 58.0814 46.9656 58.0815 46.4523V42.68C58.7284 42.6452 59.3674 42.5813 60.024 42.5813C68.1874 42.5823 76.1171 45.2974 82.5569 50.2963L80.0181 52.826C79.6538 53.1889 79.4491 53.6811 79.4489 54.1944V58.0654C79.4491 58.5787 79.6538 59.0709 80.0181 59.4338L83.3339 62.7378V65.8075C83.334 66.3208 83.5388 66.813 83.9031 67.1759L87.7881 71.0469C88.1523 71.4099 88.6463 71.6139 89.1614 71.614H92.2422L96.7663 76.1218C96.8615 77.1902 96.9314 78.2645 96.9314 79.3561C96.9261 85.0133 95.6084 90.5927 93.0812 95.6585C90.5539 100.724 86.8856 105.14 82.3627 108.559Z" fill="white"/>
<path d="M33.6333 83.2273L40.5991 76.2866V81.2918H44.4841V71.6142C44.4841 71.1009 44.2795 70.6086 43.9152 70.2456C43.5509 69.8826 43.0568 69.6787 42.5416 69.6787H32.8292V73.5497H37.8524L29.5133 81.8589C29.1492 82.2219 28.9446 82.7141 28.9446 83.2273C28.9446 83.7405 29.1492 84.2328 29.5133 84.5957L39.2258 94.2733C39.59 94.6363 40.084 94.8403 40.5991 94.8404H60.0241V90.9694H41.4033L33.6333 83.2273Z" fill="white"/>
<path d="M78.8798 70.2461L76.1331 72.9829L86.4147 83.2276L78.6448 90.9696H70.5407L73.0523 88.467L70.3056 85.7302L64.4782 91.5368C64.114 91.8997 63.9094 92.3919 63.9094 92.9052C63.9094 93.4184 64.114 93.9106 64.4782 94.2736L70.3056 100.08L73.0523 97.3433L70.5407 94.8407H79.449C79.9641 94.8406 80.4581 94.6366 80.8223 94.2736L90.5348 84.596C90.8989 84.233 91.1035 83.7408 91.1035 83.2276C91.1035 82.7144 90.8989 82.2221 90.5348 81.8592L78.8798 70.2461Z" fill="white"/>
<path d="M58.8857 58.0654H61.1623L68.9323 65.8074H63.909V69.6785H73.6215C74.1367 69.6785 74.6307 69.4745 74.995 69.1116C75.3593 68.7486 75.564 68.2563 75.564 67.7429V58.0654H71.679V63.0706L63.3399 54.7614C62.9757 54.3984 62.4817 54.1944 61.9665 54.1943H58.0815C57.5664 54.1944 57.0724 54.3984 56.7082 54.7614L45.0532 66.3745L47.7999 69.1113L58.8857 58.0654Z" fill="white"/>
<path d="M65.8515 79.3563C65.8515 78.2079 65.5097 77.0853 64.8694 76.1304C64.2291 75.1755 63.3189 74.4313 62.2541 73.9918C61.1893 73.5523 60.0176 73.4373 58.8871 73.6614C57.7567 73.8854 56.7184 74.4384 55.9034 75.2505C55.0884 76.0626 54.5334 77.0972 54.3085 78.2236C54.0837 79.3499 54.1991 80.5174 54.6401 81.5784C55.0812 82.6394 55.8281 83.5463 56.7864 84.1843C57.7448 84.8223 58.8714 85.1629 60.024 85.1629C61.5696 85.1629 63.0518 84.5511 64.1447 83.4622C65.2375 82.3733 65.8515 80.8963 65.8515 79.3563ZM60.024 81.2919C59.6398 81.2919 59.2643 81.1784 58.9448 80.9657C58.6254 80.753 58.3764 80.4507 58.2294 80.097C58.0824 79.7434 58.0439 79.3542 58.1188 78.9787C58.1938 78.6033 58.3788 78.2584 58.6505 77.9877C58.9221 77.717 59.2682 77.5327 59.6451 77.458C60.0219 77.3833 60.4124 77.4217 60.7674 77.5682C61.1223 77.7147 61.4257 77.9627 61.6391 78.281C61.8526 78.5993 61.9665 78.9735 61.9665 79.3563C61.9665 79.8697 61.7619 80.362 61.3976 80.725C61.0333 81.0879 60.5392 81.2919 60.024 81.2919Z" fill="white"/>
</svg>
