<svg width="80" height="80" viewBox="0 0 80 80" fill="none" xmlns="http://www.w3.org/2000/svg">
<path d="M79.9216 39.9606C79.9216 36.0457 75.3667 32.9269 68.8917 32.2089C70.8085 30.7696 72.4881 29.0932 73.6058 27.4136C75.4446 24.6975 75.763 22.0595 74.5642 19.9802C73.3654 17.901 70.9677 16.9426 67.6116 17.1018C65.5324 17.261 63.2972 17.8198 61.0587 18.7814C62.0171 16.543 62.6571 14.3045 62.7383 12.2285C62.8976 8.95042 61.9391 6.47477 59.8599 5.27594C57.7807 4.07712 55.1458 4.47673 52.4265 6.23436C50.7469 7.35198 49.0705 9.03162 47.6313 10.9485C46.9944 4.55473 43.8756 0 39.9606 0C36.0457 0 32.9269 4.55489 32.2089 11.03C30.7696 9.11314 29.0932 7.4335 27.4136 6.31588C24.6975 4.47705 22.0595 4.15864 19.9802 5.35746C17.901 6.55629 16.9426 9.03513 17.1018 12.31C17.261 14.3892 17.8198 16.6245 18.7814 18.8629C16.543 17.9045 14.3045 17.2645 12.2285 17.1833C8.95042 17.0241 6.47477 17.9825 5.27594 20.0617C4.07712 22.141 4.47673 24.7758 6.23436 27.4951C7.35198 29.1747 9.03162 30.8512 10.9485 32.2904C4.55473 32.9273 0 36.0461 0 39.961C0 43.876 4.55489 46.9948 11.03 47.7128C9.11314 49.152 7.4335 50.8284 6.31588 52.5081C4.47705 55.2241 4.15864 57.8622 5.35746 59.9414C6.47509 61.7803 8.63552 62.8199 11.5108 62.8199H12.31C14.3892 62.6606 16.6245 62.1018 18.8629 61.1402C17.9045 63.3787 17.2645 65.6171 17.1833 67.6932C17.0241 70.9712 17.9825 73.4469 20.0617 74.6457C20.861 75.1265 21.7414 75.3637 22.6998 75.3637C25.7375 75.3637 29.3339 72.9661 32.2904 68.97C33.0084 75.4449 36.1273 80 40.0421 80C43.957 80 47.0759 75.4451 47.7939 68.97C49.2331 70.8869 50.9096 72.5665 52.5892 73.6841C54.2688 74.8017 55.9453 75.3637 57.3845 75.3637C58.3429 75.3637 59.2233 75.1234 60.0225 74.6457C62.1018 73.4469 63.0602 70.968 62.901 67.6932C62.7418 65.6139 62.1829 63.3787 61.2214 61.1402C63.4598 62.0987 65.6982 62.7387 67.7743 62.8199H68.5735C71.452 62.8199 73.6092 61.7803 74.7268 59.9414C75.9256 57.8622 75.526 55.2273 73.7684 52.5081C72.6508 50.8284 70.9711 49.152 69.0543 47.7128C75.3668 46.9947 79.9216 43.8755 79.9216 39.9606ZM58.4243 39.9606C58.4243 40.841 58.3432 41.7183 58.184 42.5987C58.184 42.7579 58.1028 42.9983 58.1028 43.1575C57.9436 44.1971 57.622 45.2367 57.3036 46.1952C57.2224 46.3544 57.1443 46.5136 57.1443 46.754C56.5044 48.4336 55.5459 49.9509 54.5063 51.3089C54.4251 51.4681 54.2659 51.6273 54.1067 51.7896C53.3886 52.5889 52.6675 53.3881 51.8682 54.0281C51.709 54.1873 51.5498 54.2685 51.3875 54.4277C50.0294 55.5453 48.431 56.4257 46.8326 57.0658C46.6734 57.1469 46.5141 57.225 46.2738 57.225C45.3153 57.6246 44.2757 57.865 43.2361 58.0242C43.0769 58.0242 42.8365 58.1054 42.6773 58.1054C41.7969 58.2646 40.9196 58.3457 40.0392 58.3457C39.1588 58.3457 38.2816 58.2646 37.4012 58.1054C37.2419 58.1054 37.0016 58.0242 36.8423 58.0242C35.8027 57.865 34.7631 57.5434 33.8047 57.225C33.6455 57.1438 33.4862 57.0658 33.2459 57.0658C31.5662 56.4258 30.049 55.4673 28.691 54.4277C28.5317 54.3465 28.3725 54.1873 28.2102 54.1093C27.411 53.3912 26.6118 52.67 25.9717 51.8708C25.8125 51.7116 25.7314 51.5524 25.5721 51.39C24.4545 50.032 23.5741 48.4336 22.9341 46.8352C22.8529 46.6759 22.7749 46.4355 22.7749 46.2763C22.3753 45.3179 22.1349 44.2783 21.9756 43.2387C21.9756 43.0795 21.8945 42.8391 21.8945 42.6798C21.7353 41.7994 21.6541 40.9222 21.6541 40.0418C21.6541 39.1614 21.7353 38.2842 21.8945 37.4037C21.8945 37.2445 21.9756 37.0041 21.9756 36.8449C22.1349 35.8053 22.4564 34.7657 22.7749 33.8073C22.856 33.648 22.9341 33.4076 22.9341 33.2484C23.5741 31.5688 24.5325 30.0516 25.5721 28.6935C25.6533 28.5343 25.8125 28.3751 25.8906 28.2128C26.6086 27.4135 27.3298 26.6143 28.129 25.9743C28.2882 25.8151 28.4475 25.7339 28.6098 25.5747C29.9678 24.4571 31.5663 23.5767 33.1647 22.9367C33.3239 22.8555 33.4831 22.7774 33.7235 22.7774C34.6819 22.3778 35.7215 22.1374 36.7612 21.9782C36.9204 21.9782 37.1608 21.8971 37.32 21.8971C38.2004 21.7378 39.0776 21.6567 39.958 21.6567C40.8385 21.6567 41.7157 21.7378 42.5961 21.8971C42.7553 21.8971 42.9957 21.9782 43.1549 21.9782C44.1945 22.1374 45.2342 22.459 46.1926 22.7774C46.3518 22.8586 46.511 22.9367 46.7514 22.9367C48.431 23.5767 49.9483 24.5351 51.3063 25.5747C51.4655 25.7339 51.6247 25.8151 51.7871 25.9743C52.5863 26.6924 53.3855 27.4135 54.0255 28.2128C54.1847 28.372 54.2659 28.5312 54.344 28.6935C55.4616 30.0516 56.342 31.65 56.982 33.2484C57.0632 33.4076 57.1412 33.5669 57.1412 33.8073C57.4597 34.7657 57.7812 35.8053 57.9404 36.8449C57.9404 37.0041 58.0216 37.2445 58.0216 37.4037C58.3432 38.203 58.4243 39.0803 58.4243 39.9606ZM67.8527 20.7794C69.6103 20.6983 70.9683 21.0198 71.368 21.8191C71.7676 22.5371 71.4491 23.8983 70.4875 25.4155C69.2075 27.2544 67.0503 29.1712 64.5746 30.6916C63.2946 31.4097 62.0178 31.9717 60.7377 32.4493C59.8573 30.0516 58.4993 27.8132 56.9009 25.8151C57.8593 24.9347 58.9801 24.1355 60.3381 23.3363C62.8981 21.8191 65.6174 20.9386 67.8527 20.7794ZM54.5066 9.43138C55.5462 8.71334 56.5046 8.39176 57.3038 8.39176C57.6223 8.39176 57.8627 8.47293 58.1031 8.55098C58.8211 8.95059 59.2207 10.3086 59.1427 12.0663C58.9835 14.3047 58.1031 17.0208 56.6638 19.5776C55.8646 20.9356 55.0654 22.0564 54.185 23.0149C52.2681 21.4164 50.0297 20.0584 47.5509 19.178C47.9505 17.898 48.5905 16.6211 49.3085 15.3411C50.7508 12.7874 52.6677 10.6302 54.5066 9.43138ZM39.9617 3.67767C41.7193 3.67767 44.1981 7.67375 44.1981 13.986C44.1981 15.5032 44.0389 16.9424 43.7985 18.1412C42.5185 17.9008 41.2417 17.8228 39.9617 17.8228C38.6816 17.8228 37.4048 17.982 36.1248 18.1412C35.8844 16.8612 35.7252 15.5032 35.7252 13.986C35.7252 7.67343 38.204 3.67767 39.9617 3.67767ZM21.8203 8.55105C22.0607 8.39183 22.301 8.39183 22.6195 8.39183C23.3375 8.39183 24.3771 8.79144 25.4167 9.43145C27.2556 10.7115 29.1724 12.8687 30.6928 15.3444C31.4109 16.6244 31.9729 17.9012 32.4505 19.1812C30.0528 20.0617 27.8144 21.4197 25.8163 23.0181C24.9359 22.0597 24.1367 20.9389 23.3375 19.5808C21.8983 17.024 20.9398 14.3047 20.8586 12.0695C20.6994 10.3087 21.0991 8.95066 21.8203 8.55105ZM9.43242 25.4161C8.474 23.8989 8.1524 22.6188 8.55201 21.8196C8.95161 21.1796 9.99123 20.78 11.5085 20.78H12.0673C14.3057 20.9392 17.0218 21.8196 19.5786 23.2589C20.9367 24.0581 22.0575 24.8573 23.0159 25.7377C21.4175 27.6545 20.0594 29.893 19.179 32.3718C17.9802 31.9722 16.7002 31.4134 15.3422 30.6142C12.7884 29.1719 10.6312 27.2549 9.43242 25.4161ZM3.67871 39.961C3.67871 38.2034 7.67479 35.7245 13.987 35.7245C15.5042 35.7245 16.9435 35.8838 18.1423 36.1241C17.9019 37.4042 17.8238 38.681 17.8238 39.961C17.8238 41.241 17.9831 42.5179 18.1423 43.7979C16.8623 44.0383 15.5042 44.1975 13.987 44.1975C7.67447 44.1975 3.67871 41.7187 3.67871 39.961ZM12.0705 59.1422C10.3128 59.2234 8.95481 58.9018 8.5552 58.1026C8.1556 57.3845 8.47404 56.0233 9.43562 54.5061C10.7156 52.6673 12.8729 50.7504 15.3485 49.23C16.7066 48.4308 17.9866 47.872 19.1854 47.4724C20.0658 49.87 21.4239 52.1085 23.0223 54.1065C22.0639 54.9869 20.943 55.7861 19.585 56.5853C17.025 58.1026 14.3057 58.983 12.0705 59.1422ZM21.8201 71.371C21.1021 70.9714 20.7025 69.6134 20.7805 67.8557C20.9397 65.6173 21.8201 62.9012 23.2593 60.3444C24.0585 58.9863 24.8578 57.8655 25.7382 56.9071C27.655 58.5055 29.8935 59.8636 32.3723 60.744C31.9727 62.024 31.3327 63.3008 30.6147 64.5809C27.4928 70.013 23.3374 72.2483 21.8201 71.371ZM39.9615 76.2444C38.2039 76.2444 35.725 72.2483 35.725 65.9361C35.725 64.4189 35.8842 62.9796 36.1246 61.7808C37.4046 62.0212 38.6815 62.0992 39.9615 62.0992C41.2415 62.0992 42.5184 61.94 43.7984 61.7808C44.0388 63.0608 44.198 64.4189 44.198 65.9361C44.198 72.2486 41.7191 76.2444 39.9615 76.2444ZM58.1029 71.371C57.3848 71.7706 56.0237 71.4522 54.5064 70.4906C52.6676 69.2106 50.7508 67.0533 49.2303 64.5777C48.5123 63.2976 47.9503 62.0208 47.4727 60.7408C49.8703 59.8604 52.1088 58.5023 54.1068 56.9039C54.9872 57.8623 55.7864 58.9832 56.5857 60.3412C58.0249 62.898 58.9833 65.6173 59.0645 67.8525C59.2237 69.6133 58.824 70.9714 58.1029 71.371ZM70.4907 54.5059C71.4492 56.0232 71.7708 57.3032 71.3712 58.1024C70.9715 58.8205 69.6135 59.22 67.8559 59.142C65.6174 58.9828 62.9014 58.1024 60.3445 56.6632C58.9865 55.864 57.8657 55.0648 56.9073 54.1843C58.5057 52.2675 59.8637 50.0291 60.7441 47.5502C62.0242 47.9498 63.301 48.5898 64.581 49.3078C67.1347 50.7502 69.2919 52.6671 70.4907 54.5059ZM65.9358 44.1977C64.4186 44.1977 62.9794 44.0384 61.7806 43.7981C62.021 42.518 62.099 41.2412 62.099 39.9612C62.099 38.6812 61.9398 37.4043 61.7806 36.1243C63.0606 35.8839 64.4186 35.7247 65.9358 35.7247C72.2484 35.7247 76.2441 38.2035 76.2441 39.9612C76.2441 41.7188 72.2481 44.1977 65.9358 44.1977ZM51.2319 43.7169H47.395V36.2835H51.2319C52.2715 36.2835 53.0707 35.4843 53.0707 34.4447C53.0707 33.4051 52.2715 32.6059 51.2319 32.6059H47.395V28.769C47.395 27.7294 46.5958 26.9302 45.5562 26.9302C44.5165 26.9302 43.7173 27.7294 43.7173 28.769V32.6059H36.284V28.769C36.284 27.7294 35.4848 26.9302 34.4452 26.9302C33.4055 26.9302 32.6063 27.7294 32.6063 28.769V32.6059H28.7694C27.7298 32.6059 26.9306 33.4051 26.9306 34.4447C26.9306 35.4843 27.7298 36.2835 28.7694 36.2835H32.6063V43.7169H28.7694C27.7298 43.7169 26.9306 44.5161 26.9306 45.5557C26.9306 46.5953 27.7298 47.3946 28.7694 47.3946H32.6063V51.2314C32.6063 52.2711 33.4055 53.0703 34.4452 53.0703C35.4848 53.0703 36.284 52.2711 36.284 51.2314V47.3946H43.7173V51.2314C43.7173 52.2711 44.5165 53.0703 45.5562 53.0703C46.5958 53.0703 47.395 52.2711 47.395 51.2314V47.3946H51.2319C52.2715 47.3946 53.0707 46.5953 53.0707 45.5557C53.0676 44.5161 52.1903 43.7169 51.2319 43.7169ZM36.2058 43.7169V36.2835H43.6392V43.7169H36.2058Z" fill="#47382A"/>
</svg>
