<svg width="50" height="50" viewBox="0 0 50 50" fill="none" xmlns="http://www.w3.org/2000/svg">
<path d="M24.261 6.82692C23.4599 8.03308 16.4143 18.7327 16.4143 23.1257C16.4143 27.8613 20.2642 31.7112 24.9999 31.7112C29.7355 31.7112 33.5854 27.8613 33.5854 23.1257C33.5854 18.7327 26.5443 8.03308 25.7387 6.82692C25.3871 6.29728 24.6082 6.29728 24.2566 6.82692H24.261ZM24.9999 29.9309C21.2478 29.9309 18.1946 26.8777 18.1946 23.1257C18.1946 20.197 22.5831 12.7286 24.9999 8.94994C27.4166 12.7286 31.8051 20.1926 31.8051 23.1257C31.8051 26.8777 28.7519 29.9309 24.9999 29.9309Z" fill="black"/>
<path d="M23.5845 26.9633C22.0891 26.9766 21.3102 24.2616 21.3013 24.226C21.1767 23.7498 20.6871 23.4694 20.2153 23.594C19.7391 23.7186 19.4587 24.2082 19.5833 24.68C19.6278 24.8447 20.6915 28.7391 23.5623 28.7391C24.853 28.7391 24.7284 26.8965 23.589 26.9588L23.5845 26.9633Z" fill="black"/>
<path d="M6.24889 46.4723C9.35998 46.4723 9.45344 43.8018 11.6121 43.8018C13.7707 43.8018 13.9398 46.4723 16.9664 46.4723C19.9929 46.4723 20.251 43.8018 22.3251 43.8018C24.3991 43.8018 24.6573 46.4723 27.6838 46.4723C30.7103 46.4723 30.9818 43.8018 33.0381 43.8018C35.0944 43.8018 35.3703 46.4723 38.3968 46.4723C41.4234 46.4723 41.6815 43.8018 43.7556 43.8018C45.8296 43.8018 46.0922 46.4723 49.1098 46.4723C49.5994 46.4723 50 46.0717 50 45.5821V22.5093C50 22.0197 49.5994 21.6191 49.1098 21.6191H37.7203C36.0513 21.6191 34.6315 22.8431 34.4223 24.4676C33.8926 28.4689 30.2208 32.6037 25 32.6037C19.7792 32.6037 16.1118 28.4644 15.5777 24.4676C15.3685 22.8431 13.9487 21.6191 12.2797 21.6191H0.890155C0.40057 21.6191 0 22.0197 0 22.5093V42.9116C0 43.4012 0.40057 43.8018 0.890155 43.8018C2.95977 43.8018 3.22236 46.4723 6.24889 46.4723ZM1.78031 23.3995H12.2797C13.0586 23.3995 13.7173 23.9558 13.8152 24.6991C13.9443 25.6827 14.238 26.6708 14.6653 27.6188H1.78031V23.3995ZM15.6712 29.3991C20.2332 36.0441 29.7668 36.0441 34.3288 29.3991H48.2197V44.5228C46.9512 43.9709 46.3237 42.0215 43.7556 42.0215C40.7246 42.0215 40.4709 44.692 38.3968 44.692C36.3228 44.692 36.0646 42.0215 33.0381 42.0215C30.0116 42.0215 29.749 44.692 27.6838 44.692C25.6187 44.692 25.4228 42.0215 22.3251 42.0215C19.2273 42.0215 19.0404 44.692 16.9664 44.692C14.8923 44.692 14.6297 42.0215 11.6121 42.0215C8.59444 42.0215 8.3452 44.692 6.24889 44.692C4.34396 44.692 4.06801 42.5912 1.78031 42.1105V29.4035H15.6712V29.3991ZM37.7203 23.3995H48.2197V27.6188H35.3347C35.7664 26.6663 36.0557 25.6782 36.1892 24.6946C36.2872 23.9558 36.9459 23.395 37.7248 23.395L37.7203 23.3995Z" fill="black"/>
<path d="M7.86009 39.8794C9.74277 39.8794 11.2783 38.3483 11.2783 36.4612C11.2783 34.574 9.74722 33.043 7.86009 33.043C5.97296 33.043 4.44189 34.574 4.44189 36.4612C4.44189 38.3483 5.97741 39.8794 7.86009 39.8794ZM7.86009 34.8233C8.7636 34.8233 9.49797 35.5577 9.49797 36.4612C9.49797 37.3647 8.7636 38.099 7.86009 38.099C6.95658 38.099 6.2222 37.3647 6.2222 36.4612C6.2222 35.5577 6.95658 34.8233 7.86009 34.8233Z" fill="black"/>
<path d="M16.1072 39.3667C17.9854 39.3667 17.9854 36.5449 16.1072 36.5449C14.2289 36.5449 14.2289 39.3667 16.1072 39.3667Z" fill="black"/>
<path d="M27.3411 41.9708C28.8766 41.9708 30.1273 40.7201 30.1273 39.1846C30.1273 37.6491 28.8766 36.3984 27.3411 36.3984C25.8056 36.3984 24.5549 37.6491 24.5549 39.1846C24.5549 40.7201 25.8056 41.9708 27.3411 41.9708ZM27.3411 38.1832C27.893 38.1832 28.347 38.6327 28.347 39.1891C28.347 39.7454 27.8975 40.1949 27.3411 40.1949C26.7848 40.1949 26.3352 39.7454 26.3352 39.1891C26.3352 38.6327 26.7848 38.1832 27.3411 38.1832Z" fill="black"/>
<path d="M35.3124 36.3901C37.2085 36.3901 37.2085 33.5371 35.3124 33.5371C33.4164 33.5371 33.4209 36.3901 35.3124 36.3901Z" fill="black"/>
<path d="M43.2392 41.124C45.1308 41.124 46.6752 39.584 46.6752 37.688C46.6752 35.7919 45.1353 34.252 43.2392 34.252C41.3432 34.252 39.8032 35.7919 39.8032 37.688C39.8032 39.584 41.3432 41.124 43.2392 41.124ZM43.2392 36.0367C44.1516 36.0367 44.8949 36.78 44.8949 37.6924C44.8949 38.6048 44.1516 39.3481 43.2392 39.3481C42.3268 39.3481 41.5835 38.6048 41.5835 37.6924C41.5835 36.78 42.3268 36.0367 43.2392 36.0367Z" fill="black"/>
<path d="M9.6628 3.5293C9.17322 3.5293 8.77265 3.92987 8.77265 4.41945V9.08831H6.11108L9.6628 15.2393L13.2145 9.08831H10.553V4.41945C10.553 3.92987 10.1524 3.5293 9.6628 3.5293Z" fill="black"/>
<path d="M43.8844 9.08831H41.2229V4.41945C41.2229 3.92987 40.8223 3.5293 40.3327 3.5293C39.8431 3.5293 39.4426 3.92987 39.4426 4.41945V9.08831H36.781L40.3327 15.2393L43.8844 9.08831Z" fill="black"/>
</svg>
