<svg width="80" height="80" viewBox="0 0 80 80" fill="none" xmlns="http://www.w3.org/2000/svg">
<path d="M23.051 38.83C23.4757 38.83 23.8981 38.8496 24.3139 38.8888C24.9943 37.4879 26.2907 34.9163 28.1852 31.5953C27.8049 31.6124 27.418 31.5953 27.0289 31.5487C22.9576 31.0638 18.2947 29.5625 14.8526 25.7075C12.2399 22.7808 10.3744 18.5585 10.072 12.4944C9.99637 10.9735 10.2699 9.53099 10.8569 8.25499C11.4461 6.97164 12.3378 5.87198 13.4918 5.03927C14.6481 4.20657 15.92 3.74613 17.223 3.66531C18.5193 3.58449 19.829 3.88328 21.0653 4.57149C23.6958 6.03117 26.6042 8.10559 29.2391 11.025C31.3471 13.3614 33.2749 16.2318 34.7425 19.7561C34.8648 20.0476 34.9693 20.3439 35.0605 20.6403C37.8355 16.6017 41.1063 12.2569 44.8597 7.9366C44.8975 7.88762 44.9376 7.84109 44.9798 7.797C47.1344 5.32337 49.447 2.85954 51.9151 0.466735C52.62 -0.216574 53.694 -0.140651 54.3166 0.635725C54.9369 1.4121 54.868 2.59503 54.1631 3.28079C51.964 5.41399 49.8894 7.60352 47.946 9.80529C48.1617 11.1695 48.7643 14.0766 50.3208 17.5764C50.8256 17.3584 51.3414 17.1674 51.8751 17.0058C51.944 16.9788 52.0152 16.9592 52.0863 16.9421C54.4055 16.2759 56.7514 16.2392 59.0016 16.7412H59.0039C61.1007 17.209 63.113 18.1422 64.943 19.472C68.6853 22.1881 71.6649 26.5598 73.0035 31.9528C73.0257 32.0263 73.0457 32.1022 73.059 32.1806C74.3487 37.5859 73.755 43.0131 71.7471 47.4265C69.6926 51.9427 66.166 55.4033 61.6544 56.7357C57.1427 58.0655 52.5199 57.0124 48.6909 54.2351C44.9487 51.519 41.9691 47.1448 40.6305 41.7543C40.6083 41.6808 40.5883 41.6049 40.5749 41.5265C39.2852 36.1213 39.8789 30.694 41.8868 26.2806C42.1181 25.7688 42.3716 25.2716 42.6406 24.7891C42.6673 24.7328 42.6984 24.6789 42.7318 24.625C43.9347 22.5212 45.4823 20.7113 47.3212 19.3275C46.2561 16.947 45.5779 14.7795 45.151 13.0749C35.8854 24.3042 30.0063 35.2249 27.7872 39.6627C30.5466 40.6571 33.0125 42.4988 34.9849 44.9431L34.9871 44.9406C37.9844 48.6584 39.8389 53.7771 39.8389 59.415C39.8389 65.0505 37.9844 70.1667 34.9871 73.8821L34.9849 73.887L34.9871 73.8919C31.943 77.666 27.7227 80 23.0487 80C18.3792 80 14.1611 77.6635 11.1126 73.887L11.1104 73.8919C8.113 70.1741 6.25854 65.0554 6.25854 59.415C6.25854 53.7771 8.113 48.656 11.1104 44.9406C11.1393 44.9039 11.1704 44.8671 11.2015 44.8353C12.6246 43.0964 14.299 41.6686 16.1512 40.6448C16.2001 40.6154 16.249 40.5885 16.3002 40.564C18.3659 39.4496 20.6473 38.8325 23.0487 38.8325L23.051 38.83ZM26.831 13.6602C24.4918 11.0715 21.8947 9.2175 19.5355 7.90966C18.8417 7.52515 18.1168 7.35616 17.4075 7.40024C16.7071 7.44433 16.0045 7.70149 15.3529 8.17417C14.6992 8.6444 14.2034 9.24934 13.8876 9.94C13.5674 10.6356 13.4184 11.4364 13.4607 12.2912C13.712 17.329 15.1973 20.7652 17.2697 23.087C20.0425 26.1949 23.947 27.4195 27.3847 27.8309C28.1674 27.924 28.9078 27.8016 29.5571 27.4832C30.2108 27.1623 30.789 26.6407 31.2448 25.9402C31.7029 25.2398 31.9697 24.4732 32.0386 23.6943C32.1076 22.9082 31.9808 22.0926 31.6539 21.3089C30.3709 18.2303 28.6788 15.7151 26.8288 13.6627L26.831 13.6602ZM46.4852 25.2471C47.0811 25.6218 47.7148 25.9059 48.3685 26.0823C49.4447 26.3737 50.5876 26.3786 51.715 26.0455C53.1981 25.6071 54.4411 24.6422 55.3416 23.3564C55.9865 22.4355 56.4601 21.3481 56.7247 20.1725C55.4461 20.0794 54.1476 20.2092 52.8624 20.5888L52.8579 20.5913C50.2786 21.353 48.1039 23.0159 46.4852 25.2496V25.2471ZM60.0512 20.9268C59.6776 22.6633 58.9838 24.2723 58.0277 25.639C56.6825 27.5591 54.8213 29.0041 52.5933 29.6629C50.9056 30.1625 49.1912 30.1503 47.5703 29.7119C46.5697 29.4425 45.6068 29.009 44.7085 28.4334C43.221 31.9969 42.8318 36.327 43.888 40.6669V40.6693C44.9909 45.2051 47.4591 48.8641 50.5543 51.11C53.5917 53.3142 57.2383 54.1567 60.776 53.1134C64.3115 52.0701 67.0865 49.3344 68.7164 45.7537C70.3774 42.0996 70.8533 37.5712 69.7504 33.0329V33.0305C68.6475 28.4947 66.1793 24.8381 63.0863 22.5898C62.128 21.8942 61.1096 21.3358 60.0534 20.9268H60.0512ZM59.0928 48.3082C58.1856 48.5751 57.2539 47.9824 57.0115 46.9832C56.7692 45.9839 57.3073 44.9578 58.2145 44.6908C59.7376 44.2426 60.9384 43.0523 61.6455 41.4971C62.3859 39.8684 62.5972 37.8381 62.0991 35.7955C61.8567 34.7963 62.3948 33.7701 63.302 33.5031C64.2092 33.2362 65.1409 33.8289 65.3833 34.8281C66.0993 37.7744 65.7791 40.7477 64.6784 43.165C63.5444 45.6582 61.5921 47.5685 59.0928 48.3082ZM32.7657 47.8355C32.0364 48.6486 31.2115 49.3417 30.3131 49.883C28.8478 50.7696 27.1935 51.2692 25.4435 51.2692C23.1377 51.2692 21.0008 50.4046 19.2486 48.9303C18.0012 47.882 16.9539 46.5252 16.1846 44.9553C15.2907 45.6264 14.4657 46.4248 13.7253 47.331L13.6519 47.4289C11.1904 50.483 9.66505 54.72 9.66505 59.4126C9.66505 64.1076 11.1882 68.3421 13.6519 71.3986L13.6497 71.4011L13.6519 71.406C16.0645 74.3988 19.3887 76.2504 23.051 76.2504C26.7087 76.2504 30.033 74.3964 32.45 71.4011L32.4544 71.4035C34.9159 68.3495 36.4368 64.1125 36.4368 59.415C36.4368 54.9257 35.0427 50.8553 32.768 47.8379L32.7657 47.8355ZM19.2264 43.2752C19.7601 44.3357 20.4716 45.2517 21.3099 45.957C22.4795 46.9416 23.907 47.5196 25.4435 47.5196C26.6087 47.5196 27.7071 47.1889 28.6766 46.6036C29.2703 46.2436 29.8173 45.7929 30.3065 45.2614C28.2163 43.5642 25.7237 42.5796 23.051 42.5796C21.7213 42.5796 20.4383 42.8221 19.2264 43.2776V43.2752ZM23.051 67.6515C23.9915 67.6515 24.7542 68.4915 24.7542 69.5275C24.7542 70.5635 23.9915 71.4035 23.051 71.4035C20.2915 71.4035 17.8033 70.0296 16.0133 67.8106C15.9822 67.7739 15.9533 67.7347 15.9266 67.6931C14.2345 65.5427 13.1916 62.6185 13.1916 59.4126C13.1916 58.3766 13.9543 57.539 14.8927 57.539C15.8332 57.539 16.5959 58.379 16.5959 59.4126C16.5959 61.6903 17.3141 63.7426 18.4793 65.2366L18.5527 65.3199C19.7134 66.7624 21.3054 67.6515 23.0487 67.6515H23.051Z" fill="#47382A"/>
</svg>
