<svg width="103" height="120" viewBox="0 0 103 120" fill="none" xmlns="http://www.w3.org/2000/svg">
<path d="M99.5762 42.0749C97.2645 34.6188 95.538 27.2855 87.427 19.3334C85.1103 17.1069 82.5181 15.19 79.7144 13.6221C75.5335 10.7518 70.477 9.43453 65.4199 9.89656C60.3684 10.3635 55.6366 12.5801 52.046 16.1682C43.2119 0.553331 23.0302 5.19286 18.4946 7.36535C11.3821 11.0221 5.19491 16.2468 0.393582 22.6417C-0.122891 23.3298 -0.132726 24.2735 0.373907 24.9715C1.35273 26.3329 10.1869 37.9868 25.5239 37.9868C34.9138 37.9573 43.7823 33.6566 49.6162 26.2988V38.5323H44.3629C41.7904 38.6356 39.5819 40.3854 38.8883 42.8576C38.1898 45.3348 39.1638 47.9741 41.3035 49.4044L40.123 63.235H40.118C39.5475 69.9341 36.5962 76.2062 31.7955 80.9146C21.5596 90.9462 19.075 93.4282 18.3825 94.3476C12.1357 102.536 18.6137 115.276 28.9775 114.995H74.1853C84.6721 115.261 91.1644 102.266 84.5786 94.0771L70.973 80.629L70.9779 80.6339C66.3986 76.0973 63.5161 70.1304 62.8029 63.7306L61.2535 49.7075C61.5683 49.56 61.8634 49.3782 62.1438 49.1766C75.4888 60.5254 87.7307 61.0808 100.761 56.962V56.9571C101.607 56.6622 102.143 55.8267 102.064 54.9321C101.686 50.5725 100.85 46.2629 99.5762 42.0749ZM26.5968 34.0291C14.782 34.4714 7.02504 26.7844 4.47264 23.8009C8.74699 18.473 14.0839 14.0888 20.1434 10.9329C20.714 10.6969 34.3346 5.26093 44.0241 12.8398C45.3177 13.8573 46.4638 15.0467 47.4377 16.3738C34.7223 13.4935 21.3785 15.8184 10.3895 22.837C9.47461 23.4219 9.20407 24.6359 9.78448 25.5551C10.3698 26.4692 11.5848 26.7396 12.5046 26.1547C22.5487 19.1606 38.6771 17.4846 48.6965 20.7383H48.6916C44.0532 28.622 35.7357 33.6202 26.5914 34.0279L26.5968 34.0291ZM53.5462 37.4942C53.7085 37.8382 53.8856 38.1823 54.0627 38.5263H53.5462V37.4942ZM42.602 44.2425C42.5971 43.2644 43.3841 42.4681 44.3628 42.4632H56.3941C57.2844 43.805 58.2682 45.0829 59.3454 46.2872C59.1684 46.3462 58.9815 46.3806 58.7945 46.3806H44.3628C43.8316 46.3658 43.3348 46.1201 42.9955 45.7121C42.6561 45.2993 42.5135 44.7636 42.602 44.2425ZM63.9342 96.7694C63.9391 94.0564 62.3995 91.5693 59.9697 90.3601C57.535 89.151 54.6231 89.4263 52.4589 91.0679C50.2947 92.7095 49.2469 95.4374 49.7634 98.1063C50.275 100.775 52.2573 102.918 54.8789 103.645H41.3715C43.7669 102.849 45.2327 100.431 44.8343 97.939C44.431 95.4471 42.2766 93.6138 39.7482 93.6138C37.22 93.6138 35.0655 95.4471 34.6622 97.939C34.2638 100.431 35.7296 102.849 38.125 103.645H29.2368C27.3923 103.518 27.7513 100.913 27.8448 99.6691C28.6023 94.9703 33.7916 91.0089 40.7906 89.7801H49.6641C50.1756 89.7801 50.6675 89.5786 51.0314 89.2247L54.455 85.912L57.3865 83.076C57.6718 82.8155 58.0554 82.6926 58.4342 82.7467C58.7736 82.7811 59.0835 82.963 59.2753 83.2431C61.956 87.5487 64.5728 91.9771 67.042 96.4006C68.0406 98.1946 69.0095 99.9737 69.9539 101.738C70.1704 102.136 70.1605 102.623 69.9195 103.006C69.6883 103.405 69.2604 103.65 68.798 103.645H58.6654C61.7642 102.795 63.9244 99.9837 63.9342 96.7694ZM56.7725 99.9985C55.0067 99.974 53.5901 98.5338 53.5901 96.7694C53.5901 95.0098 55.0067 93.5697 56.7725 93.5451C58.5334 93.5697 59.95 95.0098 59.95 96.7694C59.95 98.5338 58.5334 99.974 56.7725 99.9985ZM38.5193 98.7698C38.534 98.1013 39.08 97.5705 39.7489 97.5705C40.4179 97.5705 40.9639 98.1014 40.9737 98.7698C40.9639 99.4382 40.4179 99.974 39.7489 99.974C39.08 99.974 38.534 99.4382 38.5193 98.7698ZM68.2136 83.4255L81.6908 96.7503H81.6859C83.5698 99.547 83.7665 103.15 82.2024 106.138C80.6333 109.126 77.5591 111.014 74.1848 111.063H28.977C25.5585 111.048 22.4302 109.126 20.8758 106.084C19.3214 103.037 19.592 99.3799 21.5841 96.6028C21.9432 96.19 23.9844 94.0765 34.5501 83.7259C40.0247 78.3539 43.389 71.2025 44.0384 63.5689L45.1697 50.3183H51.0968L51.1017 83.6869L48.8686 85.8446L40.6248 85.8495C30.1479 87.5403 22.253 94.4213 24.123 103.514C24.6788 105.888 26.7938 107.569 29.2385 107.579H68.8C70.6298 107.559 72.3219 106.596 73.2663 105.028C74.2107 103.455 74.2697 101.514 73.4286 99.8869C72.4793 98.1027 71.4955 96.2989 70.4823 94.4852C67.9787 90.0076 65.3324 85.5251 62.6172 81.1654C61.8155 79.9465 60.5367 79.1159 59.0954 78.8898C57.6493 78.6588 56.1786 79.0471 55.0373 79.9612V50.3144H57.364L58.8936 64.1602C59.7052 71.459 62.9959 78.2563 68.2097 83.4264L68.2136 83.4255ZM93.0287 54.8834C83.1715 56.2498 72.34 54.736 61.8484 43.1906C56.7672 37.0713 53.8602 29.448 53.575 21.5059C60.1515 21.6534 66.57 23.5702 72.1533 27.0551C78.6067 31.1591 83.6533 37.1357 86.6139 44.1836C87.032 45.1862 88.1879 45.6581 89.1914 45.2403C90.1948 44.8225 90.667 43.6675 90.244 42.6648C85.5712 30.5296 71.9075 18.6751 56.2506 17.7263C66.0045 9.87703 77.1357 14.9346 84.696 22.1695C89.6984 27.0795 93.1956 33.3119 94.7843 40.1385C96.3828 44.5276 97.4552 49.0888 97.9913 53.7338C96.3632 54.2302 94.7059 54.618 93.0287 54.8834Z" fill="white"/>
</svg>
