<svg width="31" height="30" viewBox="0 0 31 30" fill="none" xmlns="http://www.w3.org/2000/svg">
<path d="M15.5714 7.19727C14.0403 7.19732 12.5435 7.65142 11.2705 8.50213C9.99737 9.35283 9.00514 10.5619 8.41924 11.9766C7.83333 13.3912 7.68006 14.9478 7.97881 16.4495C8.27756 17.9512 9.01491 19.3306 10.0976 20.4133C11.1803 21.496 12.5598 22.2333 14.0615 22.532C15.5633 22.8307 17.1198 22.6773 18.5344 22.0914C19.949 21.5054 21.1581 20.5131 22.0088 19.24C22.8594 17.9669 23.3135 16.4701 23.3135 14.939C23.3095 12.8869 22.4925 10.92 21.0415 9.46904C19.5904 8.01803 17.6235 7.20115 15.5714 7.19727ZM15.5714 19.8988C14.5906 19.8988 13.6317 19.6079 12.8162 19.0629C12.0006 18.5179 11.365 17.7433 10.9897 16.8371C10.6143 15.9309 10.5161 14.9337 10.7075 13.9717C10.8989 13.0096 11.3712 12.1259 12.0648 11.4324C12.7584 10.7388 13.6421 10.2664 14.6041 10.075C15.5661 9.88367 16.5633 9.98186 17.4695 10.3572C18.3758 10.7325 19.1503 11.3682 19.6953 12.1837C20.2403 12.9993 20.5312 13.9581 20.5313 14.939C20.5255 16.2526 20.001 17.5108 19.0721 18.4397C18.1432 19.3686 16.8851 19.893 15.5714 19.8988Z" fill="white"/>
<path d="M23.6158 8.76988C24.5846 8.76988 25.3699 7.98455 25.3699 7.0158C25.3699 6.04705 24.5846 5.26172 23.6158 5.26172C22.6471 5.26172 21.8618 6.04705 21.8618 7.0158C21.8618 7.98455 22.6471 8.76988 23.6158 8.76988Z" fill="white"/>
<path d="M28.1518 2.47978C26.5795 0.846892 24.3416 0 21.8012 0H9.34171C4.07976 0 0.571594 3.50817 0.571594 8.77011V21.1693C0.571594 23.77 1.41849 26.0079 3.11197 27.6411C4.74515 29.2137 6.92193 30 9.40231 30H21.7409C24.3416 30 26.5189 29.1531 28.0915 27.6411C29.7247 26.0685 30.5713 23.8312 30.5713 21.2299V8.77011C30.5713 6.22974 29.7244 4.05236 28.1518 2.47978ZM27.91 21.2296C27.91 23.1046 27.2446 24.6166 26.1559 25.6449C25.0672 26.6733 23.5553 27.2175 21.7406 27.2175H9.40201C7.58762 27.2175 6.07534 26.673 4.98665 25.6449C3.89796 24.5563 3.35347 23.0443 3.35347 21.1693V8.77011C3.35347 6.95573 3.89796 5.44345 4.98665 4.35476C6.01474 3.32667 7.58732 2.78217 9.40201 2.78217H21.8618C23.6762 2.78217 25.1884 3.32667 26.2771 4.41536C27.3624 5.60224 27.9474 7.1623 27.9103 8.77011L27.91 21.2296Z" fill="white"/>
</svg>
