<svg width="110" height="110" viewBox="0 0 110 110" fill="none" xmlns="http://www.w3.org/2000/svg">
<path fill-rule="evenodd" clip-rule="evenodd" d="M82.4366 89.0022C83.1553 88.3862 84.2382 88.4706 84.8529 89.1904C85.4689 89.9091 85.3846 90.992 84.6647 91.6068L74.3872 100.434C72.9181 101.696 71.383 101.645 70.0092 100.789C69.8528 100.692 69.6988 100.582 69.5497 100.462L56.9622 100.604C56.9243 100.604 56.9341 101.075 56.8265 101.701C56.741 102.199 56.7043 102.74 56.7165 103.28C56.7287 103.839 56.7886 104.401 56.895 104.924C57.071 105.787 57.2531 106.493 57.3594 106.564H84.5596C84.8456 106.457 85.6034 105.059 86.201 103.955C86.2744 103.819 86.3416 103.695 86.5934 103.25L86.5909 103.247L95.3053 87.5123C95.4177 87.3094 95.5656 87.1395 95.7355 87.0039H95.7342L98.1664 85.063L90.7904 72.2883L90.6132 72.4399C90.4238 72.6232 90.1879 72.7638 89.9165 72.8457L84.6696 74.4162C84.3726 74.5042 84.1172 74.5996 83.9253 74.7291C83.7713 74.833 83.6271 74.9907 83.4841 75.2388L76.5933 87.2618H76.5908C76.4955 87.4268 76.3708 87.5796 76.2168 87.7103L70.8098 92.3548C69.9958 93.0539 70.0862 94.6672 70.591 96.0434C70.7621 96.5079 70.9711 96.9222 71.2046 97.2522C71.2803 97.3598 71.3586 97.4588 71.438 97.5456L71.4906 97.603C71.5981 97.7154 71.7081 97.8071 71.8193 97.8756C71.9171 97.9367 72.0332 97.933 72.1554 97.8279L82.433 89.001L82.4366 89.0022ZM22.4263 15.7324C21.7541 15.0651 21.7516 13.9798 22.4189 13.3088C23.0863 12.6378 24.1716 12.6341 24.8426 13.3014L32.6366 21.0784C33.3076 21.7458 33.31 22.8311 32.6439 23.5021C31.9766 24.1731 30.8913 24.1756 30.2203 23.5082L22.4263 15.7324ZM84.3555 13.3014C85.0265 12.6341 86.113 12.6378 86.7791 13.3088C87.4465 13.9798 87.444 15.0639 86.773 15.7324L78.9802 23.5082C78.3092 24.1756 77.2239 24.1731 76.5566 23.5021C75.8893 22.8311 75.8917 21.7458 76.5627 21.0784L84.3555 13.3014ZM52.8812 1.71967C52.8812 0.77 53.65 0 54.5997 0C55.5493 0 56.3181 0.77 56.3181 1.71967V12.7148C56.3181 13.6657 55.5481 14.4344 54.5997 14.4344C53.6512 14.4344 52.8812 13.6657 52.8812 12.7148V1.71967ZM71.4906 42.1838C72.2911 41.6802 73.3495 41.9186 73.8543 42.7203C74.3591 43.5221 74.1183 44.5781 73.3177 45.0841C72.1652 45.8064 71.0261 46.4457 69.865 47.0971C67.7897 48.2607 65.6398 49.467 63.7699 50.9312C65.2109 51.0913 66.5455 51.1256 67.775 51.0437C70.8758 50.8359 73.2982 49.8801 75.0753 48.2741C76.8646 46.6583 78.0587 44.3386 78.6869 41.4223C79.034 39.8066 79.2076 38.016 79.2125 36.0617C74.8687 38.093 71.4136 39.226 68.7015 40.1158C63.5914 41.7914 61.6225 42.4392 61.6041 48.2607C63.6697 46.6351 65.9674 45.3469 68.1845 44.1027C69.3566 43.4451 70.5054 42.7998 71.4893 42.1838H71.4906ZM60.7229 53.9416L56.3193 59.2362V72.2211C60.1289 72.4802 63.7576 73.4299 67.0796 74.9479C70.4578 76.4915 73.5109 78.6231 76.1056 81.2106L80.5068 73.5338C80.9345 72.787 81.4357 72.27 82.0089 71.8826C82.5442 71.5208 83.0966 71.3044 83.6931 71.126L88.5929 69.6581L89.0476 69.267L87.1776 66.0293C86.7987 65.3754 86.8879 64.5236 87.4465 63.9613L107.071 44.2921C107.739 43.6199 108.824 43.6174 109.495 44.2848C110.166 44.9521 110.169 46.0374 109.501 46.7084L95.2881 60.9534L109.655 85.8367C110.123 86.6458 109.857 87.6773 109.062 88.1601L104.075 91.4931C104.026 91.5286 103.974 91.5628 103.921 91.5933C103.1 92.0688 102.052 91.7889 101.578 90.9688L99.902 88.066L98.1334 89.4764L89.5853 104.911H89.5829L89.2211 105.577C88.2238 107.417 86.9576 109.757 84.8578 109.977C84.7686 109.99 84.6757 110 84.5828 110H57.3961C57.3276 110 57.2604 109.995 57.1944 109.987C56.3132 109.936 55.5823 109.521 55.0005 108.862C54.4188 109.521 53.6879 109.936 52.8067 109.987C52.7395 109.995 52.6722 110 52.605 110H25.4195C25.3254 110 25.2337 109.991 25.1432 109.977C23.0435 109.757 21.7773 107.417 20.78 105.577C20.5905 105.228 20.4402 104.946 20.4231 104.917L20.4182 104.909H20.4158L11.8676 89.4764L10.0979 88.066L8.42223 90.9688C7.94679 91.7889 6.89814 92.0676 6.07926 91.5933C6.02549 91.5616 5.97415 91.5286 5.92527 91.4931L0.936217 88.1601C0.141783 87.6773 -0.124659 86.6458 0.343447 85.8367L14.7117 60.9534L0.498667 46.7084C-0.168658 46.0374 -0.166214 44.9521 0.506 44.2848C1.17699 43.6174 2.26231 43.6211 2.92964 44.2921L22.5546 63.9613C23.1132 64.5223 23.2024 65.3742 22.8235 66.0293L20.9535 69.267L21.4094 69.6581L26.3092 71.126C26.9069 71.3057 27.4593 71.5208 27.9934 71.8826C28.5666 72.27 29.0678 72.787 29.4955 73.5338L33.3259 80.2169C35.8351 77.9374 38.7244 76.0601 41.8899 74.6924C45.2913 73.2221 48.9958 72.3409 52.8763 72.1771V59.2362L48.4715 53.9416C45.7936 54.4476 43.3688 54.615 41.192 54.4683C37.2944 54.2068 34.1827 52.9442 31.8226 50.8139C29.4747 48.6921 27.9299 45.7563 27.1501 42.1349C26.5879 39.5218 26.4241 36.542 26.6441 33.2481C26.7064 32.3021 27.5241 31.5859 28.4701 31.6494C28.7365 31.6666 28.9834 31.7448 29.201 31.867C34.4198 34.5143 38.48 35.8453 41.5526 36.8524C49.4468 39.4423 51.7287 40.1928 50.8964 51.5032L54.5948 55.9497L58.2932 51.5032C57.4596 40.1928 59.7427 39.4423 67.6357 36.8524C70.7083 35.8453 74.7685 34.5131 79.9886 31.867C80.2061 31.7448 80.453 31.6666 80.7182 31.6494C81.6642 31.5859 82.4819 32.3021 82.5442 33.2481C82.7654 36.542 82.6016 39.5218 82.0382 42.1349C81.2584 45.7563 79.7136 48.6921 77.3657 50.8139C75.0056 52.9454 71.8939 54.208 67.9963 54.4683C65.8195 54.615 63.3947 54.4463 60.7168 53.9416H60.7229ZM35.8828 45.0853C35.0822 44.5793 34.8415 43.5221 35.3462 42.7216C35.851 41.9198 36.9082 41.6802 37.71 42.185C38.6939 42.8022 39.8439 43.4463 41.0148 44.1039C43.2331 45.3481 45.5297 46.6363 47.5952 48.2619C47.5769 42.4404 45.6079 41.7939 40.4978 40.117C37.787 39.2272 34.3318 38.0942 29.9881 36.0629C29.9917 38.016 30.1653 39.8078 30.5136 41.4236C31.1418 44.3398 32.3359 46.6596 34.1252 48.2753C35.9023 49.8813 38.3247 50.8371 41.4255 51.0449C42.655 51.1268 43.9897 51.0926 45.4307 50.9324C43.5607 49.4682 41.412 48.2619 39.3355 47.0983C38.1744 46.4469 37.0341 45.8077 35.8828 45.0853ZM17.2233 63.4688L4.11884 86.1654L6.37259 87.6712L19.2021 65.4512L17.2246 63.47L17.2233 63.4688ZM19.2131 72.2883L11.8371 85.063L14.2693 87.0027H14.268C14.4392 87.1395 14.587 87.3094 14.6995 87.5123L23.4138 103.247L23.4114 103.25C23.6632 103.695 23.7304 103.819 23.8037 103.955C24.4014 105.057 25.1591 106.457 25.4451 106.564H52.6453C52.7517 106.493 52.9338 105.787 53.1098 104.924C53.2161 104.401 53.276 103.839 53.2882 103.28C53.3004 102.74 53.2638 102.199 53.1782 101.701C53.0707 101.077 53.0804 100.604 53.0426 100.604L40.4551 100.462C40.3059 100.583 40.1532 100.693 39.9967 100.789C38.6217 101.645 37.0879 101.695 35.6188 100.434L25.3412 91.6068C24.6214 90.9908 24.5383 89.9091 25.153 89.1904C25.769 88.4706 26.8507 88.3874 27.5705 89.0022L37.8481 97.8291C37.9703 97.9342 38.0864 97.9379 38.1842 97.8768C38.2942 97.8071 38.4054 97.7167 38.513 97.6042L38.5655 97.5468C38.645 97.46 38.7232 97.3598 38.8002 97.2534C39.0336 96.9234 39.2438 96.5091 39.4137 96.0447C39.9197 94.6672 40.0089 93.0539 39.1962 92.356L33.7879 87.7116C33.6339 87.5808 33.5093 87.428 33.4139 87.2618H33.4115L31.8141 84.4775C31.7627 84.4397 31.7138 84.3981 31.6649 84.3529C31.3569 84.062 31.1797 83.6856 31.1369 83.2944L26.5195 75.24C26.3777 74.9919 26.2322 74.8342 26.0782 74.7303C25.8863 74.6008 25.6309 74.5054 25.3339 74.4174L20.087 72.8469C19.8169 72.7662 19.581 72.6257 19.3903 72.4411L19.2131 72.2883ZM35.0822 83.2724C37.446 81.0015 40.2082 79.1499 43.2515 77.8348C46.5954 76.3889 50.2963 75.5871 54.1975 75.5871C58.2956 75.5871 62.1749 76.4732 65.6557 78.0633C68.9447 79.5667 71.889 81.697 74.3334 84.304L73.759 85.3062L68.5841 89.7502C66.5809 91.4699 66.4477 94.5584 67.3155 97.0616L56.939 97.1777C56.1653 97.1874 55.5236 97.449 55.0054 97.8976C54.4872 97.449 53.8456 97.1887 53.0719 97.1777L42.6954 97.0616C43.5619 94.5584 43.4287 91.4699 41.4255 89.7502L36.2507 85.3062L35.0847 83.2724H35.0822ZM105.887 86.1642L103.633 87.67L90.8039 65.45L92.7814 63.4688L105.886 86.1654L105.887 86.1642Z" fill="white"/>
</svg>
