<svg width="50" height="50" viewBox="0 0 50 50" fill="none" xmlns="http://www.w3.org/2000/svg">
<path d="M48.973 11.1884L46.973 7.99921C47.8919 7.72894 48.4865 6.91813 48.5405 5.99921V2.53975C48.5405 1.35056 47.6216 0.431641 46.4324 0.431641H26.4324C25.2973 0.431641 24.3243 1.35056 24.3243 2.53975V5.99921C24.3243 6.91813 24.973 7.78299 25.8378 7.99921L23.8378 11.1884C23.1892 12.2154 22.8108 13.4046 22.8108 14.6479V21.6208C22.1081 21.4046 21.6757 21.2425 21.6216 21.2425L17.4054 19.9452C17.1351 19.8911 11.2432 18.2154 8.16216 20.8641C6.7027 22.1073 6.10811 23.9992 6.37838 26.4857L0.540541 34.9181C0.216216 35.5127 0 36.1614 0 36.81V41.1884C0 41.9992 0.378378 43.4587 2.75676 44.1614L15.5676 49.0262C16.3784 49.3506 17.2432 49.5668 18.1081 49.5668C18.4324 49.5668 18.8108 49.5127 19.1351 49.4587C20.0541 49.2424 20.8108 48.7019 21.2973 47.9451L26.9189 39.4046C27.6757 39.1343 30.0541 38.2154 31.2973 36.3235H44.6486C47.6216 36.3235 50 33.9452 50 30.9722V14.6479C49.9459 13.4587 49.6216 12.2695 48.973 11.1884ZM41.4595 1.78299H44.4865V6.75596H41.4595V1.78299ZM32.6486 1.78299H35.6757V6.75596H32.6486V1.78299ZM25.6757 5.99921V2.53975C25.6757 2.10732 26 1.78299 26.4324 1.78299H26.9189V6.75596H26.4324C26 6.75596 25.6757 6.43164 25.6757 5.99921ZM24.973 11.9452L27.4054 8.10732H45.4054L47.8378 11.9452C48.2162 12.5938 48.4865 13.2425 48.5946 13.9992H24.2703C24.3243 13.2425 24.5946 12.5397 24.973 11.9452ZM18.2703 48.3235C17.5135 48.3235 16.7568 48.1614 16.0541 47.8911L3.13514 42.9181H3.08108C1.2973 42.3776 1.2973 41.5127 1.2973 41.2424V39.1884L1.40541 39.2424C1.78378 39.4587 2.21622 39.6749 2.64865 39.783L15.4595 44.6479C16 44.8641 16.5946 45.0262 17.1892 45.1343H17.2432C17.4054 45.1343 17.5135 45.1884 17.6757 45.1884H17.7838H18H18.2162L18.2703 48.3235ZM30.7568 33.837C30.7027 35.9992 28.4324 37.2965 27.1351 37.837V34.9181H27.1892L27.4595 34.81L27.7838 34.6479L27.8919 34.5938C28 34.5397 28.1622 34.4857 28.2703 34.4316H28.3243C28.4324 34.3776 28.5946 34.3235 28.7027 34.2154L28.8108 34.1614C28.973 34.0533 29.0811 33.9992 29.2432 33.8911L29.2973 33.837L29.6757 33.5668L29.8378 33.4587C30 33.3506 30.1081 33.2425 30.2703 33.1343L30.3784 33.0262C30.4865 32.9181 30.6486 32.81 30.7568 32.6479L30.8108 32.5938L30.7568 33.837ZM30.7568 29.4587C30.7568 30.0533 30.5405 30.6479 30.2162 31.1884C29.027 32.9722 26.3243 33.783 26.3243 33.783C26.1622 33.837 26.0541 33.9452 25.9459 34.0533L20.1081 42.8641C19.7838 43.3506 19.3514 43.7289 18.7568 43.837C17.8378 43.9992 16.9189 43.837 16.0541 43.4587L3.13514 38.5397H3.08108C2.75676 38.4316 2.43243 38.3235 2.10811 38.1073C1.62162 37.8911 1.2973 37.3506 1.2973 36.81C1.2973 36.3776 1.40541 35.9992 1.62162 35.6208L7.56757 26.9722C7.67567 26.81 7.67568 26.6479 7.67568 26.4857C7.4054 24.3235 7.83784 22.756 8.97297 21.783C11.5135 19.6208 16.9189 21.0803 16.973 21.1343L21.2432 22.4316C23.6757 23.1343 30.0541 25.5127 30.6486 28.5938C30.7027 28.756 30.7027 28.9722 30.7027 29.1343L30.7568 29.4587ZM48.6486 29.5127H32.1081V29.1884C32.1081 28.9181 32.0541 28.7019 32 28.4316C31.4054 25.4046 27.0811 23.2425 24.1622 22.1073V15.3506H48.5946V29.5127H48.6486Z" fill="black"/>
<path d="M27.7298 10.7551C27.4054 10.5389 26.973 10.647 26.8108 10.9713L26.2162 11.9443C26 12.2686 26.1081 12.647 26.4325 12.8632C26.5406 12.9172 26.6487 12.9713 26.8108 12.9713C27.0271 12.9713 27.2433 12.8632 27.4054 12.647L28 11.674C28.1622 11.3497 28.0541 10.9713 27.7298 10.7551Z" fill="black"/>
<path d="M28.9729 8.70233C28.6486 8.48612 28.2162 8.59422 28.054 8.91855L27.7297 9.40503C27.5135 9.72936 27.6216 10.1618 27.9459 10.324C28.054 10.378 28.1621 10.4321 28.3243 10.4321C28.5405 10.4321 28.7567 10.324 28.9189 10.1077L29.2432 9.62125C29.4054 9.29693 29.2972 8.86449 28.9729 8.70233Z" fill="black"/>
<path d="M36.3783 27.9457C38.5945 27.9457 40.2161 27.4052 41.1891 26.3241C42.0539 25.3511 42.4323 24.1079 42.3242 22.8647C42.2161 20.9728 41.1891 19.5133 39.6215 19.0268C38.7026 18.7025 37.2972 17.3511 36.8648 16.8647C36.7566 16.7025 36.5404 16.6484 36.3783 16.6484C36.1621 16.6484 35.9999 16.7565 35.8918 16.8647C35.4594 17.3511 34.108 18.7565 33.135 19.0268C31.5675 19.5133 30.5404 20.9728 30.4323 22.8647C30.3242 24.1079 30.7026 25.4052 31.5675 26.3241C32.5404 27.4052 34.1621 27.9457 36.3783 27.9457ZM31.7837 22.9728C31.8918 21.6755 32.5404 20.6484 33.5675 20.3241C33.8377 20.216 34.108 20.1079 34.3242 19.9998C34.8648 20.4863 35.6215 20.8106 36.3783 20.8106C37.135 20.8106 37.8918 20.5403 38.4323 19.9998C38.7026 20.162 38.9188 20.2701 39.1891 20.3782C40.2702 20.8106 40.9729 21.8376 40.9729 23.0268C41.1891 24.4322 40.3783 25.7295 39.081 26.216C39.4594 25.6755 39.6215 25.0809 39.5675 24.4322C39.5134 24.0538 39.1891 23.8376 38.8107 23.8376C38.4323 23.8917 38.1621 24.216 38.2161 24.5944C38.2161 24.6484 38.3242 25.8376 36.4323 26.5944C35.9458 26.3241 34.7567 25.4592 34.9188 24.162C34.9729 23.7836 34.7026 23.4592 34.3242 23.4052C33.9458 23.3511 33.6215 23.6214 33.5675 23.9998C33.4594 24.8106 33.6756 25.6755 34.1621 26.3782C33.5675 26.216 32.9729 25.8917 32.5404 25.4052C31.9458 24.7565 31.6756 23.8376 31.7837 22.9728Z" fill="black"/>
<path d="M22.7028 26.1607C21.1892 26.1607 20.2163 25.2958 19.2974 24.485C18.3784 23.6742 17.4055 22.8093 16.0541 23.0256L15.6217 22.9174C13.1352 22.2147 11.4595 21.9445 10.5946 22.5931C10.2703 22.8093 10.1082 23.1877 10.1082 23.5661C10.1082 23.8364 10.1082 24.0526 10.1082 24.2688C10.2163 25.7823 9.946 27.2958 9.18924 28.5931C8.6487 29.3499 8.05411 29.9985 7.29735 30.5391C5.946 31.7823 4.54059 33.0255 4.70276 34.3769C4.81086 35.1337 5.35141 35.7283 6.37843 36.2147C7.62168 36.8634 9.02708 37.1337 10.4325 36.9715C11.1892 36.9174 11.2974 36.8634 11.7838 37.9445C12.5406 39.5661 13.1892 40.8634 14.3784 41.0796C14.4865 41.1337 14.6487 41.1337 14.8109 41.1337C15.6217 41.1337 16.5946 40.6472 17.7838 39.5661C19.4595 38.0526 19.2974 36.9174 19.2433 36.1607C19.1892 35.512 19.1352 35.2958 20.3244 34.7012C21.2433 34.2688 22.1622 33.9445 23.1352 33.6742C25.0811 33.0796 26.919 32.5391 27.4595 30.2688C27.7838 29.2958 27.6217 28.2147 27.0271 27.4039C26.0541 26.2688 24.1082 26.1607 22.7028 26.1607ZM26.1082 30.0526C25.7838 31.512 24.7028 31.8904 22.7028 32.485C21.6757 32.7553 20.6487 33.1337 19.7298 33.5661C17.8919 34.485 17.8379 35.3499 17.946 36.3769C18.0001 37.0256 18.1082 37.6201 16.919 38.6472C15.8919 39.5661 15.1892 39.9445 14.7028 39.8904C14.1622 39.7823 13.6217 38.7012 13.0811 37.512C12.3784 36.0526 11.7298 35.7283 10.919 35.7283C10.7568 35.7283 10.5406 35.7283 10.3784 35.7823C9.2433 35.9445 8.05411 35.7283 7.02708 35.1337C6.70276 34.9715 6.16222 34.6472 6.10816 34.3228C6.00005 33.6742 7.29735 32.5391 8.27032 31.6742C9.13519 31.0256 9.83789 30.2147 10.4325 29.2958C11.2433 27.7823 11.5676 26.0526 11.4595 24.3228C11.4595 24.1066 11.4595 23.8904 11.4595 23.6742C11.7298 23.5661 12.5406 23.512 15.2433 24.2147C15.8379 24.3769 15.946 24.431 16.1622 24.3769C16.919 24.2147 17.4595 24.7012 18.3784 25.512C19.4055 26.431 20.6487 27.512 22.7028 27.512C24.4325 27.512 25.5136 27.7823 25.946 28.3228C26.2703 28.8634 26.3244 29.458 26.1082 30.0526Z" fill="black"/>
<path d="M12.8649 29.1878C12.5406 29.0256 12.1081 29.1337 11.946 29.4581C11.3514 30.5932 10.3784 31.4581 9.24327 31.9445C8.91895 32.1067 8.75679 32.4851 8.8649 32.8094C8.973 33.0797 9.24327 33.2418 9.51354 33.2418C9.62165 33.2418 9.67571 33.2418 9.78382 33.1878C11.1892 32.5391 12.3784 31.4581 13.1352 30.1067C13.3514 29.7824 13.2433 29.3499 12.8649 29.1878Z" fill="black"/>
<path d="M13.4596 26.2695C13.0812 26.2695 12.7569 26.5398 12.7569 26.9182C12.7569 27.0803 12.7028 27.2966 12.7028 27.4587C12.6487 27.8371 12.865 28.1614 13.2433 28.2695C13.2974 28.2695 13.3514 28.2695 13.3514 28.2695C13.6758 28.2695 13.946 28.0533 14.0001 27.729C14.0542 27.4587 14.1082 27.2425 14.1082 26.9722C14.1082 26.5939 13.8379 26.2695 13.4596 26.2695Z" fill="black"/>
</svg>
