<svg width="44" height="30" viewBox="0 0 44 30" fill="none" xmlns="http://www.w3.org/2000/svg">
<path d="M42.5331 4.68471C42.289 3.77653 41.8104 2.94846 41.1454 2.28347C40.4804 1.61848 39.6523 1.13991 38.7441 0.895713C35.4017 -1.53269e-06 21.9999 0 21.9999 0C21.9999 0 8.598 -1.53269e-06 5.25558 0.895713C4.34741 1.13995 3.51936 1.61853 2.85438 2.28351C2.18939 2.9485 1.71081 3.77655 1.46657 4.68471C0.571289 8.02671 0.571289 15 0.571289 15C0.571289 15 0.571289 21.9733 1.46657 25.3153C1.71079 26.2235 2.18935 27.0516 2.85433 27.7167C3.51932 28.3817 4.34738 28.8604 5.25558 29.1047C8.598 30 21.9999 30 21.9999 30C21.9999 30 35.4017 30 38.7441 29.1047C39.6524 28.8604 40.4804 28.3818 41.1454 27.7167C41.8104 27.0517 42.289 26.2235 42.5331 25.3153C43.4284 21.9737 43.4284 15 43.4284 15C43.4284 15 43.4284 8.02671 42.5331 4.68471ZM17.7141 21.4286V8.57143L28.8484 15L17.7141 21.4286Z" fill="white"/>
</svg>
