<svg width="80" height="80" viewBox="0 0 80 80" fill="none" xmlns="http://www.w3.org/2000/svg">
<path fill-rule="evenodd" clip-rule="evenodd" d="M37.1755 34.4514C37.1386 28.8163 41.6855 24.2181 47.3315 24.1811L54.7663 24.1324C56.3061 24.1223 57.5625 25.36 57.5726 26.8969L57.6212 34.3175C57.6581 39.9528 53.1112 44.5509 47.4652 44.5879L40.0304 44.6366C38.4906 44.6467 37.2342 43.4089 37.2241 41.8721L37.1755 34.4514ZM47.368 29.7466C44.8015 29.7634 42.7348 31.8535 42.7516 34.4149L42.782 39.0528L47.4287 39.0224C49.9952 39.0056 52.0619 36.9157 52.0451 34.354L52.0147 29.7161L47.368 29.7466Z" fill="#47382A"/>
<path fill-rule="evenodd" clip-rule="evenodd" d="M42.7516 34.4152C42.7147 28.78 38.1079 24.2418 32.4619 24.2787L25.0271 24.3274C23.4873 24.3375 22.2472 25.5916 22.2572 27.1284L22.3058 34.5491C22.3428 40.1843 26.9496 44.7225 32.5956 44.6855L40.0304 44.6368C41.5701 44.6268 42.8103 43.3726 42.8002 41.8358L42.7516 34.4152ZM32.4983 29.8442C35.0648 29.8274 37.1587 31.8902 37.1755 34.4517L37.2059 39.0896L32.5591 39.12C29.9928 39.1369 27.8987 37.0742 27.882 34.5126L27.8516 29.8747L32.4983 29.8442Z" fill="#47382A"/>
<path fill-rule="evenodd" clip-rule="evenodd" d="M37.3091 54.8577C37.2722 49.2225 41.8192 44.6243 47.4652 44.5873L54.9 44.5386C56.4397 44.5285 57.6962 45.7663 57.7063 47.3031L57.7549 54.7238C57.7918 60.359 53.2449 64.9571 47.5989 64.9941L40.164 65.0428C38.6243 65.0529 37.3678 63.8152 37.3578 62.2784L37.3091 54.8577ZM47.5016 50.1528C44.9351 50.1696 42.8685 52.2596 42.8853 54.8212L42.9156 59.4591L47.5624 59.4286C50.1289 59.4118 52.1956 57.3219 52.1788 54.7603L52.1484 50.1224L47.5016 50.1528Z" fill="#47382A"/>
<path fill-rule="evenodd" clip-rule="evenodd" d="M42.8853 54.8214C42.8483 49.1862 38.2416 44.648 32.5956 44.685L25.1607 44.7337C23.6209 44.7438 22.3808 45.9979 22.3909 47.5347L22.4395 54.9554C22.4764 60.5906 27.0833 65.1288 32.7292 65.0918L40.164 65.0431C41.7038 65.033 42.9439 63.7789 42.9339 62.2421L42.8853 54.8214ZM32.632 50.2505C35.1985 50.2337 37.2924 52.2963 37.3091 54.858L37.3395 59.4959L32.6928 59.5263C30.1264 59.5431 28.0324 57.4804 28.0156 54.9188L27.9852 50.2809L32.632 50.2505Z" fill="#47382A"/>
<path fill-rule="evenodd" clip-rule="evenodd" d="M39.8603 18.6634C41.4001 18.6533 42.6565 19.891 42.6666 21.4279L43.0312 77.0828C43.0412 78.6196 41.8011 79.8737 40.2613 79.8838C38.7216 79.8939 37.4651 78.6561 37.4551 77.1193L37.0905 21.4644C37.0804 19.9275 38.3206 18.6735 39.8603 18.6634Z" fill="#47382A"/>
<path fill-rule="evenodd" clip-rule="evenodd" d="M41.7842 4.80766C41.7842 4.80769 41.7842 4.80762 41.7842 4.80766L41.7701 4.82259L41.7166 4.88008C41.6679 4.93231 41.5944 5.01172 41.4995 5.11545C41.3098 5.32311 41.0352 5.62742 40.7046 6.00568C40.0404 6.76515 39.1625 7.80862 38.2915 8.9573C37.4125 10.1166 36.5843 11.3262 35.99 12.4236C35.3425 13.6198 35.1848 14.3029 35.1863 14.5224C35.2003 16.6612 37.1218 18.684 39.8604 18.666C42.599 18.6481 44.4938 16.6003 44.4798 14.4615C44.4697 12.9246 45.7099 11.6706 47.2496 11.6605C48.7894 11.6504 50.0458 12.8881 50.0559 14.425C50.0922 19.9705 45.3707 24.1957 39.8968 24.2315C34.423 24.2674 29.6465 20.1044 29.6102 14.5589C29.599 12.8572 30.3551 11.1243 31.0847 9.77718C31.8678 8.33131 32.8811 6.87012 33.8449 5.59886C34.8168 4.31694 35.7833 3.16994 36.5028 2.34658C36.8641 1.93342 37.1664 1.59824 37.3801 1.36427C37.4871 1.24721 37.5724 1.15526 37.6318 1.09131L37.7016 1.01672L37.7212 0.995773L37.7297 0.986738C37.73 0.986439 37.7304 0.986139 39.7571 2.89716L37.7297 0.986738C38.7874 -0.13048 40.5526 -0.18115 41.6718 0.874239C42.791 1.92948 42.8412 3.69044 41.7842 4.80766Z" fill="#47382A"/>
</svg>
