<svg width="50" height="50" viewBox="0 0 50 50" fill="none" xmlns="http://www.w3.org/2000/svg">
<path fill-rule="evenodd" clip-rule="evenodd" d="M10.7175 0.000495881C8.09494 0.000495881 5.83164 0.663428 4.70245 1.53389C3.93016 2.12985 3.57527 2.85301 3.57527 3.57171C3.57527 4.28818 3.93015 5.01134 4.70245 5.60953C5.83187 6.47999 8.09511 7.14292 10.7175 7.14292C12.579 7.14292 14.2575 6.80812 15.4784 6.30143V9.72534C14.3624 10.1204 13.5008 11.0556 13.2062 12.2163C8.94528 12.9774 5.72205 14.9482 3.51933 17.8275C1.19358 20.8653 0.00170898 24.9408 0.00170898 29.7622C0.00170898 34.5812 1.19358 38.6589 3.51933 41.697C5.72234 44.5763 8.94534 46.5449 13.2062 47.3082C13.5968 48.855 15.0007 50 16.668 50C18.3353 50 19.737 48.8528 20.1299 47.3082C20.2437 47.2881 20.3575 47.2658 20.4691 47.2435C21.1142 47.1163 21.5338 46.4913 21.4066 45.8463C21.2793 45.2012 20.6544 44.7816 20.0093 44.9088C19.6455 44.9803 19.2705 45.0428 18.8911 45.0919C18.8911 45.0919 17.8599 45.2905 17.8599 46.2748V46.44C17.8555 47.0895 17.3242 47.6185 16.6703 47.6185C16.0252 47.6185 15.4985 47.1029 15.4806 46.4623V46.2324L15.4784 46.2257C15.4583 45.6521 15.0298 45.1677 14.4494 45.0919C10.4408 44.5584 7.42072 42.8666 5.41626 40.2484C3.37622 37.5833 2.38742 33.9899 2.38742 29.7621C2.38742 25.5347 3.37622 21.9392 5.41626 19.2759C7.4206 16.6578 10.4405 14.9681 14.4494 14.4324L14.291 14.4436C14.291 14.4436 15.4806 14.3387 15.4806 13.2495V13.0955C15.4806 12.4393 16.0141 11.9059 16.6702 11.9059C17.3264 11.9059 17.8599 12.4393 17.8599 13.0955L19.0495 14.2851L17.8599 13.1V13.2495C17.8599 14.3387 19.0495 14.4436 19.0495 14.4436C18.9982 14.4436 18.9446 14.4369 18.8911 14.4324C22.0828 14.8588 24.6496 16.0127 26.5735 17.7916C27.0578 18.2358 27.81 18.2068 28.2564 17.7246C28.7006 17.2403 28.6738 16.4881 28.1917 16.0439C26.1248 14.1356 23.4419 12.8097 20.1299 12.2183C19.8375 11.0577 18.9759 10.1202 17.8577 9.72513V3.57121C17.8577 2.85474 17.5028 2.13159 16.7305 1.53339C15.601 0.662931 13.3378 0 10.7154 0L10.7175 0.000495881ZM10.7175 2.38207C12.4518 2.38207 13.9986 2.69232 14.9517 3.21236C15.1325 3.31057 15.2842 3.41547 15.4003 3.52931C15.4115 3.54047 15.4271 3.55609 15.4405 3.57395C15.4271 3.58957 15.4137 3.60519 15.4003 3.61859C15.2842 3.73242 15.1302 3.83732 14.9517 3.93553C13.9986 4.45559 12.4518 4.76583 10.7175 4.76583C8.98322 4.76583 7.43646 4.45558 6.48338 3.93553C6.30258 3.83732 6.15081 3.73242 6.03474 3.61859C6.02358 3.60743 6.00795 3.5918 5.99456 3.57395C6.00795 3.55832 6.02135 3.5427 6.03474 3.52931C6.1508 3.41547 6.30481 3.31057 6.48338 3.21236C7.43646 2.6923 8.98322 2.38207 10.7175 2.38207ZM14.2486 16.6692C8.22664 16.8679 6.0462 22.16 6.0462 22.16C5.79398 22.7671 6.08191 23.4679 6.68679 23.7179C7.2939 23.9701 7.99477 23.6822 8.24475 23.0773C8.24475 23.0773 9.87637 19.1936 14.3272 19.0463C14.9834 19.024 15.4991 18.4772 15.4767 17.8187C15.4544 17.1625 14.9076 16.6469 14.2491 16.6693L14.2486 16.6692ZM34.5239 19.0485C25.9821 19.0485 19.0494 25.9836 19.0494 34.523C19.0494 43.0648 25.9844 49.9975 34.5239 49.9975C43.0657 49.9975 49.9984 43.0625 49.9984 34.523C49.9984 25.9813 43.0634 19.0485 34.5239 19.0485ZM34.5239 21.4301C41.7509 21.4301 47.6191 27.2983 47.6191 34.5253C47.6191 41.7523 41.7509 47.6205 34.5239 47.6205C27.2969 47.6205 21.4287 41.7523 21.4287 34.5253C21.4287 27.2983 27.2969 21.4301 34.5239 21.4301ZM34.5239 23.8117C30.5732 23.8117 27.1226 25.9544 25.2656 29.1395C25.2589 29.1484 25.25 29.1596 25.2433 29.1685C25.2366 29.1774 25.2344 29.1886 25.2299 29.1975C24.3282 30.7666 23.8103 32.5857 23.8103 34.5253C23.8103 36.4605 24.3259 38.2751 25.2254 39.842C25.2321 39.8554 25.2388 39.8687 25.2455 39.8821C25.2522 39.8933 25.2589 39.9022 25.2679 39.9112C27.1249 43.0962 30.5756 45.2389 34.5262 45.2389C38.4679 45.2389 41.912 43.1051 43.7736 39.9312C43.7825 39.9156 43.7959 39.9 43.8048 39.8821C43.816 39.8642 43.8227 39.8442 43.8316 39.8263C44.7267 38.2617 45.2378 36.4538 45.2378 34.5253C45.2378 32.5969 44.7244 30.7889 43.8316 29.2243C43.8227 29.2042 43.816 29.1864 43.8048 29.1685C43.7959 29.1529 43.7825 29.1373 43.7736 29.1194C41.9121 25.9455 38.4681 23.8117 34.5262 23.8117L34.5239 23.8117ZM33.3343 26.2781V32.4651L27.9797 29.3715C29.2742 27.731 31.1692 26.5882 33.3343 26.2757V26.2781ZM35.7158 26.2781C37.8809 26.5883 39.7759 27.7333 41.0704 29.3739L35.7158 32.4675V26.2781ZM26.7901 31.4317L32.1469 34.5253L26.7901 37.6189C26.4062 36.6614 26.1919 35.619 26.1919 34.5253C26.1919 33.4316 26.4062 32.3893 26.7901 31.4317ZM42.26 31.4317C42.6439 32.3893 42.8582 33.4316 42.8582 34.5253C42.8582 35.619 42.6439 36.6614 42.26 37.6189L36.9032 34.5253L42.26 31.4317ZM33.3343 36.5832V42.7703C31.1692 42.46 29.2742 41.315 27.9797 39.6745L33.3343 36.5809V36.5832ZM35.7158 36.5832L41.0704 39.6768C39.7759 41.3173 37.8809 42.4601 35.7158 42.7726V36.5832Z" fill="black"/>
</svg>
