<svg width="51" height="51" viewBox="0 0 51 51" fill="none" xmlns="http://www.w3.org/2000/svg">
<path d="M45.3262 36.0508C43.3023 36.0508 40.8958 36.8348 38.7289 38.2028C34.8419 40.6553 32.7364 44.2639 33.4806 46.8939C32.2923 47.4024 30.6127 47.7378 29.3563 47.882C28.6576 47.9618 28.1552 48.5934 28.2356 49.2937C28.3094 49.9442 28.8605 50.4244 29.4993 50.4244C29.5481 50.4244 29.598 50.421 29.6468 50.4149C30.483 50.3196 33.1429 49.9458 35.0282 48.9788C35.8272 49.4989 36.8652 49.7761 38.0734 49.7761C40.0996 49.7761 42.5038 48.9927 44.6719 47.6253C46.6465 46.381 48.2501 44.7768 49.191 43.1073C50.2695 41.1915 50.3821 39.3739 49.5093 37.9882C48.7214 36.7395 47.2353 36.0508 45.3262 36.0508ZM46.9692 41.8558C46.2433 43.1444 44.9115 44.4608 43.3129 45.4694C41.5401 46.5867 39.6305 47.2277 38.0734 47.2266C37.4929 47.2266 36.4588 47.129 36.0507 46.4797C35.2893 45.2737 36.8552 42.3997 40.089 40.3597C41.8595 39.2424 43.7692 38.6014 45.3262 38.6014C45.9068 38.6014 46.942 38.6985 47.3523 39.35C47.6967 39.8967 47.558 40.8106 46.9692 41.8558Z" fill="black"/>
<path d="M4.33028 15.6267C5.58288 19.9113 5.42762 27.036 5.42651 27.108C5.4254 27.1374 5.4376 27.1646 5.43815 27.194C3.80684 29.5229 2.32523 31.1603 2.30194 31.1852C1.8284 31.7053 1.86389 32.5121 2.38456 32.9862C2.62854 33.2091 2.93684 33.32 3.24402 33.32C3.59003 33.32 3.93437 33.1809 4.18611 32.9047C4.31531 32.7622 6.99517 29.8068 9.23421 26.0235C11.1555 24.4759 16.2236 21.1933 26.3742 19.2941C26.6198 19.2481 26.8455 19.1317 27.024 18.9581C27.5231 18.4785 28.0343 17.5624 27.8341 16.5638C27.6378 15.5818 26.8593 14.8183 25.523 14.297C25.4243 14.2582 25.3212 14.2322 25.2147 14.2194C25.1809 14.215 24.3575 14.1157 23.0766 14.1157C21.5445 14.1157 19.2517 14.2632 16.8258 14.9297C17.2816 14.2344 17.7213 13.508 18.1255 12.7378C20.1544 8.87187 21.0682 4.87508 20.5714 2.04495C20.5021 1.6557 20.2581 1.32023 19.9071 1.13614C19.5578 0.952044 19.1408 0.942063 18.7831 1.10675C16.1715 2.30612 13.4018 5.32921 11.3751 9.19514C10.7103 10.4616 10.1785 11.7392 9.76376 12.989C8.03651 7.95807 4.43009 4.86954 4.36466 4.81575C4.19942 4.67713 4.00091 4.58287 3.78909 4.54239C2.00418 4.19749 1.30773 4.77084 0.991674 5.26877C0.345135 6.29403 0.914045 7.48397 1.85724 9.45409C2.58307 10.9706 3.57561 13.0461 4.33028 15.6267ZM24.7467 16.7351C24.9192 16.8094 25.0439 16.8782 25.1338 16.9353C17.9775 18.357 13.2515 20.4636 10.3327 22.1947C13.5132 17.482 19.3953 16.6669 23.0755 16.6669C23.8817 16.6669 24.4767 16.7102 24.7467 16.7351ZM13.6319 10.3801C14.9095 7.94476 16.5247 5.86596 18.1155 4.54904C17.9364 6.60677 17.1435 9.11751 15.8654 11.5528C14.5862 13.9904 12.9698 16.0709 11.3801 17.3872C11.5603 15.3289 12.3538 12.8176 13.6319 10.3801ZM7.79697 21.2232C7.63284 19.1145 7.33008 16.7989 6.77836 14.9109C5.96603 12.1323 4.92137 9.94925 4.15838 8.35453C4.10903 8.25195 4.05858 8.1477 4.00923 8.04346C5.93997 10.1999 9.20261 14.9425 7.79697 21.2232Z" fill="black"/>
<path d="M41.8084 4.02474C41.3382 4.69679 40.9822 5.41486 40.7299 6.13293C39.4474 5.07218 37.9586 4.46058 36.6328 4.46058C35.6092 4.46058 34.7309 4.83541 34.1603 5.51356C33.4378 6.36914 33.2853 7.60511 33.7422 8.90428C34.1242 9.98998 34.9044 11.069 35.9397 11.9424C36.8601 12.7186 37.8915 13.2537 38.8918 13.5027C37.9258 14.7309 36.2308 16.0922 34.9466 16.5186C34.2784 16.7409 33.9169 17.4618 34.1387 18.1305C34.3161 18.6656 34.8146 19.0044 35.3486 19.0044C35.4816 19.0044 35.6169 18.9833 35.7517 18.9389C37.2854 18.4294 39.4967 16.8596 40.8918 15.083C41.3155 15.8127 41.8949 16.5119 42.6063 17.1124C43.9027 18.207 45.4209 18.8347 46.7672 18.8347C47.7908 18.8347 48.6703 18.4599 49.2431 17.7801C50.626 16.1393 49.8602 13.3768 47.4615 11.354C47.1443 11.0873 46.8149 10.8494 46.4772 10.6404C47.1831 10.1236 47.8507 9.45379 48.418 8.64256C50.3293 5.9078 50.377 2.74886 48.525 1.45301C48.016 1.09757 47.3977 0.910156 46.734 0.910156C45.0378 0.910711 43.1514 2.10398 41.8084 4.02474ZM36.1476 8.05813C35.9873 7.59679 36.0112 7.27352 36.111 7.15763C36.187 7.06559 36.3827 7.01124 36.6328 7.01124C37.2067 7.01124 38.1704 7.30568 39.1507 8.13298C39.8327 8.70855 40.3562 9.41331 40.5869 10.0676C40.7416 10.5107 40.7233 10.8206 40.6345 10.947C40.6301 10.9542 40.6235 10.962 40.6185 10.9703C40.5381 11.059 40.3468 11.1134 40.1006 11.1134C39.5256 11.1123 38.563 10.8184 37.5837 9.99275C36.9011 9.41774 36.3783 8.71243 36.1476 8.05813ZM47.2918 16.1376C47.2147 16.2302 47.0179 16.2851 46.7667 16.2851C46.1928 16.2851 45.2302 15.9902 44.2487 15.1634C43.5667 14.5878 43.0433 13.8831 42.8126 13.2288C42.6579 12.7852 42.6762 12.4758 42.7649 12.3488C42.7705 12.341 42.7766 12.3333 42.7821 12.325C42.8631 12.2368 43.0527 12.183 43.2978 12.183C43.8717 12.183 44.8354 12.478 45.8168 13.3047C47.1953 14.467 47.5602 15.8183 47.2918 16.1376ZM46.7329 3.46082C46.943 3.46082 47.0328 3.52348 47.0622 3.544C47.4897 3.84232 47.5358 5.45146 46.327 7.18092C45.3965 8.51004 44.1977 9.20537 43.493 9.20537C43.2828 9.20537 43.1919 9.14216 43.1614 9.12109C42.9534 8.97526 42.8503 8.55606 42.8919 8.02708C42.9534 7.24081 43.3205 6.31425 43.9 5.48583C44.8287 4.15616 46.0287 3.46082 46.7329 3.46082Z" fill="black"/>
<path d="M21.4902 34.7886C21.6982 34.7248 21.8872 34.6283 22.0358 34.477C22.2759 34.3417 22.5127 34.2086 22.7467 34.0783C23.3971 34.9904 24.1923 35.6287 25.0528 36.0939C25.5463 36.8757 26.3842 38.2924 26.4069 39.3859C26.4208 40.0796 26.9886 40.6335 27.6795 40.6335C27.6895 40.6335 27.6989 40.6335 27.7078 40.6335C28.412 40.6185 28.9703 40.0369 28.9565 39.3316C28.9437 38.6811 28.784 38.0291 28.5656 37.4102C29.4311 37.6864 30.2429 37.9769 30.9266 38.4178C31.1412 38.5564 31.3802 38.6229 31.6175 38.6229C32.0356 38.6229 32.4459 38.4161 32.6899 38.039C33.0714 37.4468 32.9022 36.6578 32.3106 36.2757C31.9208 36.0251 31.5166 35.8249 31.1074 35.6408C31.2177 35.6447 31.3402 35.6425 31.4428 35.6503C32.137 35.6969 32.7509 35.1584 32.7947 34.4559C32.8379 33.7534 32.3039 33.1478 31.6025 33.104C30.3139 33.0225 28.6299 33.1417 27.278 33.2399C26.6154 33.2881 25.9428 33.3347 25.5097 33.3425C25.3329 33.1966 25.1626 33.0408 25.0101 32.8606C27.4826 31.5742 29.4866 30.6676 30.6937 30.148C30.8905 30.346 31.0891 30.5733 31.2948 30.8284C31.6219 31.2348 31.9934 31.6962 32.462 32.0877C32.9948 32.5335 33.6048 32.8556 34.1415 33.1412C34.5086 33.3358 34.8541 33.5194 35.1108 33.7051C35.337 33.8704 35.6004 33.9491 35.8616 33.9491C36.2547 33.9491 36.6434 33.7689 36.8924 33.4262C37.3071 32.8562 37.1813 32.0599 36.6129 31.6446C36.2098 31.3507 35.7662 31.1156 35.3359 30.8866C35.1119 30.7685 34.8962 30.6526 34.6927 30.5356C36.4266 30.8206 38.2049 31.4334 38.7366 32.137C38.9867 32.468 39.3693 32.6416 39.7547 32.6416C40.023 32.6416 40.2942 32.5579 40.5226 32.3838C41.0849 31.959 41.1952 31.1589 40.7705 30.5977C39.8112 29.3279 37.7934 28.5794 35.9231 28.1835C37.1696 27.7609 38.349 27.3861 39.4214 27.0628C41.2507 27.2436 43.9367 28.2988 45.1881 29.3501C45.4277 29.5503 45.7188 29.6484 46.0082 29.6484C46.3731 29.6484 46.733 29.4937 46.9864 29.1938C47.4388 28.6542 47.3684 27.8497 46.8294 27.3972C46.1247 26.805 45.1421 26.2422 44.0697 25.767C44.5571 25.6444 44.8438 25.5774 44.8571 25.574C45.5425 25.416 45.9705 24.7301 45.8114 24.0442C45.6523 23.3583 44.9614 22.9291 44.2821 23.0893C44.2239 23.1026 43.8535 23.1897 43.2574 23.3411C43.854 22.5249 44.3381 21.6915 44.4912 20.9917C44.6409 20.3036 44.2039 19.6243 43.5152 19.474C42.8243 19.3265 42.1484 19.7613 41.9981 20.4494C41.8096 21.3133 39.8722 23.5717 38.6723 24.6214C38.028 24.8166 37.3443 25.0295 36.6295 25.2613C37.2644 24.4617 37.86 23.6455 38.3363 22.806C38.6828 22.1933 38.4682 21.4148 37.8544 21.0677C37.2423 20.7211 36.4638 20.9374 36.1172 21.5495C35.6037 22.455 34.8857 23.3816 34.1255 24.2992C34.0972 23.9006 34.065 23.5069 34.0301 23.1392C34.0029 22.8437 33.9769 22.5859 33.9663 22.3862C33.9286 21.6843 33.3142 21.1353 32.6222 21.1847C31.918 21.2229 31.3813 21.8256 31.4201 22.5282C31.4328 22.7539 31.4589 23.0444 31.4905 23.376C31.5631 24.159 31.7827 26.5089 31.4223 27.0917C31.4168 27.0944 31.4134 27.0994 31.4096 27.1033C31.272 27.1554 31.1367 27.2059 30.9992 27.2597C29.0358 28.0265 26.3642 29.2392 23.3478 30.8389C24.0525 29.6789 25.0562 28.5339 26.052 27.4105C26.8926 26.4623 27.6861 25.5668 28.2961 24.6597C28.6892 24.0752 28.5334 23.2829 27.9495 22.8903C27.3667 22.5005 26.5733 22.6524 26.1801 23.2363C25.7997 23.8013 25.2985 24.4029 24.7479 25.0339C24.6043 24.4933 24.3725 24.0087 24.0276 23.6499C23.5396 23.1437 22.7267 23.1254 22.2199 23.6133C21.7126 24.1024 21.6943 24.9048 22.1828 25.4121C22.4866 25.808 22.4273 27.5624 22.0946 28.0204C22.0164 28.128 21.9754 28.2472 21.9355 28.3676C20.9496 29.7028 20.1689 31.15 19.9404 32.7331C18.7272 33.4395 17.484 34.1986 16.2264 35.0093C16.421 34.1515 16.7393 33.2432 17.1718 32.3039C17.2966 32.1487 17.3853 31.9657 17.4275 31.7672C17.5378 31.5454 17.6515 31.3241 17.774 31.0996C18.0707 30.56 18.5259 30.0127 19.0072 29.4327C19.6837 28.6149 20.3846 27.7698 20.7921 26.7734C21.0577 26.1224 20.745 25.3783 20.0929 25.1116C19.4458 24.8482 18.6983 25.1576 18.4305 25.8108C18.222 26.3215 17.8217 26.8516 17.3714 27.4055C17.3437 26.7163 17.2633 26.0293 17.0432 25.3678C16.8208 24.7001 16.0983 24.3369 15.4296 24.5621C14.762 24.785 14.4016 25.5075 14.6239 26.1756C14.8762 26.9287 14.8479 27.9151 14.818 28.9581C14.7958 29.705 14.7803 30.4713 14.8596 31.2254C13.9364 33.2227 13.4551 35.1063 13.4401 36.8397C13.4401 36.8535 13.4434 36.8674 13.4434 36.8813C12.7886 37.3382 12.1359 37.8084 11.4833 38.2924C12.1598 36.6916 12.6754 34.9538 12.396 33.2931C12.279 32.5983 11.6202 32.1365 10.9266 32.2479C10.2318 32.3655 9.76436 33.0225 9.88135 33.7168C10.0538 34.7426 9.67952 36.0013 9.16495 37.2334C8.91764 36.3079 8.57552 35.4385 8.10088 34.7381C7.70497 34.1548 6.91093 34.004 6.32983 34.4004C5.74761 34.7969 5.59679 35.5904 5.99214 36.1715C6.81889 37.3881 7.16822 39.8051 7.12053 41.7702C5.75981 42.9419 4.43457 44.1667 3.1803 45.4504C2.68736 45.9539 2.69623 46.7607 3.20082 47.2536C3.44868 47.4959 3.76973 47.6168 4.09134 47.6168C4.42292 47.6168 4.75396 47.4887 5.00292 47.2331C5.76646 46.4518 6.55162 45.6983 7.34843 44.9674C7.7959 45.4565 8.33986 45.8907 8.94426 46.2544C9.07512 46.5522 9.20543 46.8488 9.32686 47.1544C9.80539 48.3471 10.3011 49.5814 11.2765 50.5423C11.5254 50.7868 11.8481 50.9094 12.1714 50.9094C12.5013 50.9094 12.8301 50.7824 13.0797 50.5301C13.5737 50.0283 13.5682 49.2215 13.0675 48.7263C12.7642 48.4264 12.5169 48.036 12.2951 47.5941C12.8956 47.7327 13.6447 47.8547 14.4299 47.8547C15.3254 47.8547 16.2602 47.6955 17.051 47.2176C17.6537 46.8533 17.8472 46.0703 17.4829 45.4676C17.118 44.8637 16.334 44.6708 15.7318 45.0356C15.1335 45.3961 13.8682 45.3916 12.5124 45.0223C12.5124 45.0223 12.5108 45.0218 12.5091 45.0218C13.3175 44.8837 14.0123 44.8382 14.5957 44.8931C15.2976 44.9619 15.9187 44.4423 15.9836 43.7409C16.0484 43.0389 15.5327 42.4179 14.8319 42.3524C12.9749 42.1839 10.8933 42.7056 9.42001 43.147C11.1911 41.656 13.0015 40.2853 14.7886 39.0355C15.0864 39.6077 15.4052 40.2487 15.7207 40.8847C16.2669 41.9859 16.8314 43.1243 17.3027 43.9339C17.54 44.3392 17.967 44.566 18.405 44.566C18.6235 44.566 18.8447 44.51 19.0477 44.3919C19.6554 44.0364 19.8611 43.2563 19.5057 42.6474C19.1813 42.0913 18.7893 41.3244 18.3884 40.5221C19.1092 40.7915 19.8927 41.0211 20.7749 41.1836C21.1442 41.2501 21.5606 41.2961 21.9931 41.3399C22.8099 41.4248 23.8252 41.5307 24.2294 41.8656C24.4684 42.0641 24.7573 42.1595 25.0434 42.1595C25.4105 42.1595 25.7731 42.0042 26.0254 41.7009C26.4762 41.1581 26.4014 40.3546 25.8596 39.9049C24.8588 39.0726 20.9784 38.6201 20.8503 38.593C21.5152 38.3861 22.1451 38.2581 22.6314 38.2719C23.3356 38.2703 23.9228 37.7379 23.9433 37.0343C23.9633 36.3295 23.4088 35.7434 22.7051 35.7235C21.0183 35.6885 18.9506 36.4587 17.4358 37.2583C18.8336 36.3567 20.1949 35.5322 21.4902 34.7886Z" fill="black"/>
</svg>
