<svg width="80" height="80" viewBox="0 0 80 80" fill="none" xmlns="http://www.w3.org/2000/svg">
<path d="M75.3195 4.67904C71.3585 0.718065 65.5227 -0.801868 58.8829 0.402364C52.5818 1.54152 46.2382 5.03707 41.0306 10.2442C35.8231 15.4513 32.3245 21.7916 31.1855 28.0998C30.7656 30.326 30.6777 32.5978 30.9284 34.8501C27.8885 33.0795 24.5719 31.8427 21.1157 31.1853C14.476 29.9843 8.64011 31.5043 4.67905 35.462C0.717991 39.4197 -0.801858 45.2621 0.402374 51.8986C1.54153 58.2062 5.03708 64.5467 10.2442 69.7542C15.4513 74.9617 21.7916 78.457 28.0965 79.5994C34.7361 80.8003 40.572 79.2804 44.5331 75.3194C48.4941 71.3585 50.014 65.5226 48.8098 58.8828C48.1523 55.4296 46.9123 52.1098 45.145 49.0701C47.394 49.3207 49.6691 49.2329 51.8953 48.813C58.2029 47.6739 64.5467 44.1751 69.7542 38.9679C74.9617 33.7607 78.457 27.4171 79.5994 21.1156C80.8003 14.476 79.2805 8.6401 75.3195 4.67904ZM42.4929 34.5836C42.9778 33.8611 43.5051 33.1158 44.0714 32.3541C45.7313 33.4412 47.606 34.154 49.5719 34.4469C48.1365 35.5893 46.7403 36.6211 45.4189 37.5063C43.5735 38.8635 41.5295 39.9213 39.3586 40.6438C40.0779 38.4729 41.1389 36.429 42.4929 34.5836ZM57.8255 27.0392C55.007 29.8513 50.6489 30.4176 47.2055 28.4191C48.9566 26.3556 50.8964 24.2434 52.9598 22.1799C56.7613 18.3133 60.9143 14.8079 65.3637 11.7098C67.2091 10.3526 69.2531 9.29483 71.4239 8.57227C70.7014 10.7432 69.6404 12.7904 68.2864 14.6325C65.1912 19.085 61.6859 23.2345 57.8197 27.0364L57.8255 27.0392ZM36.1039 28.9887C37.064 23.677 40.0714 18.2745 44.5626 13.7794C49.0573 9.28467 54.4569 6.28054 59.7719 5.32069C61.9232 4.89432 64.1397 4.89432 66.2911 5.32069C65.5457 5.71126 64.7614 6.1604 63.9379 6.6779C58.6816 10.1311 53.8162 14.1442 49.4218 18.6419C44.9206 23.0325 40.9106 27.9013 37.4578 33.158C36.9436 33.9814 36.4912 34.7658 36.1006 35.5111C35.6808 33.3533 35.6645 31.1401 36.1039 28.9887ZM20.2238 36.1035C25.5388 37.0636 30.938 40.071 35.4331 44.5622C39.9279 49.057 42.932 54.4566 43.8918 59.7716C44.3182 61.9229 44.3182 64.1394 43.8918 66.2907C43.5013 65.5454 43.0521 64.7611 42.5346 63.9376C39.0814 58.6812 35.0684 53.8158 30.5706 49.4215C26.1801 44.9203 21.3112 40.9103 16.0545 37.4575C15.2311 36.9433 14.4467 36.4908 13.7014 36.1003C15.8592 35.6804 18.0725 35.6804 20.2238 36.1035ZM11.7093 45.4154C10.3521 43.5701 9.29433 41.526 8.57178 39.3552C10.7427 40.0778 12.7899 41.1388 14.632 42.4927C19.0845 45.5913 23.2374 49.0933 27.0359 52.9628C30.9025 56.7643 34.4079 60.9173 37.5027 65.3667C38.8599 67.2121 39.9176 69.2561 40.6402 71.427C38.4693 70.7044 36.4253 69.6434 34.5799 68.2894C30.1275 65.1942 25.9746 61.6889 22.1727 57.8227C18.3094 54.0212 14.804 49.8682 11.7085 45.4154H11.7093ZM5.32028 44.4911C5.71084 45.2364 6.15998 46.0208 6.67748 46.8442C9.5807 51.3032 12.9103 55.4696 16.621 59.284C13.6982 60.7518 10.1766 60.2637 7.76482 58.0537C6.60941 55.8405 5.78595 53.4645 5.32378 51.0105C4.87788 48.8168 4.56193 46.6197 5.32028 44.4911ZM28.9883 74.6781C23.6766 73.718 18.2741 70.7106 13.779 66.2194C13.4144 65.8549 13.0629 65.4871 12.7212 65.1128C15.3966 65.191 18.0297 64.4294 20.2526 62.9387C24.1974 66.8182 28.5229 70.2975 33.1573 73.3246C33.9808 73.8388 34.7652 74.2913 35.5072 74.6818C33.3559 75.1049 31.1396 75.1045 28.9883 74.6781ZM51.0099 43.8953C48.8586 44.3217 46.6421 44.3217 44.4908 43.8953C45.2361 43.5048 46.0204 43.0556 46.8439 42.5381C51.4786 39.5145 55.8009 36.0352 59.7486 32.1556C61.9716 33.6463 64.6046 34.4046 67.28 34.3297C66.9383 34.704 66.5835 35.0718 66.2222 35.4363C61.7243 39.9278 56.3216 42.9322 51.0099 43.8953ZM72.2375 27.2671C69.8258 29.477 66.3042 29.9652 63.3814 28.5006C67.0885 24.6861 70.4213 20.5201 73.3248 16.0609C73.8391 15.2374 74.2915 14.453 74.682 13.7077C75.1084 15.8591 75.1084 18.0756 74.682 20.2269C74.2166 22.6809 73.3929 25.0539 72.2375 27.2671Z" fill="#47382A"/>
</svg>
