<svg width="50" height="50" viewBox="0 0 50 50" fill="none" xmlns="http://www.w3.org/2000/svg">
<path d="M24.9845 25.8468C27.8955 25.8423 30.2551 23.4827 30.2573 20.5717C30.2573 17.4374 26.1141 12.8275 25.6408 12.312H25.643C25.4689 12.1356 25.2323 12.0352 24.9845 12.0352C24.7367 12.0352 24.5001 12.1356 24.326 12.312C23.8527 12.8276 19.7095 17.4375 19.7095 20.5717H19.7117C19.7139 23.4827 22.0734 25.8423 24.9845 25.8468ZM24.9845 14.2765C26.344 15.9039 28.4737 18.826 28.4737 20.5742V20.572C28.4737 22.4985 26.911 24.0612 24.9845 24.0612C23.0579 24.0612 21.4952 22.4985 21.4952 20.572C21.4952 18.8263 23.6249 15.9019 24.9845 14.2742V14.2765Z" fill="black"/>
<path d="M9.73727 23.3878C12.6483 23.3833 15.0079 21.0237 15.0124 18.1127C15.0124 14.9784 10.8691 10.3685 10.3958 9.85299C10.2217 9.67663 9.98509 9.57617 9.73732 9.57617C9.48953 9.57617 9.2529 9.67663 9.0788 9.85299C8.60554 10.3687 4.46228 14.9808 4.46228 18.1127H4.46451C4.46674 21.0237 6.82623 23.3833 9.73727 23.3878ZM9.73727 11.8175C11.0968 13.4449 13.2265 16.367 13.2265 18.1152V18.113C13.2265 20.0395 11.6638 21.6022 9.73727 21.6022C7.81073 21.6022 6.25029 20.0395 6.25029 18.113C6.25029 16.3673 8.37776 13.4451 9.73727 11.8152V11.8175Z" fill="black"/>
<path d="M40.2318 23.3878C43.1428 23.3833 45.5024 21.0237 45.5046 18.1127C45.5046 14.9784 41.3614 10.3685 40.8881 9.85299H40.8904C40.7162 9.67663 40.4796 9.57617 40.2318 9.57617C39.984 9.57617 39.7474 9.67663 39.5733 9.85299C39.1 10.3687 34.9568 14.9808 34.9568 18.1127C34.9613 21.0237 37.3207 23.3833 40.2318 23.3878ZM40.2318 11.8175C41.5913 13.4449 43.721 16.367 43.721 18.1152L43.7187 18.113C43.7187 20.0395 42.1583 21.6022 40.2318 21.6022C38.3052 21.6022 36.7426 20.0395 36.7426 18.113C36.7426 16.3673 38.8723 13.4451 40.2318 11.8152L40.2318 11.8175Z" fill="black"/>
<path d="M0.895077 28.5398H49.0742C49.5608 28.5331 49.9538 28.1357 49.9538 27.6469C49.9538 27.158 49.5609 26.7606 49.0742 26.7539H0.895077C0.408422 26.7606 0.0155029 27.158 0.0155029 27.6469C0.0155029 28.1357 0.408399 28.5331 0.895077 28.5398Z" fill="black"/>
<path d="M16.4214 11.4303C16.7407 11.6513 17.1648 11.6468 17.4796 11.4236L20.6473 9.05061C21.0313 8.75147 21.105 8.20007 20.8125 7.81163C20.5201 7.42097 19.9709 7.33614 19.5758 7.62188L17.8256 8.93453L17.7609 0.886865C17.7676 0.648001 17.6738 0.415835 17.5041 0.248402C17.3323 0.0809734 17.1001 -0.00832122 16.8612 0.000611101C16.3679 0.00507612 15.9727 0.406903 15.975 0.900244L16.0397 8.95019L14.1935 7.61303H14.1958C13.7962 7.33399 13.247 7.42774 12.9612 7.82064C12.6755 8.21577 12.7581 8.76491 13.1465 9.05739L16.4214 11.4303Z" fill="black"/>
<path d="M32.6081 11.4294C32.9273 11.6504 33.3515 11.6459 33.6662 11.4227L36.834 9.04972C37.2179 8.75058 37.2916 8.19917 36.9992 7.81074C36.7067 7.42007 36.1575 7.33524 35.7624 7.62099L34.0122 8.93363L33.9475 0.888254V0.886022C33.943 0.392669 33.5412 -0.00246712 33.0479 0.00199047C32.5567 0.00645549 32.1594 0.408282 32.1616 0.899394L32.2263 8.94934L30.3802 7.61218H30.3824C29.9828 7.33314 29.4336 7.42689 29.1479 7.81979C28.8621 8.21492 28.9447 8.76406 29.3332 9.05654L32.6081 11.4294Z" fill="black"/>
<path d="M49.0715 42.4311C42.7966 42.3262 42.756 48.0768 37.0234 48.2128C31.2931 48.0789 31.2503 42.326 24.9754 42.4311C18.7045 42.3262 18.6645 48.0768 12.9365 48.2128C7.20616 48.0789 7.16559 42.326 0.89296 42.4311H0.895192C0.658563 42.4311 0.43086 42.5249 0.261186 42.6923C0.0937578 42.8597 0 43.0874 0 43.3241C0 43.5607 0.0937578 43.7884 0.261186 43.9559C0.430849 44.1233 0.658546 44.217 0.895192 44.217C3.54723 44.217 4.82193 45.4404 6.2975 46.8579H6.29974C7.92939 48.847 10.3671 49.9989 12.9364 49.9989C15.5081 49.9989 17.9458 48.847 19.5754 46.8579C22.6783 43.3219 27.2813 43.3308 30.3821 46.8579V46.8602C32.014 48.8492 34.4518 50.0011 37.0257 50.0011C39.5974 50.0011 42.0351 48.847 43.6669 46.8579C45.1447 45.4404 46.4194 44.217 49.0714 44.217C49.5603 44.2103 49.9532 43.813 49.9532 43.3241C49.9532 42.8352 49.5604 42.4378 49.0715 42.4311Z" fill="black"/>
<path d="M49.967 32.3871C49.967 31.8937 49.5674 31.4941 49.0741 31.4941C45.7055 31.4941 43.9687 33.1617 42.4351 34.6329C39.6358 37.8832 35.0413 38.2805 32.0593 35.0503V35.0481C31.7021 34.711 31.1373 34.7266 30.798 35.0838C30.4609 35.441 30.4743 36.0058 30.8315 36.3451C32.5102 38.1443 34.8855 39.1311 37.3475 39.0507C39.8076 38.9703 42.1136 37.8274 43.6693 35.9187C45.1471 34.5011 46.4218 33.2778 49.0716 33.2778L49.0739 33.28C49.5672 33.28 49.967 32.8782 49.967 32.3871Z" fill="black"/>
<path d="M19.1645 35.0726C19.0015 34.9007 18.7761 34.8003 18.5394 34.7958C18.3028 34.7891 18.0751 34.8762 17.9032 35.0391C14.9073 38.2806 10.3424 37.8854 7.53815 34.6329C6.00451 33.1617 4.26548 31.4941 0.89691 31.4941C0.410255 31.5031 0.0218506 31.9004 0.0218506 32.3871C0.0218506 32.8715 0.410284 33.2689 0.89691 33.28C6.6272 33.414 6.67006 39.1669 12.9404 39.0618V39.0595C15.2978 39.0751 17.5502 38.084 19.1307 36.3361C19.3026 36.1731 19.4031 35.9476 19.4098 35.711C19.4142 35.4743 19.3275 35.2445 19.1645 35.0726Z" fill="black"/>
<path d="M23.853 36.2063C22.7101 35.608 22.1721 37.2175 22.1922 38.0971C22.2123 39.8093 23.6053 41.1867 25.3153 41.1867C27.0275 41.1867 28.4205 39.8093 28.4383 38.0971C28.4651 37.1528 27.8512 35.4875 26.6837 36.1661C26.2774 36.4452 26.1747 37.001 26.4537 37.4073C26.5877 37.6127 26.6569 37.8538 26.6524 38.0971C26.6569 38.4543 26.5185 38.7959 26.2662 39.0481C26.014 39.3004 25.6724 39.4388 25.3152 39.4343C24.5763 39.4343 23.9781 38.836 23.9781 38.0972C23.9803 37.8628 24.0428 37.6328 24.1656 37.4297C24.2861 37.2265 24.3218 36.9832 24.2638 36.7532C24.2035 36.5255 24.0584 36.3268 23.853 36.2063Z" fill="black"/>
<path d="M10.1259 43.3253C10.1437 44.792 11.3358 45.9729 12.8047 45.9729C14.2714 45.9729 15.4634 44.792 15.4813 43.3253C15.4634 41.8587 14.2714 40.6777 12.8047 40.6777C11.3358 40.6777 10.1437 41.8587 10.1259 43.3253ZM13.6954 43.3253C13.6865 43.812 13.2891 44.2004 12.8047 44.2004C12.318 44.2004 11.9207 43.8097 11.9117 43.3253C11.9207 42.8387 12.318 42.4503 12.8047 42.4503C13.2891 42.4503 13.6865 42.8409 13.6954 43.3253Z" fill="black"/>
<path d="M34.4985 43.3253C34.5164 44.792 35.7085 45.9729 37.1774 45.9729C38.644 45.9729 39.8361 44.792 39.854 43.3253C39.8361 41.8587 38.644 40.6777 37.1774 40.6777C35.7085 40.6777 34.5164 41.8587 34.4985 43.3253ZM38.0681 43.3253C38.0592 43.812 37.6618 44.2004 37.1774 44.2004C36.6907 44.2004 36.2933 43.8119 36.2844 43.3253C36.2934 42.8387 36.6907 42.4503 37.1774 42.4503C37.6618 42.4503 38.0592 42.8387 38.0681 43.3253Z" fill="black"/>
<path d="M3.64294 39.6826C3.65187 40.292 4.14969 40.7809 4.75911 40.7809C5.36853 40.7809 5.86637 40.2921 5.87528 39.6804C5.86635 39.0709 5.36853 38.582 4.75911 38.582C4.14969 38.582 3.65186 39.0709 3.64294 39.6826Z" fill="black"/>
<path d="M45.4774 39.6809C45.4841 40.2904 45.9819 40.7815 46.5914 40.7815C47.203 40.7815 47.6986 40.2904 47.7075 39.6787C47.6986 39.0693 47.203 38.5781 46.5914 38.5781C45.9819 38.5781 45.4841 39.0693 45.4774 39.6809Z" fill="black"/>
</svg>
