<svg width="80" height="80" viewBox="0 0 80 80" fill="none" xmlns="http://www.w3.org/2000/svg">
<path d="M68.75 21.5059L60.8333 16.9357V7.79519C60.8333 6.90331 60.3581 6.07651 59.5833 5.62727L50.4167 0.334463C49.6419 -0.111488 48.6914 -0.111488 47.9167 0.334463L40 4.90788L32.0833 0.334463C31.3086 -0.111488 30.3581 -0.111488 29.5833 0.334463L20.4167 5.62727C19.6419 6.07322 19.1667 6.89998 19.1667 7.79519V16.9357L11.25 21.5059C10.4785 21.9518 10 22.7753 10 23.6673V34.2494C10 35.1413 10.4753 35.9681 11.25 36.4173L19.1667 40.9907V50.1312C19.1667 51.0231 19.6419 51.8499 20.4167 52.2992L29.5833 57.592C31.3835 58.6369 32.4967 60.5606 32.5 62.6406V72.5003C32.5 76.644 35.8561 80 40 80C44.1439 80 47.5 76.644 47.5 72.5003V62.644C47.5033 60.5607 48.6132 58.6369 50.4167 57.5921L59.5833 52.2993C60.3581 51.8533 60.8333 51.0265 60.8333 50.1313V40.9908L68.75 36.4174C69.5247 35.9715 70 35.1447 70 34.2495V23.6674C70 22.7755 69.5215 21.9518 68.75 21.5059ZM49.1667 5.38978L55.8333 9.23731V16.9356L49.1667 20.7831L42.5 16.9356V9.23731L49.1667 5.38978ZM40 36.6612L33.3333 32.8136V25.1153L40 21.2678L46.6667 25.1153V32.8136L40 36.6612ZM24.1667 9.24047L30.8333 5.39295L37.5 9.24047V16.9388L30.8333 20.7863L24.1667 16.9388V9.24047ZM15 25.1157L21.6667 21.2682L28.3333 25.1157V32.814L21.6667 36.6616L15 32.814V25.1157ZM24.1667 48.689V40.9907L30.8333 37.1432L37.5 40.9907V48.689L30.8333 52.5366L24.1667 48.689ZM42.5 72.4999C42.5 73.88 41.3802 74.9998 40 74.9998C38.6198 74.9998 37.5 73.88 37.5 72.4999V62.6435C37.4967 60.173 36.6504 57.7739 35.0977 55.8502L40 53.0183L44.9023 55.847C43.3528 57.7707 42.5032 60.1697 42.5 62.6403V72.4999ZM55.8333 48.689L49.1667 52.5366L42.5 48.689V40.9907L49.1667 37.1432L55.8333 40.9907V48.689ZM65 32.8138L58.3333 36.6613L51.6667 32.8138V25.1155L58.3333 21.268L65 25.1155V32.8138Z" fill="#47382A"/>
</svg>
