<svg width="120" height="120" viewBox="0 0 120 120" fill="none" xmlns="http://www.w3.org/2000/svg">
<path fill-rule="evenodd" clip-rule="evenodd" d="M89.9309 97.0933C90.7149 96.4213 91.8962 96.5133 92.5668 97.2987C93.2388 98.0827 93.1468 99.264 92.3615 99.9347L81.1497 109.564C79.547 110.941 77.8724 110.885 76.3737 109.952C76.2031 109.845 76.0351 109.725 75.8724 109.595L62.1406 109.749C62.0992 109.749 62.1099 110.264 61.9926 110.947C61.8992 111.489 61.8592 112.08 61.8726 112.669C61.8859 113.279 61.9512 113.892 62.0672 114.463C62.2592 115.404 62.4579 116.175 62.5739 116.252H92.2468C92.5588 116.135 93.3855 114.609 94.0375 113.405C94.1175 113.257 94.1908 113.121 94.4655 112.636L94.4628 112.633L103.969 95.468C104.092 95.2467 104.253 95.0613 104.439 94.9133H104.437L107.091 92.796L99.0441 78.86L98.8508 79.0253C98.6441 79.2253 98.3868 79.3787 98.0908 79.468L92.3668 81.1813C92.0429 81.2773 91.7642 81.3813 91.5549 81.5227C91.3869 81.636 91.2295 81.808 91.0735 82.0787L83.5563 95.1947H83.5536C83.4496 95.3747 83.3136 95.5413 83.1456 95.684L77.247 100.751C76.3591 101.513 76.4577 103.273 77.0084 104.775C77.195 105.281 77.423 105.733 77.6777 106.093C77.7604 106.211 77.8457 106.319 77.9324 106.413L77.9897 106.476C78.107 106.599 78.227 106.699 78.3484 106.773C78.455 106.84 78.5817 106.836 78.715 106.721L89.9269 97.092L89.9309 97.0933ZM24.465 17.1627C23.7317 16.4347 23.729 15.2507 24.457 14.5187C25.185 13.7867 26.369 13.7827 27.101 14.5107L35.6036 22.9947C36.3356 23.7227 36.3382 24.9067 35.6116 25.6387C34.8836 26.3707 33.6996 26.3733 32.9676 25.6453L24.465 17.1627ZM92.0242 14.5107C92.7562 13.7827 93.9415 13.7867 94.6682 14.5187C95.3961 15.2507 95.3935 16.4333 94.6615 17.1627L86.1603 25.6453C85.4283 26.3733 84.2443 26.3707 83.5163 25.6387C82.7883 24.9067 82.791 23.7227 83.523 22.9947L92.0242 14.5107ZM57.6886 1.876C57.6886 0.84 58.5273 0 59.5633 0C60.5992 0 61.4379 0.84 61.4379 1.876V13.8707C61.4379 14.908 60.5979 15.7467 59.5633 15.7467C58.5286 15.7467 57.6886 14.908 57.6886 13.8707V1.876ZM77.9897 46.0187C78.863 45.4693 80.0177 45.7293 80.5683 46.604C81.119 47.4787 80.8563 48.6307 79.983 49.1827C78.7257 49.9707 77.483 50.668 76.2164 51.3787C73.9524 52.648 71.6071 53.964 69.5671 55.5613C71.1391 55.736 72.5951 55.7733 73.9364 55.684C77.319 55.4573 79.9617 54.4147 81.9003 52.6627C83.8523 50.9 85.1549 48.3693 85.8403 45.188C86.2189 43.4253 86.4083 41.472 86.4136 39.34C81.675 41.556 77.9057 42.792 74.9471 43.7627C69.3725 45.5907 67.2245 46.2973 67.2045 52.648C69.4578 50.8747 71.9644 49.4693 74.3831 48.112C75.6617 47.3947 76.915 46.6907 77.9884 46.0187H77.9897ZM66.2432 58.8453L61.4392 64.6213V78.7867C65.5952 79.0693 69.5538 80.1053 73.1778 81.7613C76.863 83.4453 80.1937 85.7707 83.0243 88.5933L87.8256 80.2187C88.2922 79.404 88.8389 78.84 89.4642 78.4173C90.0482 78.0227 90.6509 77.7867 91.3015 77.592L96.6468 75.9907L97.1428 75.564L95.1028 72.032C94.6895 71.3187 94.7868 70.3893 95.3961 69.776L116.805 48.3187C117.533 47.5853 118.717 47.5827 119.449 48.3107C120.181 49.0387 120.184 50.2227 119.456 50.9547L103.951 66.4947L119.624 93.64C120.135 94.5227 119.844 95.648 118.977 96.1747L113.536 99.8107C113.483 99.8493 113.427 99.8867 113.368 99.92C112.473 100.439 111.329 100.133 110.812 99.2387L108.984 96.072L107.055 97.6107L97.7294 114.448H97.7268L97.3321 115.175C96.2441 117.183 94.8628 119.735 92.5722 119.975C92.4748 119.989 92.3735 120 92.2722 120H62.6139C62.5392 120 62.4659 119.995 62.3939 119.985C61.4326 119.931 60.6352 119.477 60.0006 118.759C59.3659 119.477 58.5686 119.931 57.6073 119.985C57.534 119.995 57.4606 120 57.3873 120H27.7303C27.6277 120 27.5277 119.991 27.429 119.975C25.1384 119.735 23.757 117.183 22.6691 115.175C22.4624 114.795 22.2984 114.487 22.2797 114.455L22.2744 114.447H22.2717L12.9465 97.6107L11.0159 96.072L9.18789 99.2387C8.66923 100.133 7.52525 100.437 6.63192 99.92C6.57326 99.8853 6.51726 99.8493 6.46393 99.8107L1.02133 96.1747C0.154672 95.648 -0.135991 94.5227 0.374669 93.64L16.0491 66.4947L0.544001 50.9547C-0.18399 50.2227 -0.181324 49.0387 0.552 48.3107C1.28399 47.5827 2.46798 47.5867 3.19597 48.3187L24.605 69.776C25.2144 70.388 25.3117 71.3173 24.8984 72.032L22.8584 75.564L23.3557 75.9907L28.701 77.592C29.353 77.788 29.9556 78.0227 30.5383 78.4173C31.1636 78.84 31.7103 79.404 32.1769 80.2187L36.3556 87.5093C39.0928 85.0227 42.2448 82.9747 45.6981 81.4827C49.4087 79.8787 53.45 78.9173 57.6833 78.7387V64.6213L52.878 58.8453C49.9567 59.3973 47.3114 59.58 44.9368 59.42C40.6848 59.1347 37.2902 57.7573 34.7156 55.4333C32.1543 53.1187 30.469 49.916 29.6183 45.9653C29.005 43.1147 28.8263 39.864 29.0663 36.2707C29.1343 35.2387 30.0263 34.4573 31.0583 34.5267C31.3489 34.5453 31.6183 34.6307 31.8556 34.764C37.5489 37.652 41.9781 39.104 45.3301 40.2027C53.942 43.028 56.4313 43.8467 55.5233 56.1853L59.5579 61.036L63.5925 56.1853C62.6832 43.8467 65.1739 43.028 73.7844 40.2027C77.1364 39.104 81.5657 37.6507 87.2602 34.764C87.4976 34.6307 87.7669 34.5453 88.0562 34.5267C89.0882 34.4573 89.9802 35.2387 90.0482 36.2707C90.2895 39.864 90.1109 43.1147 89.4962 45.9653C88.6456 49.916 86.9602 53.1187 84.3989 55.4333C81.8243 57.7587 78.4297 59.136 74.1777 59.42C71.8031 59.58 69.1578 59.396 66.2365 58.8453H66.2432ZM39.1449 49.184C38.2715 48.632 38.0089 47.4787 38.5595 46.6053C39.1102 45.7307 40.2635 45.4693 41.1382 46.02C42.2115 46.6933 43.4661 47.396 44.7434 48.1133C47.1634 49.4707 49.6687 50.876 51.922 52.6493C51.902 46.2987 49.754 45.5933 44.1795 43.764C41.2222 42.7933 37.4529 41.5573 32.7143 39.3413C32.7183 41.472 32.9076 43.4267 33.2876 45.1893C33.9729 48.3707 35.2756 50.9013 37.2275 52.664C39.1662 54.416 41.8088 55.4587 45.1914 55.6853C46.5328 55.7747 47.9887 55.7373 49.5607 55.5627C47.5207 53.9653 45.1768 52.6493 42.9115 51.38C41.6448 50.6693 40.4008 49.972 39.1449 49.184ZM18.7891 69.2387L4.49328 93.9987L6.95192 95.6413L20.9477 71.4013L18.7904 69.24L18.7891 69.2387ZM20.9597 78.86L12.9132 92.796L15.5665 94.912H15.5651C15.7518 95.0613 15.9131 95.2467 16.0358 95.468L25.5424 112.633L25.5397 112.636C25.8144 113.121 25.8877 113.257 25.9677 113.405C26.6197 114.608 27.4463 116.135 27.7583 116.252H57.4313C57.5473 116.175 57.7459 115.404 57.9379 114.463C58.0539 113.892 58.1193 113.279 58.1326 112.669C58.1459 112.08 58.1059 111.489 58.0126 110.947C57.8953 110.265 57.9059 109.749 57.8646 109.749L44.1328 109.595C43.9701 109.727 43.8035 109.847 43.6328 109.952C42.1328 110.885 40.4595 110.94 38.8569 109.564L27.645 99.9347C26.8597 99.2627 26.769 98.0827 27.4397 97.2987C28.1117 96.5133 29.2916 96.4227 30.077 97.0933L41.2888 106.723C41.4222 106.837 41.5488 106.841 41.6555 106.775C41.7755 106.699 41.8968 106.6 42.0141 106.477L42.0715 106.415C42.1581 106.32 42.2435 106.211 42.3275 106.095C42.5821 105.735 42.8115 105.283 42.9968 104.776C43.5488 103.273 43.6461 101.513 42.7595 100.752L36.8595 95.6853C36.6915 95.5427 36.5555 95.376 36.4515 95.1947H36.4489L34.7062 92.1573C34.6502 92.116 34.5969 92.0707 34.5436 92.0213C34.2076 91.704 34.0142 91.2933 33.9676 90.8667L28.9303 82.08C28.7756 81.8093 28.617 81.6373 28.449 81.524C28.2397 81.3827 27.961 81.2787 27.637 81.1827L21.9131 79.4693C21.6184 79.3813 21.3611 79.228 21.1531 79.0267L20.9597 78.86ZM38.2715 90.8427C40.8502 88.3653 43.8635 86.3453 47.1834 84.9107C50.8314 83.3333 54.8687 82.4587 59.1246 82.4587C63.5952 82.4587 67.8272 83.4253 71.6244 85.16C75.2124 86.8 78.4244 89.124 81.091 91.968L80.4643 93.0613L74.8191 97.9093C72.6338 99.7853 72.4884 103.155 73.4351 105.885L62.1152 106.012C61.2712 106.023 60.5712 106.308 60.0059 106.797C59.4406 106.308 58.7406 106.024 57.8966 106.012L46.5768 105.885C47.5221 103.155 47.3767 99.7853 45.1914 97.9093L39.5462 93.0613L38.2742 90.8427H38.2715ZM115.513 93.9973L113.055 95.64L99.0588 71.4L101.216 69.2387L115.512 93.9987L115.513 93.9973Z" fill="white"/>
</svg>
