<svg width="124" height="110" viewBox="0 0 124 110" fill="none" xmlns="http://www.w3.org/2000/svg">
<path d="M109.719 90.9818H100.295C94.6232 90.9818 89.9716 95.6296 89.9716 101.297V104.895H120.042V101.297C120.042 95.6296 115.391 90.9818 109.719 90.9818ZM112.239 87.5934C118.752 88.7928 123.643 94.5201 123.643 101.267V106.664C123.643 107.654 122.833 108.464 121.843 108.464H88.201C87.2106 108.464 86.4003 107.654 86.4003 106.664V101.267C86.4003 94.5201 91.2921 88.7928 97.8043 87.5934C93.873 83.6352 93.873 77.2182 97.8344 73.2901C101.796 69.3319 108.218 69.3319 112.179 73.2901C116.141 77.2482 116.171 83.6352 112.239 87.5934ZM105.007 73.9198C99.1848 73.9198 96.2438 80.9964 100.385 85.1045C104.497 89.2126 111.579 86.274 111.579 80.4867C111.579 76.8584 108.638 73.9198 105.007 73.9198ZM9.78343 11.459C4.41155 11.2791 1.56055 16.9764 5.28185 20.3348C7.38259 22.2539 10.9238 22.4638 13.2046 20.8446C14.195 20.1249 15.5455 20.5447 15.9656 21.6842C17.4061 25.6423 23.4382 26.6619 26.4093 23.2435C27.0995 22.4638 28.2999 22.4039 29.0202 23.1235C31.8112 25.8223 37.2431 24.203 37.2431 20.7546C37.2431 19.7651 36.7929 18.9255 36.0727 18.2958C35.3224 17.6361 35.2924 16.4966 35.9526 15.777C39.0137 12.4185 36.3128 7.29094 31.301 7.29094C29.5904 7.29094 27.9398 7.92064 26.7994 9.0901C25.7791 10.1096 23.9784 9.59986 23.7383 8.10056C23.0481 3.84255 17.016 2.07338 13.5648 5.19192C12.4244 6.24143 11.7041 7.86067 11.9142 9.38996C12.0942 10.6194 11.1339 11.5489 10.0235 11.489L9.78343 11.459ZM8.31292 7.95063C9.06318 0.933912 18.1264 -2.51447 23.9784 2.10336C24.9688 2.883 25.779 3.84255 26.3793 4.92205C32.6515 1.44367 40.8443 5.58174 40.8443 12.5085C40.8443 14.0678 40.3942 15.597 39.5839 16.8864C43.0051 21.7442 39.0737 28.1012 32.5914 28.1012C30.9109 28.1012 29.2603 27.6514 27.8798 26.7818C27.5797 27.0217 27.2496 27.2616 26.8894 27.4715C27.2496 33.2588 28.1799 34.6681 29.0202 35.9275C30.0706 37.5468 31.0009 38.9561 31.0009 44.4436C31.0009 45.4331 30.1906 46.2427 29.2003 46.2427H12.2743C11.1639 46.2427 10.2936 45.2832 10.5337 44.0537C11.1339 39.4659 12.7845 38.0565 14.4051 36.6772C15.8456 35.4478 17.226 34.2483 17.046 27.8613C15.6055 27.1416 14.4051 26.0622 13.5047 24.7728C7.26255 27.3815 0 23.2435 0 16.7365C0 12.0887 3.78133 8.49038 8.31292 7.95063ZM23.4082 28.7609C22.5079 28.9108 21.5776 28.9408 20.6773 28.8508C20.7073 39.9457 16.0256 37.6967 14.4951 42.6144H27.3696C27.0095 36.0475 24.2485 39.286 23.4082 28.7609ZM84.6897 79.3472C83.2192 78.0278 81.3286 77.1582 79.3479 76.6485C77.1571 76.0788 75.8666 75.8389 75.0564 75.7189C73.0456 75.3591 72.4154 75.0892 71.7852 73.35C71.5451 72.6903 71.125 71.4909 69.5944 69.152C69.2943 68.7022 69.0242 68.6722 68.454 68.9421C67.2236 69.5118 65.7231 71.341 65.6931 72.5404C65.423 80.3068 63.5023 78.4476 58.0404 81.6261C56.1197 82.7356 55.8496 85.2544 56.0897 87.3535C66.5334 90.0222 77.3972 86.8437 84.6897 79.3472ZM53.1186 82.1059C53.7189 80.6366 54.7392 79.3472 56.2097 78.4776C57.7703 77.578 58.9407 77.0983 59.871 76.7085C60.8314 76.3186 61.3715 76.0788 61.7017 75.2391V52.1799C59.5409 51.6102 58.2204 49.871 59.2408 47.862C59.6309 47.1123 60.4412 46.3027 61.7017 45.4931V41.0252C57.8003 40.9652 53.989 40.6953 50.2676 40.2155C48.9772 42.9443 47.9568 46.0628 47.2666 49.4512C47.0865 50.4108 46.1262 51.0704 45.1659 50.8605C44.2055 50.6507 43.5453 49.7211 43.7554 48.7615C44.4156 45.4631 45.3759 42.4045 46.5764 39.6458C44.9858 39.3759 43.4252 39.0461 41.9547 38.7162C38.8036 42.1046 36.4028 46.2427 35.1123 50.8006C38.8636 50.7706 43.5753 52.4498 46.1262 51.2204C49.0972 49.7811 52.4584 48.8815 54.229 50.9505C55.8496 52.8396 54.8893 55.5683 53.5988 57.6674C52.8786 58.8668 49.6974 64.1743 44.3856 64.804C41.6846 65.1039 42.1948 68.6123 43.6653 68.5523C47.2066 68.4023 48.557 70.8612 46.7564 74.1596C47.6867 73.6799 48.8572 74.1297 49.2473 75.0892C50.2977 77.668 51.5881 80.0369 53.1186 82.1059ZM65.3329 66.6931C67.7038 64.774 70.8249 64.3842 72.6255 67.1729C74.3661 69.8717 74.9063 71.311 75.1764 72.1206L75.0864 72.1506C75.1764 72.1506 75.2664 72.0906 75.6866 72.1806C76.3468 72.3005 77.2771 72.4804 78.5676 72.7803C80.3682 67.1129 80.9384 60.9358 80.4883 54.9087C80.3982 53.9191 81.1485 53.0495 82.1388 52.9896C83.1292 52.9296 83.9995 53.6492 84.0595 54.6688C84.5397 61.1157 83.9095 67.6827 82.0188 73.7398C83.8494 74.3995 85.56 75.3591 87.0005 76.6485C89.5514 73.2901 91.4121 69.3919 92.3124 65.1339C89.2513 64.2043 86.9405 61.4756 87.0005 58.1471C87.1206 53.6193 78.7777 50.9505 75.4765 50.3808C69.6845 54.9386 69.6845 52.03 67.4937 52.3299C66.7134 52.4498 65.9932 52.5098 65.3029 52.5398V66.6931H65.3329ZM75.0263 72.1206L75.1164 72.1506C75.0263 72.1206 74.8763 72.0007 75.0263 72.1206ZM75.4765 31.8794L73.6459 35.1479C72.3854 37.3369 72.5955 38.3264 72.7756 39.1061C73.3457 41.7448 73.4358 43.0342 64.3126 48.1618C63.8324 48.4317 63.4423 48.6716 63.1722 48.8815C64.2225 49.0614 65.8131 48.9714 67.0735 48.7915C68.6341 48.5816 69.4744 48.9414 70.1946 49.2113C70.6148 49.3912 70.9449 49.5112 73.8259 47.1723C74.186 46.8724 74.6362 46.7525 75.1464 46.7525C75.8066 46.7825 78.3575 47.2322 81.0585 48.1918C85.47 49.7811 90.8119 52.8696 90.6618 58.2671C90.6018 59.7064 91.6522 60.9358 92.9126 61.5056C94.053 48.7016 86.8505 36.9171 75.4765 31.8794ZM65.3329 43.394C67.4937 42.1046 68.5141 41.385 68.9642 40.9052L65.3329 41.0252V43.394ZM69.0542 37.3069C69.3243 35.028 71.0049 32.5691 72.0853 30.62C69.9246 29.9603 67.6738 29.5405 65.3329 29.4206V37.4568L69.0542 37.3069ZM45.1959 35.7476C46.2162 35.9575 47.2666 36.1374 48.317 36.2874C49.2473 34.6981 50.2676 33.2588 51.378 31.9394C49.1573 32.9589 47.0865 34.2483 45.1959 35.7476ZM52.2183 36.8271C55.3094 37.1869 58.4005 37.3669 61.7317 37.4268V29.5105C57.8303 30.2302 54.5592 33.2288 52.2183 36.8271ZM51.378 85.6742C49.0672 83.0355 47.2666 79.797 45.9461 76.4086C45.8561 76.1687 45.8261 75.9288 45.8261 75.6889C44.8958 76.9783 43.6953 78.3577 42.5549 79.5571C45.1058 82.0759 48.0769 84.1749 51.378 85.6742ZM40.2141 76.8284C41.5946 75.3591 42.825 73.8898 43.6053 72.5404C43.6953 72.3905 43.7554 72.2705 43.8154 72.1506C37.7533 72.3605 36.8529 62.0753 44.0255 61.2357C47.6567 60.8159 50.0576 56.6778 50.6578 55.6883C51.198 54.8187 51.4981 54.0091 51.4981 53.4094C51.4981 53.2294 51.5881 53.3494 51.4081 53.3494C50.6878 53.2894 49.4874 53.6193 47.6867 54.4589C43.4553 56.4979 38.5035 54.099 34.3321 54.4289C33.1616 62.5551 35.3824 70.5913 40.2141 76.8284ZM86.9105 82.1959C74.006 95.1198 53.0586 95.1198 40.1241 82.1959C27.2196 69.2719 27.2196 48.3717 40.1241 35.4478C53.0586 22.5238 74.006 22.5238 86.9105 35.4478C99.8451 48.3417 99.8451 69.2719 86.9105 82.1959ZM110.469 50.8006C106.297 26.2121 83.6694 8.91018 58.6406 11.459C55.9697 11.7289 53.3287 12.2386 50.7778 12.9283L51.9482 15.3871C67.0135 11.369 83.0392 15.4771 94.2931 26.0622C101.316 32.6891 106.147 41.4749 107.828 51.2204C108.008 52.2099 107.318 53.1395 106.327 53.2894L104.437 53.5893L110.979 61.7455L114.79 52L112.54 52.3299C111.519 52.5098 110.619 51.8201 110.469 50.8006ZM98.6446 21.5643C106.237 28.7309 111.579 38.1165 113.71 48.5516L117.311 48.0119C118.632 47.802 119.772 49.1214 119.262 50.4407L113.23 65.9135C112.72 67.2929 110.979 67.5028 110.139 66.4533L99.755 53.5293C98.8247 52.4198 99.3949 50.7706 100.805 50.5307L103.956 50.0509C99.545 29.7504 80.6083 15.717 59.691 17.6361C56.93 17.906 54.229 18.4157 51.6181 19.1954C50.7478 19.4952 49.7875 19.1354 49.3673 18.2958L46.5163 12.3586C46.2162 11.429 46.7264 10.4095 47.6867 10.1096C65.513 4.32233 85.0799 8.76025 98.6446 21.5643ZM16.5958 66.8131C20.7973 91.5215 43.3952 108.733 68.394 106.155C71.095 105.885 73.7059 105.375 76.2568 104.655L75.0864 102.197C49.7275 108.973 23.6783 92.571 19.2067 66.3633C19.0267 65.3738 19.7169 64.4442 20.7073 64.2943L22.5979 63.9944L16.0556 55.8382L12.2443 65.5837L14.4951 65.2238C15.5455 65.1039 16.4458 65.7936 16.5958 66.8131ZM28.36 96.0794C20.8273 88.9727 15.4854 79.6171 13.3547 69.092L9.75342 69.6318C8.43296 69.8417 7.32257 68.5223 7.80274 67.2029L13.8349 51.7301C14.345 50.3508 16.0856 50.1409 16.9259 51.1904L27.3096 64.1143C28.2399 65.2238 27.6697 66.8731 26.2592 67.1129L23.1081 67.5927C27.5197 88.0132 46.5463 101.927 67.3436 100.008C70.1046 99.7377 72.8356 99.2279 75.4465 98.4183C76.3168 98.1184 77.2771 98.4783 77.6973 99.3179L80.5183 105.225C80.8184 106.155 80.3082 107.174 79.3779 107.474C61.5516 113.291 41.9247 108.883 28.36 96.0794Z" fill="white"/>
</svg>
