<svg width="120" height="120" viewBox="0 0 120 120" fill="none" xmlns="http://www.w3.org/2000/svg">
<path d="M106.485 94.9219H97.3398C91.835 94.9219 87.3204 99.4328 87.3204 104.933V108.425H116.505V104.933C116.505 99.4328 111.99 94.9219 106.485 94.9219ZM108.932 91.6333C115.252 92.7974 120 98.356 120 104.904V110.142C120 111.103 119.214 111.889 118.252 111.889H85.6019C84.6408 111.889 83.8544 111.103 83.8544 110.142V104.904C83.8544 98.356 88.6019 92.7974 94.9223 91.6333C91.1068 87.7918 91.1068 81.5639 94.9515 77.7515C98.7961 73.91 105.029 73.91 108.874 77.7515C112.718 81.593 112.748 87.7918 108.932 91.6333ZM101.913 78.3627C96.2621 78.3627 93.4078 85.2308 97.4272 89.2178C101.417 93.2049 108.291 90.3528 108.291 84.7361C108.291 81.2147 105.437 78.3627 101.913 78.3627ZM9.49515 17.7424C4.28155 17.5678 1.51456 23.0973 5.12621 26.3567C7.16505 28.2193 10.6019 28.423 12.8155 26.8515C13.7767 26.153 15.0874 26.5604 15.4951 27.6663C16.8932 31.5078 22.7476 32.4973 25.6311 29.1797C26.301 28.423 27.466 28.3648 28.165 29.0632C30.8738 31.6825 36.1456 30.1109 36.1456 26.7642C36.1456 25.8038 35.7087 24.9889 35.0097 24.3778C34.2816 23.7375 34.2524 22.6316 34.8932 21.9332C37.8641 18.6737 35.2427 13.6972 30.3786 13.6972C28.7184 13.6972 27.1165 14.3083 26.0097 15.4433C25.0194 16.4328 23.2718 15.9381 23.0388 14.483C22.3689 10.3504 16.5146 8.63338 13.165 11.66C12.0583 12.6786 11.3592 14.2501 11.5631 15.7344C11.7379 16.9276 10.8058 17.8297 9.72816 17.7715L9.49515 17.7424ZM8.06796 14.3374C8.79612 7.52749 17.5922 4.18071 23.2718 8.66248C24.233 9.41914 25.0194 10.3504 25.6019 11.3981C31.6893 8.02223 39.6408 12.0384 39.6408 18.761C39.6408 20.2743 39.2039 21.7585 38.4175 23.0099C41.7379 27.7245 37.9223 33.8942 31.6311 33.8942C30 33.8942 28.3981 33.4577 27.0583 32.6137C26.767 32.8465 26.4466 33.0794 26.0971 33.2831C26.4466 38.8998 27.3495 40.2677 28.165 41.49C29.1845 43.0615 30.0874 44.4293 30.0874 49.755C30.0874 50.7154 29.301 51.5012 28.3398 51.5012H11.9126C10.835 51.5012 9.99029 50.5699 10.2233 49.3767C10.8058 44.924 12.4078 43.5562 13.9806 42.2175C15.3786 41.0243 16.7184 39.8602 16.5437 33.6614C15.1456 32.963 13.9806 31.9153 13.1068 30.6639C7.04854 33.1958 0 29.1796 0 22.8644C0 18.3536 3.6699 14.8613 8.06796 14.3374ZM22.7184 34.5345C21.8447 34.68 20.9417 34.7091 20.068 34.6218C20.0971 45.3897 15.5534 43.207 14.068 47.9798H26.5631C26.2136 41.6064 23.534 44.7494 22.7184 34.5345ZM82.1942 83.6302C80.767 82.3497 78.932 81.5057 77.0097 81.011C74.8835 80.458 73.6311 80.2252 72.8447 80.1088C70.8932 79.7596 70.2816 79.4977 69.6699 77.8097C69.4369 77.1695 69.0291 76.0054 67.5437 73.7354C67.2524 73.2989 66.9903 73.2697 66.4369 73.5317C65.2427 74.0846 63.7864 75.8599 63.7573 77.024C63.4951 84.5615 61.6311 82.7571 56.3301 85.842C54.466 86.9187 54.2039 89.3633 54.4369 91.4005C64.5728 93.9906 75.1165 90.9058 82.1942 83.6302ZM51.5534 86.3076C52.1359 84.8816 53.1262 83.6302 54.5534 82.7862C56.068 81.9131 57.2039 81.4475 58.1068 81.0692C59.0388 80.6908 59.5631 80.458 59.8835 79.6432V57.2634C57.7864 56.7105 56.5049 55.0226 57.4951 53.0727C57.8738 52.3451 58.6602 51.5594 59.8835 50.7736V46.4374C56.0971 46.3792 52.3981 46.1172 48.7864 45.6516C47.534 48.2999 46.5437 51.3266 45.8738 54.6151C45.699 55.5464 44.767 56.1867 43.835 55.9829C42.9029 55.7792 42.2621 54.877 42.466 53.9458C43.1068 50.7445 44.0388 47.7761 45.2039 45.0986C43.6602 44.8367 42.1456 44.5166 40.7184 44.1965C37.6602 47.485 35.3301 51.5012 34.0777 55.9247C37.7184 55.8956 42.2913 57.5254 44.767 56.3322C47.6505 54.9352 50.9126 54.0622 52.6311 56.0702C54.2039 57.9037 53.2718 60.552 52.0194 62.5892C51.3204 63.7533 48.233 68.9044 43.0777 69.5155C40.4563 69.8066 40.9515 73.2115 42.3786 73.1533C45.8155 73.0078 47.1262 75.3942 45.3786 78.5955C46.2816 78.1298 47.4175 78.5664 47.7961 79.4977C48.8155 82.0005 50.068 84.2995 51.5534 86.3076ZM63.4078 71.349C65.7087 69.4864 68.7379 69.1081 70.4854 71.8146C72.1748 74.4338 72.699 75.8308 72.9612 76.6165L72.8738 76.6456C72.9612 76.6456 73.0485 76.5874 73.4563 76.6747C74.0971 76.7911 75 76.9657 76.2524 77.2568C78 71.7564 78.5534 65.7613 78.1165 59.9118C78.0291 58.9514 78.7573 58.1074 79.7185 58.0492C80.6796 57.991 81.5243 58.6895 81.5825 59.6789C82.0486 65.9359 81.4369 72.3094 79.6019 78.188C81.3786 78.8283 83.0388 79.7596 84.4369 81.011C86.9126 77.7515 88.7184 73.9682 89.5922 69.8357C86.6214 68.9335 84.3786 66.2852 84.4369 63.0548C84.5534 58.6604 76.4563 56.0702 73.2524 55.5173C67.6311 59.9409 67.6311 57.1179 65.5049 57.409C64.7476 57.5254 64.0485 57.5836 63.3786 57.6127V71.349H63.4078ZM72.8155 76.6165L72.9029 76.6456C72.8155 76.6165 72.6699 76.5001 72.8155 76.6165ZM73.2524 37.5611L71.4757 40.7333C70.2524 42.8578 70.4563 43.8181 70.6311 44.5748C71.1845 47.1358 71.2718 48.3872 62.4175 53.3637C61.9515 53.6256 61.5728 53.8585 61.3107 54.0622C62.3301 54.2368 63.8738 54.1495 65.0971 53.9749C66.6117 53.7712 67.4272 54.1204 68.1262 54.3823C68.534 54.5569 68.8544 54.6733 71.6505 52.4033C72 52.1123 72.4369 51.9959 72.932 51.9959C73.5728 52.025 76.0486 52.4615 78.6699 53.3928C82.9515 54.9353 88.1359 57.9328 87.9903 63.1712C87.932 64.5681 88.9515 65.7613 90.1748 66.3143C91.2816 53.8876 84.2913 42.4503 73.2524 37.5611ZM63.4078 48.7364C65.5049 47.485 66.4951 46.7866 66.932 46.3209L63.4078 46.4374V48.7364ZM67.0194 42.8287C67.2816 40.6169 68.9126 38.2305 69.9612 36.3388C67.8641 35.6986 65.6796 35.2911 63.4078 35.1747V42.9742L67.0194 42.8287ZM43.8641 41.3153C44.8544 41.5191 45.8738 41.6937 46.8932 41.8392C47.7961 40.2968 48.7864 38.8998 49.8641 37.6193C47.7087 38.6088 45.699 39.8602 43.8641 41.3153ZM50.6796 42.363C53.6796 42.7123 56.6796 42.8869 59.9126 42.9451V35.262C56.1262 35.9605 52.9515 38.8707 50.6796 42.363ZM49.8641 89.7708C47.6214 87.2098 45.8738 84.0667 44.5922 80.7782C44.5049 80.5453 44.4757 80.3125 44.4757 80.0797C43.5728 81.3311 42.4078 82.6698 41.301 83.8339C43.7767 86.2785 46.6602 88.3157 49.8641 89.7708ZM39.0291 81.1856C40.3689 79.7596 41.5631 78.3336 42.3204 77.024C42.4078 76.8784 42.466 76.762 42.5243 76.6456C36.6408 76.8493 35.767 66.8672 42.7282 66.0524C46.2524 65.6449 48.5825 61.6288 49.1651 60.6684C49.6893 59.8244 49.9806 59.0387 49.9806 58.4566C49.9806 58.282 50.068 58.3984 49.8932 58.3984C49.1942 58.3402 48.0291 58.6604 46.2816 59.4752C42.1748 61.4542 37.3689 59.126 33.3204 59.4461C32.1845 67.3329 34.3398 75.1323 39.0291 81.1856ZM84.3495 86.3949C71.8252 98.938 51.4951 98.938 38.9417 86.3949C26.4175 73.8518 26.4175 53.5674 38.9417 41.0243C51.4951 28.4812 71.8252 28.4812 84.3495 41.0243C96.9029 53.5383 96.9029 73.8518 84.3495 86.3949ZM107.214 55.9247C103.165 32.0608 81.2039 15.2687 56.9126 17.7424C54.3204 18.0043 51.7573 18.4991 49.2816 19.1684L50.4175 21.5548C65.0388 17.6551 80.5922 21.6421 91.5146 31.9153C98.3301 38.3469 103.019 46.8739 104.65 56.3322C104.825 57.2925 104.155 58.1947 103.194 58.3402L101.359 58.6313L107.709 66.5471L111.408 57.0888L109.223 57.409C108.233 57.5836 107.359 56.9142 107.214 55.9247ZM95.7379 27.5499C103.107 34.5054 108.291 43.6144 110.359 53.7421L113.854 53.2182C115.136 53.0145 116.243 54.295 115.748 55.5755L109.893 70.5923C109.398 71.931 107.709 72.1348 106.893 71.1162L96.8155 58.5731C95.9126 57.4963 96.466 55.8956 97.835 55.6628L100.893 55.1972C96.6117 35.4949 78.233 21.875 57.932 23.7375C55.2524 23.9994 52.6311 24.4942 50.0971 25.2508C49.2524 25.5419 48.3204 25.1926 47.9126 24.3778L45.1456 18.6155C44.8544 17.7133 45.3495 16.7238 46.2816 16.4328C63.5825 10.8161 82.5728 15.1232 95.7379 27.5499ZM16.1068 71.4654C20.1845 95.4457 42.1165 112.151 66.3786 109.648C69 109.386 71.534 108.891 74.0097 108.193L72.8738 105.806C48.2621 112.383 22.9806 96.4643 18.6408 71.0289C18.466 70.0685 19.1359 69.1663 20.0971 69.0208L21.932 68.7298L15.5825 60.8139L11.8835 70.2722L14.068 69.923C15.0874 69.8066 15.9612 70.4759 16.1068 71.4654ZM27.5243 99.8693C20.2136 92.972 15.0291 83.8921 12.9612 73.6772L9.46602 74.201C8.18447 74.4047 7.1068 73.1242 7.57282 71.8437L13.4272 56.8269C13.9223 55.4882 15.6117 55.2845 16.4272 56.3031L26.5049 68.8462C27.4078 69.923 26.8544 71.5236 25.4854 71.7564L22.4272 72.2221C26.7087 92.0408 45.1748 105.544 65.3592 103.682C68.0388 103.42 70.6893 102.925 73.2233 102.139C74.068 101.848 75 102.197 75.4078 103.012L78.1456 108.746C78.4369 109.648 77.9417 110.637 77.0388 110.928C59.7379 116.574 40.6893 112.296 27.5243 99.8693Z" fill="white"/>
</svg>
