<svg width="121" height="120" viewBox="0 0 121 120" fill="none" xmlns="http://www.w3.org/2000/svg">
<path d="M97.8276 69.4233C107.685 64.4663 118.816 56.9839 115.873 49.4868C114.873 46.9516 112.855 45.1391 110.193 44.3823C106.624 43.3675 102.335 44.4204 98.2877 47.2214C97.1721 46.5899 95.9144 46.2143 94.5816 46.2143C92.7983 46.2143 91.0757 46.8384 89.7339 47.9721L81.2534 55.1284C69.4722 55.7934 62.7358 61.5317 62.7358 70.9448C62.7358 75.5464 64.7964 78.2944 67.2554 79.8384C66.4155 79.9419 65.5581 79.9106 64.7593 79.6284C63.064 79.0298 61.7964 77.3071 60.9917 74.5073C60.7124 73.5307 59.7593 72.9204 58.7378 73.0864C56.4351 73.4731 54.4273 75.1245 53.4956 77.396C52.6167 79.5444 52.2964 83.0571 55.3589 87.9468C55.1909 88.019 54.9956 88.0737 54.771 88.102C53.3198 88.2866 51.2417 87.1831 49.1655 85.0727C47.6987 83.5786 45.7065 83.3735 43.978 84.5503C40.5455 86.8833 38.5615 94.379 40.6691 100.936C37.9712 102.904 36.3433 106.012 36.3433 109.428C36.3433 115.257 41.1147 120 46.98 120C51.621 120 55.6442 117.003 57.0557 112.771C58.8577 113.003 60.6538 113.147 62.4331 113.147C71.0757 113.147 79.3394 110.428 86.2066 105.241C93.3237 99.8638 98.1069 92.2993 99.0015 85.0073C99.8023 78.56 99.2905 73.6509 97.4819 70.4116C97.3667 70.2055 97.3882 70.0132 97.4253 69.8882C97.4624 69.772 97.5601 69.5571 97.8276 69.4233ZM46.98 116C43.3198 116 40.3433 113.051 40.3433 109.428C40.3433 107.585 41.103 105.88 42.4038 104.663C44.2222 107.517 47.4272 110.517 53.0659 112.036C52.0464 114.384 49.6792 116 46.98 116ZM96.0308 65.8491C94.8648 66.436 93.98 67.4809 93.6011 68.7182C93.2241 69.9507 93.3648 71.2466 93.9917 72.3647C94.9429 74.0679 95.8941 77.5581 95.0327 84.5181C94.2671 90.7583 90.0659 97.312 83.7964 102.048C76.0933 107.867 66.4214 110.223 56.5171 108.682L55.8829 108.574C50.4282 107.568 46.7463 105.006 44.9396 100.958L44.939 100.955C43.1655 96.9604 43.6675 92.396 44.9507 89.645C45.5991 88.2524 46.2378 87.8208 46.314 87.8784C50.1597 91.7847 53.3023 92.313 55.2612 92.0718C57.1323 91.8413 58.7398 90.8022 59.6694 89.2212C60.0737 88.5366 60.0327 87.6772 59.5659 87.0337C56.4019 82.6626 56.7241 80.0688 57.1968 78.9126C57.3843 78.4565 57.6421 78.0923 57.9292 77.81C59.1694 80.6723 61.0132 82.5483 63.4272 83.3999C68.5737 85.2231 74.148 81.3686 74.3823 81.2036C75.0913 80.7036 75.394 79.8032 75.1362 78.9741C74.8784 78.145 74.1108 77.5766 73.2417 77.5669C72.1558 77.5552 66.7358 77.1792 66.7358 70.9448C66.7358 61.1528 76.3628 59.3159 82.103 59.0923C82.5483 59.0757 82.9741 58.9096 83.314 58.6225L92.312 51.0288C93.1108 50.3559 93.9878 50.2143 94.5816 50.2143C95.6636 50.2143 96.6636 50.685 97.3198 51.5044C98.4956 52.9731 98.2769 55.144 96.8276 56.3432L90.6089 61.5034C89.7593 62.2085 89.6421 63.4692 90.3472 64.3198C91.0483 65.1675 92.3101 65.2876 93.1636 64.5815L99.3804 59.4223C102.156 57.124 102.823 53.1727 101.151 50.0985C104.01 48.2715 106.853 47.588 109.099 48.23C110.556 48.644 111.611 49.5864 112.15 50.9516C113.503 54.3969 107.175 60.2446 96.0308 65.8491Z" fill="white"/>
<path d="M52.3432 73.9998C55.6518 73.9998 58.3432 71.3084 58.3432 67.9998C58.3432 66.0424 56.562 62.8468 55.1382 60.6014C56.262 59.4046 56.6638 57.6541 56.0658 56.0409L48.7187 36.2202L50.7748 35.0203C51.7221 34.4666 52.0482 33.2537 51.5033 32.3006L48.1283 26.3934C47.8647 25.9305 47.4252 25.5916 46.9096 25.4539C46.3979 25.3162 45.8451 25.3895 45.3842 25.658L42.7436 27.199L39.5268 21.5662C38.5814 19.911 37.0521 18.7303 35.2201 18.2391C33.4018 17.7547 31.4975 18.0076 29.8666 18.9588C26.5053 20.9198 25.349 25.2752 27.2865 28.6668L30.5209 34.3309L27.849 35.8895C26.9018 36.4432 26.5756 37.6561 27.1205 38.6092L30.4955 44.5174C30.7592 44.9803 31.1986 45.3192 31.7143 45.4569C31.8842 45.5028 32.058 45.5252 32.2318 45.5252C32.5834 45.5252 32.9311 45.4325 33.2396 45.2528L35.2685 44.0688L48.5561 60.3817C48.7677 60.6421 49.0041 60.8709 49.2575 61.0704C47.8931 63.2758 46.3432 66.1742 46.3432 67.9998C46.3432 71.3084 49.0346 73.9998 52.3432 73.9998ZM52.3432 69.9998C51.2397 69.9998 50.3432 69.1024 50.3432 68.0018C50.3588 67.3905 51.1908 65.6483 52.3432 63.7069C53.4936 65.6473 54.3256 67.3895 54.3432 68.0018C54.3432 69.1034 53.4447 69.9998 52.3432 69.9998ZM32.9682 40.7801L31.5756 38.3455L34.2475 36.7869C35.1947 36.2342 35.5209 35.0203 34.976 34.0672L30.7592 26.6824C29.9057 25.1883 30.4096 23.2733 31.8822 22.4139C32.5873 22.0028 33.4018 21.8934 34.185 22.1033C34.9779 22.3153 35.642 22.8299 36.0541 23.5506L40.2709 30.9354C40.5346 31.3983 40.974 31.7371 41.4896 31.8748C42.0014 32.0135 42.5541 31.9393 43.015 31.6707L45.6557 30.1297L47.0482 32.5643L45.2575 33.6092L45.2514 33.6112L34.7299 39.7508L34.726 39.7545L32.9682 40.7801ZM38.7658 42.028L45.211 38.267L52.3158 57.4315C52.3881 57.6258 52.3119 57.8475 52.14 57.9481C51.9799 58.0379 51.7787 58.0028 51.6576 57.8563L38.7658 42.028Z" fill="white"/>
<path d="M33.345 97.3116C17.9231 88.3907 8.34302 71.7949 8.34302 54C8.34302 26.4297 30.7727 4 58.343 4C79.1946 4 98.052 17.1377 105.267 36.6924C105.652 37.7285 106.804 38.2617 107.837 37.876C108.872 37.4942 109.402 36.3438 109.021 35.3076C101.228 14.1895 80.8606 0 58.343 0C28.5676 0 4.34302 24.2246 4.34302 54C4.34302 73.2178 14.6887 91.1407 31.3411 100.774C31.6575 100.957 32.0012 101.043 32.3411 101.043C33.0325 101.043 33.7044 100.686 34.0735 100.044C34.6282 99.0879 34.3001 97.8653 33.345 97.3116Z" fill="white"/>
</svg>
