<svg width="103" height="110" viewBox="0 0 103 110" fill="none" xmlns="http://www.w3.org/2000/svg">
<path d="M85.6941 63.638C94.73 59.0941 104.933 52.2352 102.235 45.3629C101.319 43.039 99.4691 41.3775 97.0289 40.6838C93.7571 39.7536 89.8259 40.7187 86.1158 43.2863C85.0932 42.7074 83.9403 42.3631 82.7185 42.3631C81.0839 42.3631 79.5048 42.9352 78.2748 43.9745L70.501 50.5344C59.7015 51.144 53.5266 56.4041 53.5266 65.0327C53.5266 69.2508 55.4154 71.7699 57.6695 73.1852C56.8996 73.2801 56.1137 73.2514 55.3814 72.9927C53.8274 72.444 52.6654 70.8649 51.9278 68.2984C51.6718 67.4032 50.7981 66.8437 49.8617 66.9959C47.7509 67.3504 45.9104 68.8641 45.0564 70.9463C44.2507 72.9157 43.9571 76.1357 46.7644 80.6179C46.6104 80.6841 46.4314 80.7342 46.2255 80.7602C44.8952 80.9294 42.9903 79.9178 41.0871 77.9833C39.7426 76.6137 37.9164 76.4257 36.3319 77.5044C33.1855 79.643 31.3668 86.5141 33.2987 92.5247C30.8256 94.3289 29.3334 97.178 29.3334 100.309C29.3334 105.653 33.7072 110 39.0837 110C43.3379 110 47.0259 107.253 48.3197 103.373C49.9716 103.586 51.618 103.718 53.2491 103.718C61.1714 103.718 68.7465 101.226 75.0414 96.4707C81.5655 91.5418 85.9501 84.6077 86.7701 77.9234C87.5041 72.0134 87.035 67.5133 85.3772 64.544C85.2715 64.3551 85.2912 64.1787 85.3252 64.0641C85.3593 63.9576 85.4488 63.7607 85.6941 63.638ZM39.0837 106.333C35.7286 106.333 33 103.63 33 100.309C33 98.62 33.6965 97.057 34.8889 95.9407C36.5557 98.5573 39.4937 101.307 44.6625 102.699C43.7279 104.852 41.558 106.333 39.0837 106.333ZM84.0469 60.3617C82.9781 60.8997 82.167 61.8575 81.8197 62.9917C81.4742 64.1214 81.6031 65.3093 82.1778 66.3343C83.0497 67.8955 83.9216 71.0949 83.132 77.4749C82.4302 83.1951 78.5792 89.2027 72.8321 93.5443C65.7709 98.8778 56.905 101.038 47.8261 99.6253L47.2447 99.5262C42.2446 98.6038 38.8695 96.2551 37.2133 92.5445L37.2128 92.5417C35.5871 88.8804 36.0472 84.6963 37.2235 82.1746C37.8179 80.8981 38.4034 80.5024 38.4732 80.5552C41.9984 84.1359 44.8791 84.6202 46.6749 84.3991C48.39 84.1879 49.8635 83.2354 50.7157 81.7861C51.0863 81.1586 51.0487 80.3708 50.6208 79.7809C47.7204 75.774 48.0158 73.3964 48.4491 72.3365C48.621 71.9185 48.8573 71.5846 49.1205 71.3259C50.2574 73.9497 51.9475 75.6693 54.1604 76.4499C58.878 78.1212 63.9877 74.5879 64.2025 74.4366C64.8524 73.9783 65.1299 73.1529 64.8936 72.3929C64.6573 71.6329 63.9537 71.1119 63.1569 71.103C62.1615 71.0922 57.1932 70.7476 57.1932 65.0327C57.1932 56.0567 66.018 54.3729 71.2798 54.1679C71.688 54.1527 72.0783 54.0005 72.3899 53.7373L80.6381 46.7764C81.3703 46.1596 82.1742 46.0298 82.7185 46.0298C83.7103 46.0298 84.627 46.4613 85.2286 47.2123C86.3064 48.5587 86.1058 50.5487 84.7774 51.648L79.0769 56.3781C78.2981 57.0244 78.1906 58.1801 78.837 58.9598C79.4797 59.7368 80.6363 59.8469 81.4187 59.1997L87.1174 54.4705C89.6617 52.3637 90.273 48.7416 88.74 45.9236C91.3612 44.2488 93.9676 43.6223 96.0263 44.2108C97.3619 44.5903 98.3287 45.4542 98.8228 46.7057C100.064 49.8639 94.2627 55.2242 84.0469 60.3617Z" fill="white"/>
<path d="M44.0001 67.8331C47.033 67.8331 49.5001 65.366 49.5001 62.3331C49.5001 60.5388 47.8674 57.6095 46.5622 55.5512C47.5923 54.4542 47.9607 52.8495 47.4125 51.3707L40.6776 33.2017L42.5624 32.1019C43.4307 31.5943 43.7297 30.4825 43.2302 29.6088L40.1365 24.1939C39.8948 23.7695 39.4919 23.4589 39.0193 23.3327C38.5502 23.2065 38.0435 23.2736 37.621 23.5198L35.2004 24.9324L32.2517 19.769C31.3852 18.2516 29.9833 17.1694 28.3039 16.7191C26.6371 16.2751 24.8915 16.5069 23.3966 17.3788C20.3153 19.1764 19.2554 23.1689 21.0315 26.2778L23.9963 31.4699L21.5471 32.8986C20.6788 33.4062 20.3798 34.518 20.8793 35.3917L23.9731 40.8076C24.2148 41.2319 24.6176 41.5425 25.0902 41.6687C25.246 41.7108 25.4053 41.7314 25.5647 41.7314C25.887 41.7314 26.2056 41.6463 26.4885 41.4816L28.3483 40.3963L40.5286 55.3498C40.7226 55.5885 40.9392 55.7983 41.1715 55.9811C39.9208 58.0028 38.5001 60.6596 38.5001 62.3331C38.5001 65.366 40.9672 67.8331 44.0001 67.8331ZM44.0001 64.1664C42.9885 64.1664 42.1667 63.3438 42.1667 62.3349C42.1811 61.7745 42.9438 60.1775 44.0001 58.3979C45.0546 60.1766 45.8173 61.7736 45.8334 62.3349C45.8334 63.3447 45.0098 64.1664 44.0001 64.1664ZM26.2397 37.3817L24.9631 35.15L27.4123 33.7213C28.2807 33.2146 28.5797 32.1019 28.0801 31.2282L24.2148 24.4588C23.4324 23.0892 23.8943 21.3337 25.2442 20.546C25.8905 20.1691 26.6371 20.0689 27.3551 20.2613C28.0819 20.4556 28.6907 20.9273 29.0684 21.588L32.9338 28.3573C33.1755 28.7817 33.5784 29.0923 34.051 29.2185C34.5201 29.3456 35.0268 29.2776 35.4493 29.0314L37.8699 27.6188L39.1464 29.8505L37.5049 30.8084L37.4993 30.8101L27.8546 36.4382L27.851 36.4415L26.2397 37.3817ZM31.5541 38.5256L37.4622 35.078L43.975 52.6454C44.0413 52.8236 43.9714 53.0268 43.8139 53.119C43.6671 53.2014 43.4827 53.1691 43.3717 53.0348L31.5541 38.5256Z" fill="white"/>
<path d="M26.5851 89.2023C12.4484 81.0248 3.66667 65.812 3.66667 49.5C3.66667 24.2272 24.2272 3.66667 49.5 3.66667C68.614 3.66667 85.8999 15.7096 92.5135 33.6347C92.8662 34.5845 93.9226 35.0733 94.8697 34.7197C95.8186 34.3696 96.3037 33.3151 95.9546 32.3653C88.8111 13.007 70.1411 0 49.5 0C22.2059 0 0 22.2059 0 49.5C0 67.1163 9.48357 83.5456 24.7482 92.3766C25.0383 92.544 25.3534 92.6228 25.6649 92.6228C26.2987 92.6228 26.9146 92.2951 27.2529 91.707C27.7614 90.8306 27.4606 89.7098 26.5851 89.2023Z" fill="white"/>
</svg>
