<svg width="82" height="120" viewBox="0 0 82 120" fill="none" xmlns="http://www.w3.org/2000/svg">
<path d="M81.6328 79.3561C81.6154 68.9215 77.5727 58.8928 70.3413 51.3455C63.1098 43.7981 53.2431 39.3097 42.7829 38.809V31.4037C44.3257 32.3813 46.1158 32.9015 47.9441 32.9037H49.2767C50.5527 32.9074 51.8168 32.6588 52.9958 32.1724C54.1748 31.686 55.2453 30.9715 56.1453 30.0701L61.6387 24.5946C62.0029 24.2316 62.2074 23.7394 62.2074 23.2262C62.2074 22.7129 62.0029 22.2207 61.6387 21.8578L60.0303 20.2532C59.1303 19.3519 58.0598 18.6373 56.8808 18.151C55.7018 17.6646 54.4377 17.416 53.1616 17.4196H51.8291C50.5531 17.416 49.2889 17.6646 48.1099 18.151C46.9309 18.6373 45.8605 19.3519 44.9604 20.2532L42.7829 22.4249V15.2906C44.9752 14.8413 46.945 13.6528 48.3604 11.9252C49.7757 10.1976 50.5501 8.03665 50.5529 5.80654V1.93551C50.5529 1.42218 50.3482 0.929878 49.9839 0.566899C49.6197 0.20392 49.1256 0 48.6104 0C46.6232 0.0057913 44.6857 0.619674 43.0601 1.75859C41.4345 2.89751 40.1992 4.50649 39.5215 6.36784C37.7553 4.76886 35.4568 3.87924 33.0704 3.87103C32.5553 3.87103 32.0612 4.07495 31.6969 4.43793C31.3326 4.80091 31.1279 5.29321 31.1279 5.80654V9.67757C31.1308 11.9077 31.9051 14.0686 33.3205 15.7962C34.7358 17.5238 36.7056 18.7124 38.8979 19.1616V25.2139C37.2269 23.9323 35.1792 23.2338 33.0704 23.2262H29.1855C28.6703 23.2262 28.1762 23.4301 27.8119 23.7931C27.4476 24.1561 27.243 24.6484 27.243 25.1617C27.246 27.7274 28.2703 30.1871 30.0911 32.0014C31.9119 33.8156 34.3805 34.8362 36.9554 34.8393H38.8979V38.809C32.6518 39.0941 26.5553 40.8071 21.0799 43.8154C15.6045 46.8238 10.8971 51.0469 7.32174 56.158C3.7464 61.2692 1.399 67.1313 0.461155 73.291C-0.476695 79.4507 0.0201362 85.7428 1.91321 91.6805C3.80629 97.6183 7.04487 103.043 11.3784 107.534C15.712 112.025 21.0243 115.462 26.9045 117.581C32.7847 119.699 39.075 120.441 45.289 119.749C51.503 119.057 57.474 116.95 62.7401 113.591L62.777 113.628L62.9285 113.477C68.6608 109.802 73.3765 104.752 76.6442 98.7915C79.9118 92.8305 81.627 86.1483 81.6328 79.3561ZM47.7071 22.99C48.2474 22.4495 48.8899 22.021 49.5974 21.7293C50.3049 21.4376 51.0634 21.2885 51.8291 21.2907H53.1616C53.9273 21.2885 54.6858 21.4376 55.3933 21.7293C56.1008 22.021 56.7433 22.4495 57.2836 22.99L57.5187 23.2262L53.3986 27.3333C52.8583 27.8739 52.2159 28.3024 51.5084 28.5941C50.8008 28.8858 50.0423 29.0349 49.2767 29.0327H47.9441C47.1784 29.0349 46.4199 28.8858 45.7124 28.5941C45.0049 28.3024 44.3624 27.8739 43.8221 27.3333L43.5871 27.0972L47.7071 22.99ZM76.3375 69.4075L75.2361 68.3101C74.8719 67.9471 74.3779 67.7431 73.8628 67.743H70.782L68.0353 65.0062V61.9365C68.0352 61.4232 67.8305 60.9309 67.4662 60.5681L64.1503 57.2641V54.9957L66.3298 52.8241C71.0923 57.3621 74.5479 63.0883 76.3375 69.4075ZM42.7829 9.67757C42.7844 8.47702 43.1585 7.30632 43.8541 6.32601C44.5496 5.3457 45.5325 4.60378 46.6679 4.202V5.80654C46.6664 7.00709 46.2923 8.17779 45.5967 9.1581C44.9012 10.1384 43.9183 10.8803 42.7829 11.2821V9.67757ZM35.0129 9.67757V8.07303C36.1483 8.47481 37.1312 9.21673 37.8267 10.197C38.5223 11.1774 38.8965 12.3481 38.8979 13.5486V15.1531C37.7625 14.7514 36.7797 14.0094 36.0841 13.0291C35.3886 12.0488 35.0144 10.8781 35.0129 9.67757ZM36.9554 30.9682C35.7505 30.9668 34.5756 30.5939 33.5918 29.9009C32.6079 29.2079 31.8633 28.2285 31.4601 27.0972H33.0704C34.2753 27.0987 35.4502 27.4715 36.4341 28.1645C37.4179 28.8576 38.1625 29.8369 38.5658 30.9682H36.9554ZM35.0129 43.0865V45.651L32.2663 48.3879H29.1855C28.6703 48.388 28.1763 48.592 27.8121 48.955L23.9271 52.826C23.5628 53.1889 23.3581 53.6811 23.358 54.1944V57.2641L20.6113 60.0009H18.3347L13.2842 54.9686C18.932 48.6256 26.6099 44.427 35.0129 43.0865ZM40.8404 116.131C33.6257 116.135 26.5701 114.018 20.5569 110.046L22.2197 108.389H25.3005C25.8156 108.389 26.3096 108.185 26.6738 107.822L29.9896 104.518H32.2663L35.5821 107.822C35.9463 108.185 36.4403 108.389 36.9554 108.389H40.0362L43.3521 111.693C43.7163 112.056 44.2103 112.26 44.7254 112.26H50.5529C51.068 112.26 51.562 112.056 51.9262 111.693L55.2421 108.389H57.5187L59.9157 110.777C54.1718 114.274 47.5718 116.127 40.8404 116.131ZM63.1791 108.559L59.6826 105.075C59.3202 104.719 58.8319 104.519 58.3229 104.518H54.4379C53.9227 104.518 53.4287 104.722 53.0645 105.085L49.7487 108.389H45.5296L42.2138 105.085C41.8496 104.722 41.3556 104.518 40.8404 104.518H37.7596L34.4438 101.214C34.0796 100.851 33.5856 100.647 33.0704 100.647H29.1855C28.6703 100.647 28.1763 100.851 27.8121 101.214L24.4963 104.518H21.4155C20.9003 104.518 20.4063 104.722 20.0421 105.085L17.3867 107.731C10.1592 101.824 5.46027 93.3958 4.24505 84.1605C3.02982 74.9251 5.38948 65.5753 10.8444 58.0112L16.1571 63.3049C16.5214 63.6679 17.0154 63.8719 17.5305 63.872H21.4155C21.9306 63.8719 22.4246 63.6679 22.7888 63.3049L26.6738 59.4338C27.0381 59.0709 27.2428 58.5787 27.243 58.0654V54.9957L29.9896 52.2589H33.0704C33.5856 52.2588 34.0796 52.0548 34.4438 51.6918L38.3288 47.8208C38.6931 47.4579 38.8978 46.9656 38.8979 46.4523V42.68C39.5448 42.6452 40.1839 42.5813 40.8404 42.5813C49.0038 42.5823 56.9335 45.2974 63.3733 50.2963L60.8345 52.826C60.4702 53.1889 60.2655 53.6811 60.2654 54.1944V58.0654C60.2655 58.5787 60.4702 59.0709 60.8345 59.4338L64.1503 62.7378V65.8075C64.1504 66.3208 64.3552 66.813 64.7195 67.1759L68.6045 71.0469C68.9687 71.4099 69.4627 71.6139 69.9778 71.614H73.0586L77.5827 76.1218C77.6779 77.1902 77.7478 78.2645 77.7478 79.3561C77.7425 85.0133 76.4248 90.5927 73.8976 95.6585C71.3703 100.724 67.702 105.14 63.1791 108.559Z" fill="white"/>
<path d="M14.4497 83.2273L21.4155 76.2866V81.2918H25.3005V71.6142C25.3005 71.1009 25.0959 70.6086 24.7316 70.2456C24.3673 69.8826 23.8732 69.6787 23.358 69.6787H13.6456V73.5497H18.6688L10.3297 81.8589C9.96556 82.2219 9.76099 82.7141 9.76099 83.2273C9.76099 83.7405 9.96556 84.2328 10.3297 84.5957L20.0422 94.2733C20.4064 94.6363 20.9004 94.8403 21.4155 94.8404H40.8405V90.9694H22.2197L14.4497 83.2273Z" fill="white"/>
<path d="M59.6962 70.2461L56.9495 72.9829L67.2311 83.2276L59.4612 90.9696H51.3571L53.8687 88.467L51.122 85.7302L45.2946 91.5368C44.9304 91.8997 44.7258 92.3919 44.7258 92.9052C44.7258 93.4184 44.9304 93.9106 45.2946 94.2736L51.122 100.08L53.8687 97.3433L51.3571 94.8407H60.2654C60.7805 94.8406 61.2745 94.6366 61.6387 94.2736L71.3512 84.596C71.7153 84.233 71.9199 83.7408 71.9199 83.2276C71.9199 82.7144 71.7153 82.2221 71.3512 81.8592L59.6962 70.2461Z" fill="white"/>
<path d="M39.7021 58.0654H41.9787L49.7487 65.8074H44.7254V69.6785H54.4379C54.9531 69.6785 55.4471 69.4745 55.8114 69.1116C56.1757 68.7486 56.3804 68.2563 56.3804 67.7429V58.0654H52.4954V63.0706L44.1563 54.7614C43.7921 54.3984 43.2981 54.1944 42.7829 54.1943H38.8979C38.3828 54.1944 37.8888 54.3984 37.5246 54.7614L25.8696 66.3745L28.6163 69.1113L39.7021 58.0654Z" fill="white"/>
<path d="M46.6679 79.3563C46.6679 78.2079 46.3261 77.0853 45.6858 76.1304C45.0455 75.1755 44.1353 74.4313 43.0705 73.9918C42.0057 73.5523 40.834 73.4373 39.7035 73.6614C38.5731 73.8854 37.5348 74.4384 36.7198 75.2505C35.9048 76.0626 35.3498 77.0972 35.1249 78.2236C34.9001 79.3499 35.0155 80.5174 35.4565 81.5784C35.8976 82.6394 36.6445 83.5463 37.6028 84.1843C38.5612 84.8223 39.6879 85.1629 40.8404 85.1629C42.386 85.1629 43.8682 84.5511 44.9611 83.4622C46.0539 82.3733 46.6679 80.8963 46.6679 79.3563ZM40.8404 81.2919C40.4562 81.2919 40.0807 81.1783 39.7612 80.9657C39.4418 80.753 39.1928 80.4507 39.0458 80.097C38.8988 79.7434 38.8603 79.3542 38.9353 78.9787C39.0102 78.6033 39.1952 78.2584 39.4669 77.9877C39.7385 77.717 40.0847 77.5327 40.4615 77.458C40.8383 77.3833 41.2288 77.4217 41.5838 77.5682C41.9387 77.7147 42.2421 77.9627 42.4555 78.281C42.669 78.5993 42.7829 78.9735 42.7829 79.3563C42.7829 79.8697 42.5783 80.362 42.214 80.725C41.8497 81.0879 41.3556 81.2919 40.8404 81.2919Z" fill="white"/>
</svg>
